<REAPER_PROJECT 0.1 "6.67/win64" 1682870686
  <NOTES 0 2
  >
  RIPPLE 0
  GROUPOVERRIDE 0 0 0
  AUTOXFADE 1
  ENVATTACH 3
  POOLEDENVATTACH 0
  MIXERUIFLAGS 11 48
  PEAKGAIN 1
  FEEDBACK 0
  PANLAW 1
  PROJOFFS 0 0 0
  MAXPROJLEN 0 600
  GRID 3199 8 1 8 1 0 0 0
  TIMEMODE 1 5 -1 30 0 0 -1
  VIDEO_CONFIG 0 0 256
  PANMODE 3
  CURSOR 24.6
  ZOOM 4.61122669093425 0 0
  VZOOMEX 1 0
  USE_REC_CFG 0
  RECMODE 1
  SMPTESYNC 0 30 100 40 1000 300 0 0 1 0 0
  LOOP 0
  LOOPGRAN 0 4
  RECORD_PATH "" ""
  <RECORD_CFG
    ZXZhdxgAAA==
  >
  <APPLYFX_CFG
  >
  RENDER_FILE ""
  RENDER_PATTERN music1
  RENDER_FMT 0 2 44100
  RENDER_1X 0
  RENDER_RANGE 1 0 0 18 300
  RENDER_RESAMPLE 3 0 1
  RENDER_ADDTOPROJ 0
  RENDER_STEMS 0
  RENDER_DITHER 0
  TIMELOCKMODE 1
  TEMPOENVLOCKMODE 1
  ITEMMIX 1
  DEFPITCHMODE 589824 0
  TAKELANE 1
  SAMPLERATE 44100 0 0
  <RENDER_CFG
    dmdnb2ZmZj8AgAAAAIAAAAAgAAAAAAEAAA==
  >
  LOCK 1
  <METRONOME 6 2
    VOL 0.25 0.125
    FREQ 800 1600 1
    BEATLEN 4
    SAMPLES "" ""
    PATTERN 2863311530 2863311529
    MULT 1
  >
  GLOBAL_AUTO -1
  TEMPO 100 4 4
  PLAYRATE 1 0 0.25 4
  SELECTION 2.4 0
  SELECTION2 2.4 0
  MASTERAUTOMODE 0
  MASTERTRACKHEIGHT 0 0
  MASTERPEAKCOL 16576
  MASTERMUTESOLO 0
  MASTERTRACKVIEW 0 0.6667 0.5 0.5 0 -1 0 0 0 0 0 0 0
  MASTERHWOUT 0 0 1 0 0 0 0 -1
  MASTER_NCH 2 2
  MASTER_VOLUME 1 0 -1 -1 1
  MASTER_PANMODE 3
  MASTER_FX 1
  MASTER_SEL 0
  <MASTERPLAYSPEEDENV
    EGUID {F48AF709-CD89-4D6D-BE11-3A4A8B163FF8}
    ACT 0 -1
    VIS 0 1 1
    LANEHEIGHT 0 0
    ARM 0
    DEFSHAPE 0 -1 -1
  >
  <TEMPOENVEX
    EGUID {A8A3303B-A495-4EBE-8843-9A93DC70C375}
    ACT 0 -1
    VIS 1 0 1
    LANEHEIGHT 0 0
    ARM 0
    DEFSHAPE 1 -1 -1
  >
  <PROJBAY
  >
  <TRACK {7C59ED1F-53B2-4457-BCAA-A81DFA7548A3}
    NAME "Originals - Felt Piano"
    PEAKCOL 16576
    BEAT -1
    AUTOMODE 0
    VOLPAN 0.66233281984381 0 -1 -1 1
    MUTESOLO 0 0 0
    IPHASE 0
    PLAYOFFS 0 1
    ISBUS 0 0
    BUSCOMP 0 0 0 0 0
    SHOWINMIX 1 0.6667 0.5 1 0.5 0 -1 0
    SEL 1
    REC 0 5088 1 0 0 0 0 0
    VU 2
    TRACKHEIGHT 0 0 0 0 0 0
    INQ 0 0 0 0.5 100 0 0 100
    NCHAN 2
    FX 1
    TRACKID {7C59ED1F-53B2-4457-BCAA-A81DFA7548A3}
    PERF 0
    AUXRECV 1 0 1 0 0 0 0 -1 0 -1:U 0 -1 ''
    MIDIOUT -1
    MAINSEND 1 0
    <FXCHAIN
      WNDRECT -161 578 1365 1056
      SHOW 0
      LASTSEL 1
      DOCKED 0
      BYPASS 0 0 0
      <JS midi/midi_velocitycontrol ""
        1 0 97 102 0 127 - - - - - - - - - - - - - - - - - - - - - - - - - - - - - - - - - - - - - - - - - - - - - - - - - - - - - - - - - - 
      >
      FLOATPOS 0 0 0 0
      FXID {CFB865A4-1076-4796-A2E6-5A41838FD455}
      WAK 0 0
      BYPASS 0 0 0
      <VST "VST3i: Originals - Felt Piano (Spitfire Audio)" "Originals - Felt Piano (64 Bit).vst3" 0 "" 752105427{565354536670706F726967696E616C73} ""
        0zfULO5e7f4AAAAAAgAAAAEAAAAAAAAAAgAAAAAAAAAOIAAAAQAAAP//EAA=
        /h8AAAEAAABWc3RXAAAACAAAAAEAAAAAQ2NuSwAAH+ZGQkNoAAAAAlNmcHAAAQELAAAAAAAAAAAAAAAAAAAAAAAAAAAAAAAAAAAAAAAAAAAAAAAAAAAAAAAAAAAAAAAA
        AAAAAAAAAAAAAAAAAAAAAAAAAAAAAAAAAAAAAAAAAAAAAAAAAAAAAAAAAAAAAAAAAAAAAAAAAAAAAAAAAAAAAAAAAAAAAAAAAAAAAAAAAAAAAAAAAAAfTlZDMiEJHwAA
        PD94bWwgdmVyc2lvbj0iMS4wIiBlbmNvZGluZz0iVVRGLTgiPz4gPFNQSVRGSVJFQVVESU9fRkVMVFBJQU5PPjxNRVRBIGZhbWlseT0iRmVsdCBQaWFubyIgbmFtZT0i
        IzEgUmliYm9uIFJldmVyYiIgcHJvZHVjdE1vZGU9IjAiIHZlcnNpb249IjEuMC4xMSIgdGFncz0iU2ltcGxlLFBpYW5vIiBtb2RpZmllZD0iMSIvPjxVSSB1aXNpemU9
        IjAuOTgxMDM0NDgyNzU4NjIwNyIgdWljb2xsYXBzZWQ9IjAiLz48QVJUSUNTPjxTRVRUSU5HIGlkPSJwX3N5bmNUb1RlbXBvIiB2YWx1ZT0iMSIvPjxTRVRUSU5HIGlk
        PSJwX2R5bmFtaWNzVmVsb2NpdHlNb2RlIiB2YWx1ZT0iQ09NUFJFU1NFRCBWRUxPQ0lUWSBISUdIIi8+PFNFVFRJTkcgaWQ9InBfc2hvcnRSVE1vZGUiIHZhbHVlPSIt
        Mi4wIi8+PFNFVFRJTkcgaWQ9InBfdmVsb2NpdHlDdXJ2ZSIgdmFsdWU9IkxJTkVBUiBWRUxPQ0lUWSIvPjxTRVRUSU5HIGlkPSJwX3F1YW50aXNlTW9kZSIgdmFsdWU9
        IiIvPjxTRVRUSU5HIGlkPSJwX21peGVyQWR2YW5jZWQiIHZhbHVlPSIxIi8+PFNFVFRJTkcgaWQ9InBfbWl4ZXJHbG9iYWwiIHZhbHVlPSIxIi8+PFNFVFRJTkcgaWQ9
        InBfbWl4ZXJMb2NrIiB2YWx1ZT0iMCIvPjxTRVRUSU5HIGlkPSJwX21peGVyUGFnZSIgdmFsdWU9IiIvPjxTRVRUSU5HIGlkPSJwX2FydGljTG9jayIgdmFsdWU9IjAi
        Lz48U0VUVElORyBpZD0icF9hcnRpY1BhZ2UiIHZhbHVlPSIiLz48U0VUVElORyBpZD0icF9sYXN0U2VsZWN0ZWRQcmltYXJ5QXJ0aWMiIHZhbHVlPSIwIi8+PFNFVFRJ
        TkcgaWQ9InBfbWlkaUNoYW5uZWwiIHZhbHVlPSIwIi8+PFNFVFRJTkcgaWQ9InBfc2VsZWN0ZWRUYWdzIiB2YWx1ZT0iIi8+PFNFVFRJTkcgaWQ9InBfZmlsdGVyUG9z
        IiB2YWx1ZT0iW10iLz48U0VUVElORyBpZD0icF9wcmVzZXRQb3MiIHZhbHVlPSJbXSIvPjxTRVRUSU5HIGlkPSJwX2V2b0NvbnRhaW5lclBvcyIgdmFsdWU9IltdIi8+
        PFNFVFRJTkcgaWQ9InBfb2N0YXZlIiB2YWx1ZT0iMCIvPjxTRVRUSU5HIGlkPSJwX29kZXN0SW5kaWNlcyIgdmFsdWU9IjAsMSwyLDMsNCw1LDYsNyw4LDksMTAsMTEs
        MTIsMTMsMTQsMTUsMTYsMTcsMTgsMTksMjAsMjEsMjIsMjMsMjQsMjUsMjYsMjcsMjgsMjksMzAsMzEsMzIsMzMsMzQsMzUsMzYsMzcsMzgsMzksNDAsNDEsNDIsNDMs
        NDQsNDUsNDYsNDcsNDgsNDksNTAsNTEsNTIsNTMsNTQsNTUsNTYsNTcsNTgsNTksNjAsNjEsNjIsNjMsNjQsNjUsNjYsNjcsNjgsNjksNzAsNzEsNzIsNzMsNzQsNzUs
        NzYsNzcsNzgsNzksODAsODEsODIsODMsODQsODUsODYsODcsODgsODksOTAsOTEsOTIsOTMsOTQsOTUsOTYsOTcsOTgsOTksMTAwLDEwMSwxMDIsMTAzLDEwNCwxMDUs
        MTA2LDEwNywxMDgsMTA5LDExMCwxMTEsMTEyLDExMywxMTQsMTE1LDExNiwxMTcsMTE4LDExOSwxMjAsMTIxLDEyMiwxMjMsMTI0LDEyNSwxMjYsMTI3LDEyOCwxMjks
        MTMwLDEzMSwxMzIsMTMzLDEzNCwxMzUsMTM2LDEzNywxMzgsMTM5LDE0MCwxNDEsMTQyLDE0MywxNDQsMTQ1LDE0NiwxNDcsMTQ4LDE0OSwxNTAsMTUxLDE1MiwxNTMs
        MTU0LDE1NSwxNTYsMTU3LDE1OCwxNTksMTYwLDE2MSwxNjIsMTYzLDE2NCwxNjUsMTY2LDE2NywxNjgsMTY5LDE3MCwxNzEsMTcyLDE3MywxNzQsMTc1LDE3NiwxNzcs
        MTc4LDE3OSwxODAsMTgxLDE4MiwxODMsMTg0LDE4NSwxODYsMTg3LDE4OCwxODksMTkwLDE5MSwxOTIsMTkzLDE5NCwxOTUsMTk2LDE5NywxOTgsMTk5LDIwMCwyMDEs
        MjAyLDIwMywyMDQsMjA1LDIwNiwyMDcsMjA4LDIwOSwyMTAsMjExLDIxMiwyMTMsMjE0LDIxNSwyMTYsMjE3LDIxOCwyMTksMjIwLDIyMSwyMjIsMjIzLDIyNCwyMjUs
        MjI2LDIyNywyMjgsMjI5LDIzMCwyMzEsMjMyLDIzMywyMzQsMjM1LDIzNiwyMzcsMjM4LDIzOSwyNDAsMjQxLDI0MiwyNDMsMjQ0LDI0NSwyNDYsMjQ3LDI0OCwyNDks
        MjUwLDI1MSwyNTIsMjUzLDI1NCwyNTUsMjU2LDI1NywyNTgsMjU5LDI2MCwyNjEsMjYyLDI2MywyNjQiLz48U0VUVElORyBpZD0icF90aW1lU3RyZXRjaCIgdmFsdWU9
        IkRlZmF1bHQiLz48U0VUVElORyBpZD0icF92b2ljZUNob2tlIiB2YWx1ZT0iMC4wIi8+PFNFVFRJTkcgaWQ9InBfbG9vcEVuZCIgdmFsdWU9IjAuMCIvPjxBUlRJQz48
        U0VUVElORyBpZD0iYV9uYW1lIiB2YWx1ZT0iRmVsdCBQaWFubyAtIFBlZGFsIFVwIi8+PFNFVFRJTkcgaWQ9ImFfdmVyc2lvbiIgdmFsdWU9IjE2NzgwMDMyIi8+PFNF
        VFRJTkcgaWQ9ImFfdGVtcGxhdGVJZHgiIHZhbHVlPSIwIi8+PFNFVFRJTkcgaWQ9ImFfb2Rlc3QiIHZhbHVlPSJSRVZFUkIiLz48U0VUVElORyBpZD0iYV9hY3RpdmUi
        IHZhbHVlPSIyIi8+PFNFVFRJTkcgaWQ9ImFfYmFja0FjdGl2ZSIgdmFsdWU9IjAiLz48U0VUVElORyBpZD0iYV90d29IYW5kZWQiIHZhbHVlPSIwIi8+PFNFVFRJTkcg
        aWQ9ImFfYXV0b01ha2VVcCIgdmFsdWU9IjAiLz48U0VUVElORyBpZD0idF90eXBlIiB2YWx1ZT0iMCIvPjxTRVRUSU5HIGlkPSJ0X2VuYWJsZWQiIHZhbHVlPSIxIi8+
        PFNFVFRJTkcgaWQ9InRfbGF0Y2giIHZhbHVlPSIwIi8+PFNFVFRJTkcgaWQ9InRfa2V5c3dpdGNoIiB2YWx1ZT0iMCIvPjxTRVRUSU5HIGlkPSJ0X21pZGlDaGFubmVs
        IiB2YWx1ZT0iMSIvPjxTRVRUSU5HIGlkPSJ0X3ZlbEZyb20iIHZhbHVlPSIxIi8+PFNFVFRJTkcgaWQ9InRfdmVsVG8iIHZhbHVlPSIxMjciLz48U0VUVElORyBpZD0i
        dF9jYyIgdmFsdWU9IjMyIi8+PFNFVFRJTkcgaWQ9InRfY2NWYWx1ZUZyb20iIHZhbHVlPSI2NCIvPjxTRVRUSU5HIGlkPSJ0X2NjVmFsdWVUbyIgdmFsdWU9IjEyNyIv
        PjxTRVRUSU5HIGlkPSJ0X3NwZWVkRnJvbSIgdmFsdWU9IjAuMCIvPjxTRVRUSU5HIGlkPSJ0X3NwZWVkVG8iIHZhbHVlPSIwLjUiLz48U0VUVElORyBpZD0idF9wcm9n
        cmFtQ2hhbmdlIiB2YWx1ZT0iMCIvPjxTRVRUSU5HIGlkPSJ0X3RlbXBvRnJvbSIgdmFsdWU9IjAuMCIvPjxTRVRUSU5HIGlkPSJ0X3RlbXBvVG8iIHZhbHVlPSIwLjAi
        Lz48U0VUVElORyBpZD0icnJfdGltZW91dCIgdmFsdWU9Ii0xLjAiLz48U0VUVElORyBpZD0icnJfbmVpZ2hib3VyTWluIiB2YWx1ZT0iMjEiLz48U0VUVElORyBpZD0i
        cnJfbmVpZ2hib3VyTWF4IiB2YWx1ZT0iMTA4Ii8+PFNFVFRJTkcgaWQ9InJyX3VzZU5laWdoYm91ciIgdmFsdWU9IjAiLz48U0VUVElORyBpZD0icnJfY291bnQiIHZh
        bHVlPSI0Ii8+PFNFVFRJTkcgaWQ9InJyX2luYyIgdmFsdWU9IjEiLz48U0VUVElORyBpZD0icnJfbGF5ZXJzIiB2YWx1ZT0iMSIvPjxTRVRUSU5HIGlkPSJycl9nYWlu
        IiB2YWx1ZT0iMS4wIi8+PFNFVFRJTkcgaWQ9InJyX3N0YXJ0IiB2YWx1ZT0iMCIvPjxTRVRUSU5HIGlkPSJycl9zeW5jIiB2YWx1ZT0iMCIvPjxTRVRUSU5HIGlkPSJy
        cl9wbGF5IiB2YWx1ZT0iMSIvPjxTRVRUSU5HIGlkPSJycl9rZXlzd2l0Y2hGcm9tIiB2YWx1ZT0iLTEiLz48U0VUVElORyBpZD0icnJfa2V5c3dpdGNoVG8iIHZhbHVl
        PSItMSIvPjxTRVRUSU5HIGlkPSJycl9rZXlzd2l0Y2hUbyIgdmFsdWU9Ii0xIi8+PFNFVFRJTkcgaWQ9InJyX21vZGUiIHZhbHVlPSIwIi8+PFNFVFRJTkcgaWQ9InJy
        X3BhdHRlcm5PZGRzIiB2YWx1ZT0iMCIvPjxTRVRUSU5HIGlkPSJycl9wYXR0ZXJuRXZlbnMiIHZhbHVlPSIwIi8+PFNFVFRJTkcgaWQ9InJyX3BhdHRlcm5PZGRTdGFy
        dCIgdmFsdWU9IjAiLz48U0VUVElORyBpZD0icl9taWRpQ2hhbm5lbCIgdmFsdWU9IjAiLz48U0VUVElORyBpZD0icl90cmFuc3Bvc2UiIHZhbHVlPSIwIi8+PFNFVFRJ
        TkcgaWQ9InJfbGF5ZXJUcmFuc3Bvc2UiIHZhbHVlPSIwIi8+PFNFVFRJTkcgaWQ9ImlfZXhwcmVzc2lvbiIgdmFsdWU9IjEuMCIvPjxTRVRUSU5HIGlkPSJpX2R5bmFt
        aWNzIiB2YWx1ZT0iMC42NDU2NjkyODE0ODI2OTY1Ii8+PFNFVFRJTkcgaWQ9ImlfcmV2ZXJiIiB2YWx1ZT0iMC4xNTE2OTg5NzY3NTUxNDIyIi8+PFNFVFRJTkcgaWQ9
        ImlfcmVsZWFzZSIgdmFsdWU9IjAuNSIvPjxTRVRUSU5HIGlkPSJpX3RpZ2h0IiB2YWx1ZT0iMC41Ii8+PFNFVFRJTkcgaWQ9ImlfdmlicmF0byIgdmFsdWU9IjEuMCIv
        PjxTRVRUSU5HIGlkPSJpX3ZhcmlhdGlvbiIgdmFsdWU9IjAuMCIvPjxTRVRUSU5HIGlkPSJzX3BhbiIgdmFsdWU9IjAuNSIvPjxTRVRUSU5HIGlkPSJzX3dpZHRoIiB2
        YWx1ZT0iMC41Ii8+PFNFVFRJTkcgaWQ9InNfZmxpcCIgdmFsdWU9IjAuMCIvPjxNSVg+PFNFVFRJTkcgaWQ9Im1fY25kc3IiIHZhbHVlPSIwLjc5MjA1ODExMDIzNzEy
        MTYiIG1pY0lkPSIxIi8+PFNFVFRJTkcgaWQ9ImVfY25kc3IiIHZhbHVlPSIxIiBtaWNJZD0iMSIvPjxTRVRUSU5HIGlkPSJiX2NuZHNyIiB2YWx1ZT0iMCIgbWljSWQ9
        IjEiLz48U0VUVElORyBpZD0ibV9yaWJib24iIHZhbHVlPSIwLjU3MDQ2NDE5MzgyMDk1MzQiIG1pY0lkPSIyIi8+PFNFVFRJTkcgaWQ9ImVfcmliYm9uIiB2YWx1ZT0i
        MSIgbWljSWQ9IjIiLz48U0VUVElORyBpZD0iYl9yaWJib24iIHZhbHVlPSIwIiBtaWNJZD0iMiIvPjxTRVRUSU5HIGlkPSJtX2hhbW1lcnMiIHZhbHVlPSIwLjU1NTY5
        MTQ4MDYzNjU5NjciIG1pY0lkPSIzIi8+PFNFVFRJTkcgaWQ9ImVfaGFtbWVycyIgdmFsdWU9IjEiIG1pY0lkPSIzIi8+PFNFVFRJTkcgaWQ9ImJfaGFtbWVycyIgdmFs
        dWU9IjAiIG1pY0lkPSIzIi8+PC9NSVg+PC9BUlRJQz48QVJUSUM+PFNFVFRJTkcgaWQ9ImFfbmFtZSIgdmFsdWU9IkZlbHQgUGlhbm8gLSBQZWRhbCBEb3duIi8+PFNF
        VFRJTkcgaWQ9ImFfdmVyc2lvbiIgdmFsdWU9IjE2NzgwMDMyIi8+PFNFVFRJTkcgaWQ9ImFfdGVtcGxhdGVJZHgiIHZhbHVlPSIwIi8+PFNFVFRJTkcgaWQ9ImFfb2Rl
        c3QiIHZhbHVlPSJSRVZFUkIiLz48U0VUVElORyBpZD0iYV9hY3RpdmUiIHZhbHVlPSIwIi8+PFNFVFRJTkcgaWQ9ImFfYmFja0FjdGl2ZSIgdmFsdWU9IjAiLz48U0VU
        VElORyBpZD0iYV90d29IYW5kZWQiIHZhbHVlPSIwIi8+PFNFVFRJTkcgaWQ9ImFfYXV0b01ha2VVcCIgdmFsdWU9IjAiLz48U0VUVElORyBpZD0idF90eXBlIiB2YWx1
        ZT0iNCIvPjxTRVRUSU5HIGlkPSJ0X2VuYWJsZWQiIHZhbHVlPSIxIi8+PFNFVFRJTkcgaWQ9InRfbGF0Y2giIHZhbHVlPSIxIi8+PFNFVFRJTkcgaWQ9InRfa2V5c3dp
        dGNoIiB2YWx1ZT0iMCIvPjxTRVRUSU5HIGlkPSJ0X21pZGlDaGFubmVsIiB2YWx1ZT0iMSIvPjxTRVRUSU5HIGlkPSJ0X3ZlbEZyb20iIHZhbHVlPSIxIi8+PFNFVFRJ
        TkcgaWQ9InRfdmVsVG8iIHZhbHVlPSIxMjciLz48U0VUVElORyBpZD0idF9jYyIgdmFsdWU9IjY0Ii8+PFNFVFRJTkcgaWQ9InRfY2NWYWx1ZUZyb20iIHZhbHVlPSI2
        NCIvPjxTRVRUSU5HIGlkPSJ0X2NjVmFsdWVUbyIgdmFsdWU9IjEyNyIvPjxTRVRUSU5HIGlkPSJ0X3NwZWVkRnJvbSIgdmFsdWU9IjAuMCIvPjxTRVRUSU5HIGlkPSJ0
        X3NwZWVkVG8iIHZhbHVlPSIwLjUiLz48U0VUVElORyBpZD0idF9wcm9ncmFtQ2hhbmdlIiB2YWx1ZT0iMCIvPjxTRVRUSU5HIGlkPSJ0X3RlbXBvRnJvbSIgdmFsdWU9
        IjAuMCIvPjxTRVRUSU5HIGlkPSJ0X3RlbXBvVG8iIHZhbHVlPSIwLjAiLz48U0VUVElORyBpZD0icnJfdGltZW91dCIgdmFsdWU9Ii0xLjAiLz48U0VUVElORyBpZD0i
        cnJfbmVpZ2hib3VyTWluIiB2YWx1ZT0iMjEiLz48U0VUVElORyBpZD0icnJfbmVpZ2hib3VyTWF4IiB2YWx1ZT0iMTA4Ii8+PFNFVFRJTkcgaWQ9InJyX3VzZU5laWdo
        Ym91ciIgdmFsdWU9IjAiLz48U0VUVElORyBpZD0icnJfY291bnQiIHZhbHVlPSI0Ii8+PFNFVFRJTkcgaWQ9InJyX2luYyIgdmFsdWU9IjEiLz48U0VUVElORyBpZD0i
        cnJfbGF5ZXJzIiB2YWx1ZT0iMSIvPjxTRVRUSU5HIGlkPSJycl9nYWluIiB2YWx1ZT0iMS4wIi8+PFNFVFRJTkcgaWQ9InJyX3N0YXJ0IiB2YWx1ZT0iMCIvPjxTRVRU
        SU5HIGlkPSJycl9zeW5jIiB2YWx1ZT0iMCIvPjxTRVRUSU5HIGlkPSJycl9wbGF5IiB2YWx1ZT0iMSIvPjxTRVRUSU5HIGlkPSJycl9rZXlzd2l0Y2hGcm9tIiB2YWx1
        ZT0iLTEiLz48U0VUVElORyBpZD0icnJfa2V5c3dpdGNoVG8iIHZhbHVlPSItMSIvPjxTRVRUSU5HIGlkPSJycl9rZXlzd2l0Y2hUbyIgdmFsdWU9Ii0xIi8+PFNFVFRJ
        TkcgaWQ9InJyX21vZGUiIHZhbHVlPSIwIi8+PFNFVFRJTkcgaWQ9InJyX3BhdHRlcm5PZGRzIiB2YWx1ZT0iMCIvPjxTRVRUSU5HIGlkPSJycl9wYXR0ZXJuRXZlbnMi
        IHZhbHVlPSIwIi8+PFNFVFRJTkcgaWQ9InJyX3BhdHRlcm5PZGRTdGFydCIgdmFsdWU9IjAiLz48U0VUVElORyBpZD0icl9taWRpQ2hhbm5lbCIgdmFsdWU9IjAiLz48
        U0VUVElORyBpZD0icl90cmFuc3Bvc2UiIHZhbHVlPSIwIi8+PFNFVFRJTkcgaWQ9InJfbGF5ZXJUcmFuc3Bvc2UiIHZhbHVlPSIwIi8+PFNFVFRJTkcgaWQ9ImlfZXhw
        cmVzc2lvbiIgdmFsdWU9IjEuMCIvPjxTRVRUSU5HIGlkPSJpX2R5bmFtaWNzIiB2YWx1ZT0iMC42NDU2NjkyODE0ODI2OTY1Ii8+PFNFVFRJTkcgaWQ9ImlfcmV2ZXJi
        IiB2YWx1ZT0iMC4xNTE2OTg5NzY3NTUxNDIyIi8+PFNFVFRJTkcgaWQ9ImlfcmVsZWFzZSIgdmFsdWU9IjAuNSIvPjxTRVRUSU5HIGlkPSJpX3RpZ2h0IiB2YWx1ZT0i
        MC41Ii8+PFNFVFRJTkcgaWQ9ImlfdmlicmF0byIgdmFsdWU9IjEuMCIvPjxTRVRUSU5HIGlkPSJpX3ZhcmlhdGlvbiIgdmFsdWU9IjAuMCIvPjxTRVRUSU5HIGlkPSJz
        X3BhbiIgdmFsdWU9IjAuNSIvPjxTRVRUSU5HIGlkPSJzX3dpZHRoIiB2YWx1ZT0iMC41Ii8+PFNFVFRJTkcgaWQ9InNfZmxpcCIgdmFsdWU9IjAuMCIvPjxNSVg+PFNF
        VFRJTkcgaWQ9Im1fY25kc3IiIHZhbHVlPSIwLjc5MjA1ODExMDIzNzEyMTYiIG1pY0lkPSIxIi8+PFNFVFRJTkcgaWQ9ImVfY25kc3IiIHZhbHVlPSIxIiBtaWNJZD0i
        MSIvPjxTRVRUSU5HIGlkPSJiX2NuZHNyIiB2YWx1ZT0iMCIgbWljSWQ9IjEiLz48U0VUVElORyBpZD0ibV9yaWJib24iIHZhbHVlPSIwLjU3MDQ2NDE5MzgyMDk1MzQi
        IG1pY0lkPSIyIi8+PFNFVFRJTkcgaWQ9ImVfcmliYm9uIiB2YWx1ZT0iMSIgbWljSWQ9IjIiLz48U0VUVElORyBpZD0iYl9yaWJib24iIHZhbHVlPSIwIiBtaWNJZD0i
        MiIvPjxTRVRUSU5HIGlkPSJtX2hhbW1lcnMiIHZhbHVlPSIwLjU1NTY5MTQ4MDYzNjU5NjciIG1pY0lkPSIzIi8+PFNFVFRJTkcgaWQ9ImVfaGFtbWVycyIgdmFsdWU9
        IjEiIG1pY0lkPSIzIi8+PFNFVFRJTkcgaWQ9ImJfaGFtbWVycyIgdmFsdWU9IjAiIG1pY0lkPSIzIi8+PC9NSVg+PC9BUlRJQz48L0FSVElDUz48UEFSQU1FVEVSUz48
        UEFSQU0gaWQ9ImdfZ2FpbiIgdmFsdWU9IjMuNTg1ODQ0Mjc4MzM1NTcxIiBjYz0iNyIvPjxQQVJBTSBpZD0iZ19wYW4iIHZhbHVlPSIwLjUiIGNjPSIxMCIvPjxQQVJB
        TSBpZD0iZ190dW5lIiB2YWx1ZT0iMC4wIiBjYz0iLTEiLz48UEFSQU0gaWQ9ImlfcmV2ZXJiIiB2YWx1ZT0iMC4xNTE2OTg5NzY3NTUxNDIyIiBjYz0iMTkiLz48UEFS
        QU0gaWQ9ImlfZXhwcmVzc2lvbiIgdmFsdWU9IjEuMCIgY2M9IjExIi8+PFBBUkFNIGlkPSJpX2R5bmFtaWNzIiB2YWx1ZT0iMC42NDU2NjkyODE0ODI2OTY1IiBjYz0i
        MSIvPjxQQVJBTSBpZD0iaV9lbnZhdHQiIHZhbHVlPSIwLjAwNTk5OTk5OTU4NjQ5Mjc3NyIgY2M9Ii0xIi8+PFBBUkFNIGlkPSJpX2VudmRlYyIgdmFsdWU9IjAuNzUi
        IGNjPSItMSIvPjxQQVJBTSBpZD0iaV9lbnZzdXMiIHZhbHVlPSIxLjAiIGNjPSItMSIvPjxQQVJBTSBpZD0iaV9lbnZyZWwiIHZhbHVlPSIxLjAiIGNjPSItMSIvPjxQ
        QVJBTSBpZD0iaV9wZWR2b2wiIHZhbHVlPSIwLjYwMDAwMDAyMzg0MTg1NzkiIGNjPSIxNiIvPjxQQVJBTSBpZD0ibV9jbmRzciIgdmFsdWU9IjAuNzkyMDU4MTEwMjM3
        MTIxNiIgY2M9IjIyIi8+PFBBUkFNIGlkPSJtX3JpYmJvbiIgdmFsdWU9IjAuNTcwNDY0MTkzODIwOTUzNCIgY2M9IjIzIi8+PFBBUkFNIGlkPSJtX2hhbW1lcnMiIHZh
        bHVlPSIwLjU1NTY5MTQ4MDYzNjU5NjciIGNjPSIyNCIvPjwvUEFSQU1FVEVSUz48L1NQSVRGSVJFQVVESU9fRkVMVFBJQU5PPgAAAAAAAAAAAEpVQ0VQcml2YXRlRGF0
        YQABAUJ5cGFzcwABAQMAHQAAAAAAAABKVUNFUHJpdmF0ZURhdGEAAAAAAAAAAA==
        AFByb2dyYW0gMQAQAAAA
      >
      FLOATPOS 0 0 0 0
      FXID {1F9B761C-DDEE-4DD1-BFB1-1FDDBDC5F410}
      WAK 0 0
    >
    <ITEM
      POSITION 0
      SNAPOFFS 0
      LENGTH 604.8
      LOOP 0
      ALLTAKES 0
      FADEIN 1 0 0 1 0 0 0
      FADEOUT 1 0 0 1 0 0 0
      MUTE 0 0
      SEL 1
      IGUID {4939C575-7478-4571-8A5D-E062CB4EB8EE}
      IID 5
      NAME "01-Originals - Felt Piano-Recorded MIDI"
      VOLPAN 1 0 1 -1
      SOFFS 472.80000000000041 788.00000000000068
      PLAYRATE 1 1 0 -1 0 0.0025
      CHANMODE 0
      GUID {CE103825-4E9A-4C00-BC83-BD9089D20C31}
      RECPASS 4
      <SOURCE MIDI
        HASDATA 1 960 QN
        CCINTERP 32
        POOLEDEVTS {F3C70B44-AA0D-4267-8D92-4D56A6105602}
        E 7615 95 3c 40
        E 2892 95 41 46
        E 142 85 3c 2c
        E 408 95 43 3c
        E 108 85 41 29
        E 438 95 48 51
        E 58 85 43 39
        E 2672 95 43 4d
        E 82 85 48 50
        E 890 95 45 56
        E 88 85 43 1f
        E 2746 95 43 5c
        E 59 85 45 37
        E 753 95 41 4c
        E 85 85 43 43
        E 109 95 40 4f
        E 59 85 41 53
        E 2799 95 3e 45
        E 115 85 40 35
        E 391 95 3c 3d
        E 90 85 3e 3e
        E 470 95 39 43
        E 91 85 3c 2e
        E 2659 95 3c 2f
        E 29 85 39 3b
        E 942 95 3b 48
        E 21 85 3c 4b
        E 2775 95 3c 40
        E 59 85 3b 43
        E 987 95 3e 30
        E 83 85 3c 3b
        E 7098 85 3e 1e
        E 455 95 40 40
        E 2926 95 43 2f
        E 146 85 40 22
        E 303 95 45 34
        E 143 85 43 27
        E 447 95 4a 53
        E 25 85 45 4e
        E 1938 95 4c 3d
        E 57 85 4a 79
        E 943 95 4f 4c
        E 37 85 4c 48
        E 876 95 4d 45
        E 96 85 4f 36
        E 1929 95 4c 4b
        E 70 85 4d 49
        E 1852 95 4a 4c
        E 69 85 4c 51
        E 2567 95 45 43
        E 38 85 4a 43
        E 495 95 47 45
        E 102 85 45 2e
        E 436 95 48 4d
        E 63 85 47 45
        E 1851 95 47 45
        E 76 85 48 36
        E 911 95 48 3f
        E 90 85 47 43
        E 881 95 4a 4f
        E 101 85 48 3d
        E 1817 95 45 37
        E 93 85 4a 49
        E 884 95 43 46
        E 35 85 45 4a
        E 1050 95 41 45
        E 103 85 43 2f
        E 1829 95 40 48
        E 75 85 41 46
        E 1935 95 3e 3f
        E 55 85 40 4c
        E 2387 85 3e 2a
        E 313 95 3e 4d
        E 1036 95 39 4c
        E 131 85 3e 35
        E 4425 95 37 39
        E 82 85 39 39
        E 835 95 35 30
        E 68 85 37 41
        E 1979 95 34 3c
        E 107 85 35 3e
        E 2489 95 35 37
        E 60 85 34 43
        E 421 95 34 30
        E 167 85 35 28
        E 331 95 32 1f
        E 54 85 34 2b
        E 2815 95 30 3c
        E 76 85 32 23
        E 437 95 32 39
        E 74 85 30 47
        E 403 95 34 3b
        E 99 85 32 33
        E 2656 95 35 40
        E 90 85 34 28
        E 966 95 37 4c
        E 108 85 35 34
        E 2895 95 39 30
        E 26 85 37 33
        E 508 95 3b 4a
        E 102 85 39 21
        E 461 95 3c 43
        E 66 85 3b 42
        E 2681 95 43 3d
        E 88 85 3c 40
        E 733 95 41 4f
        E 73 85 43 6b
        E 182 95 40 51
        E 68 85 41 54
        E 1889 95 3e 40
        E 81 85 40 53
        E 1925 95 3c 45
        E 20 85 3e 56
        E 2582 95 3e 46
        E 45 85 3c 3c
        E 957 95 3c 40
        E 22 85 3e 4b
        E 1935 95 39 28
        E 113 85 3c 3e
        E 1934 95 3b 4c
        E 114 85 39 37
        E 2565 95 3e 48
        E 99 85 3b 22
        E 920 95 39 33
        E 42 85 3e 46
        E 2760 95 37 24
        E 14 85 39 36
        E 475 95 39 40
        E 96 85 37 26
        E 453 95 3b 43
        E 72 85 39 41
        E 2738 95 40 47
        E 27 85 3b 39
        E 1033 95 3e 49
        E 80 85 40 4b
        E 1914 95 43 4f
        E 24 85 3e 3e
        E 1961 95 45 32
        E 11 85 43 7d
        E 2596 95 48 43
        E 28 85 45 40
        E 930 95 43 3c
        E 97 85 48 36
        E 3803 85 43 4d
        E 46 95 41 47
        E 1999 95 40 39
        E 28 85 41 47
        E 1954 95 3e 32
        E 142 85 40 35
        E 1750 95 3c 31
        E 15 85 3e 46
        E 1938 95 40 3d
        E 110 85 3c 2d
        E 2559 95 3e 40
        E 113 85 40 2e
        E 389 95 3c 40
        E 35 85 3e 38
        E 536 95 3b 48
        E 86 85 3c 3c
        E 2874 95 37 40
        E 64 85 3b 3a
        E 412 95 39 23
        E 104 85 37 1e
        E 505 95 3b 4a
        E 44 85 39 42
        E 2648 85 3b 31
        E 9 95 39 21
        E 389 95 3b 43
        E 150 85 39 21
        E 493 95 3c 46
        E 151 85 3b 2c
        E 1766 95 40 4d
        E 76 85 3c 45
        E 1793 95 3e 3e
        E 98 85 40 46
        E 2632 95 40 43
        E 57 85 3e 36
        E 672 95 3e 3f
        E 107 85 40 42
        E 147 95 3c 44
        E 63 85 3e 46
        E 3883 95 37 38
        E 70 85 3c 4d
        E 2820 95 3c 40
        E 32 85 37 40
        E 939 95 37 42
        E 28 85 3c 4a
        E 1878 95 35 3f
        E 92 85 37 3d
        E 1879 95 32 35
        E 94 85 35 30
        E 4385 85 32 36
        E 178 95 32 3c
        E 973 95 35 39
        E 93 85 32 42
        E 792 95 37 45
        E 68 85 35 2c
        E 968 95 35 3d
        E 110 85 37 44
        E 1821 95 34 2e
        E 59 85 35 3a
        E 1835 95 39 47
        E 44 85 34 4d
        E 1981 95 3e 4d
        E 21 85 39 53
        E 1879 95 3c 42
        E 935 85 3e 01
        E 851 95 3b 38
        E 64 85 3c 54
        E 1836 95 3c 31
        E 106 85 3b 30
        E 3851 95 48 4c
        E 72 85 3c 46
        E 2764 95 45 45
        E 95 85 48 4b
        E 391 95 43 3f
        E 153 85 45 32
        E 389 95 41 37
        E 46 85 43 41
        E 2768 95 43 4a
        E 90 85 41 33
        E 889 95 48 47
        E 68 85 43 4a
        E 2769 95 43 4c
        E 159 85 48 44
        E 581 95 41 41
        E 27 85 43 4f
        E 257 95 40 44
        E 53 85 41 45
        E 1802 95 3e 48
        E 3 85 40 53
        E 988 95 3c 47
        E 80 85 3e 29
        E 920 95 40 4d
        E 34 85 3c 48
        E 2895 85 40 56
        E 0 95 43 40
        E 696 95 45 4f
        E 82 85 43 3d
        E 164 95 48 49
        E 145 85 45 2c
        E 1790 95 4a 4a
        E 32 85 48 43
        E 916 85 4a 7b
        E 7 95 4c 4a
        E 1000 95 4f 45
        E 21 85 4c 57
        E 2475 95 4d 41
        E 132 85 4f 24
        E 699 95 4c 47
        E 79 85 4d 48
        E 184 95 4a 40
        E 76 85 4c 4a
        E 3878 95 48 48
        E 34 85 4a 4e
        E 3235 85 48 30
        E 503 95 48 52
        E 1985 95 45 43
        E 61 85 48 4c
        E 1916 95 48 54
        E 99 85 45 2c
        E 1827 95 4c 4e
        E 52 85 48 54
        E 1934 95 4a 4c
        E 47 85 4c 51
        E 2683 95 48 3d
        E 144 85 4a 30
        E 376 95 47 40
        E 91 85 48 3f
        E 468 95 45 46
        E 116 85 47 4a
        E 1708 95 43 49
        E 102 85 45 4d
        E 840 95 41 3f
        E 61 85 43 4c
        E 967 95 47 52
        E 63 85 41 4c
        E 1840 95 48 48
        E 95 85 47 4b
        E 810 95 45 48
        E 126 85 48 4a
        E 1007 95 4a 55
        E 19 85 45 52
        E 1883 95 48 57
        E 114 85 4a 3d
        E 1278 95 47 45
        E 72 85 48 4e
        E 446 95 48 38
        E 131 85 47 25
        E 2721 95 47 4b
        E 97 85 48 46
        E 860 95 45 43
        E 95 85 47 45
        E 1745 95 41 31
        E 55 85 45 42
        E 1901 95 43 33
        E 93 85 41 2a
        E 1800 95 40 35
        E 121 85 43 2b
        E 1816 95 41 42
        E 86 85 40 42
        E 1839 95 3e 47
        E 37 85 41 48
        E 1491 95 40 42
        E 112 85 3e 2a
        E 309 95 41 35
        E 68 85 40 4b
        E 2652 95 43 48
        E 84 85 41 38
        E 413 95 41 3b
        E 62 85 43 4f
        E 480 95 45 53
        E 47 85 41 43
        E 1917 95 43 4f
        E 113 85 45 3f
        E 723 95 41 28
        E 74 85 43 3b
        E 939 95 48 53
        E 55 85 41 44
        E 2805 95 4a 26
        E 88 85 48 79
        E 689 95 4c 66
        E 101 85 4a 30
        E 291 95 4a 2a
        E 121 85 4c 30
        E 1626 95 4f 3d
        E 63 85 4a 49
        E 1225 95 4d 2b
        E 159 85 4f 26
        E 361 95 4c 33
        E 79 85 4d 4a
        E 6425 85 4c 20
        E 376 95 4c 43
        E 984 95 4a 4a
        E 93 85 4c 43
        E 1987 85 4a 3a
        E 695 95 4a 3b
        E 979 95 47 3d
        E 53 85 4a 38
        E 2353 85 47 28
        E 463 95 47 40
        E 1017 95 45 4a
        E 90 85 47 32
        E 1824 95 43 45
        E 5 85 45 4b
        E 1600 95 41 2e
        E 99 85 43 3d
        E 453 95 40 3b
        E 117 85 41 30
        E 2475 95 3e 4c
        E 70 85 40 48
        E 409 95 3c 3d
        E 110 85 3e 2a
        E 433 95 3b 41
        E 130 85 3c 31
        E 1665 95 39 31
        E 41 85 3b 49
        E 982 95 3c 51
        E 93 85 39 3e
        E 851 95 3e 4a
        E 35 85 3c 4d
        E 1890 95 39 37
        E 21 85 3e 50
        E 938 95 3e 40
        E 65 85 39 38
        E 876 95 43 19
        E 95 85 3e 46
        E 1977 95 41 4f
        E 98 85 43 3f
        E 1821 85 41 4b
        E 138 95 41 47
        E 6792 85 41 22
        E 556 95 45 43
        E 281 85 45 2b
        E 625 95 45 4c
        E 205 85 45 35
        E 706 95 45 49
        E 202 85 45 24
        E 706 95 45 45
        E 457 95 43 2d
        E 44 85 45 33
        E 474 95 40 40
        E 25 85 43 32
        E 4140 95 43 47
        E 46 85 40 41
        E 191 85 43 2a
        E 666 95 43 40
        E 265 85 43 21
        E 631 95 43 43
        E 254 85 43 2d
        E 678 95 43 43
        E 505 95 41 2f
        E 63 85 43 2f
        E 705 95 40 20
        E 21 85 41 26
        E 1740 95 3c 3d
        E 158 85 40 23
        E 1279 85 3c 35
        E 410 95 3e 4e
        E 364 85 3e 20
        E 571 95 3e 3e
        E 355 85 3e 32
        E 596 95 3e 45
        E 275 85 3e 3d
        E 676 95 3c 46
        E 352 95 3e 3d
        E 169 85 3c 20
        E 461 95 40 51
        E 69 85 3e 22
        E 142 85 40 47
        E 700 95 40 1f
        E 222 85 40 47
        E 701 95 40 43
        E 240 85 40 3f
        E 730 95 3e 32
        E 395 95 40 3c
        E 174 85 3e 1c
        E 355 95 41 53
        E 110 85 40 33
        E 174 85 41 41
        E 660 95 43 43
        E 309 85 43 34
        E 649 95 41 53
        E 327 85 41 2c
        E 667 95 48 56
        E 473 85 48 24
        E 503 95 47 4c
        E 1318 85 47 27
        E 674 95 48 3d
        E 5726 95 34 55
        E 152 85 48 36
        E 3675 95 35 48
        E 97 85 34 4b
        E 3839 95 37 4c
        E 34 85 35 47
        E 1913 95 39 47
        E 57 85 37 73
        E 1469 95 3b 42
        E 112 85 39 4a
        E 441 95 3c 37
        E 113 85 3b 38
        E 2445 95 3b 33
        E 80 85 3c 34
        E 445 95 3c 3d
        E 47 85 3b 3e
        E 483 95 3e 4a
        E 29 85 3c 58
        E 1953 95 3c 48
        E 54 85 3e 46
        E 906 95 3e 3d
        E 69 85 3c 3b
        E 883 95 40 48
        E 106 85 3e 39
        E 1930 95 3e 4d
        E 4 85 40 59
        E 981 95 40 3a
        E 21 85 3e 48
        E 997 95 45 4c
        E 73 85 40 3f
        E 1818 95 43 4c
        E 38 85 45 4c
        E 1396 95 41 38
        E 30 85 43 45
        E 407 95 43 3f
        E 82 85 41 27
        E 3513 85 43 08
        E 188 95 45 51
        E 1949 95 43 49
        E 112 85 45 30
        E 1281 95 45 31
        E 152 85 43 26
        E 353 95 47 48
        E 102 85 45 34
        E 3738 95 48 4f
        E 30 85 47 46
        E 1679 95 47 4a
        E 129 85 48 40
        E 1201 95 45 3e
        E 91 85 47 29
        E 1945 95 48 59
        E 62 85 45 50
        E 9993 95 40 40
        E 73 85 48 4f
        E 402 85 40 09
        E 2487 95 40 37
        E 457 95 43 43
        E 65 85 40 23
        E 462 95 3e 35
        E 41 85 43 30
        E 724 85 3e 01
        E 3116 95 3c 31
        E 760 85 3c 1a
        E 2148 95 3c 36
        E 486 95 41 3f
        E 49 85 3c 24
        E 428 95 3e 2f
        E 25 85 41 2c
        E 1148 85 3e 1b
        E 654 95 39 32
        E 1090 85 39 2c
        E 825 95 3b 23
        E 939 85 3b 01
        E 1914 95 3b 35
        E 420 95 3c 24
        E 157 85 3b 20
        E 474 95 3e 45
        E 26 85 3c 48
        E 1799 95 3c 43
        E 75 85 3e 2f
        E 960 95 3e 34
        E 84 85 3c 30
        E 893 95 43 31
        E 51 85 3e 32
        E 1970 95 41 48
        E 132 85 43 32
        E 1924 95 40 44
        E 75 85 41 40
        E 2622 95 3e 43
        E 153 85 40 27
        E 830 95 3c 1a
        E 77 85 3e 4a
        E 2661 95 3e 3b
        E 23 85 3c 50
        E 488 95 3c 44
        E 52 85 3e 3b
        E 305 95 3b 30
        E 147 85 3c 28
        E 2757 95 3c 4a
        E 116 85 3b 21
        E 879 95 3b 3e
        E 86 85 3c 4a
        E 3862 95 39 40
        E 92 85 3b 2c
        E 2860 95 37 46
        E 50 85 39 4c
        E 389 95 39 26
        E 129 85 37 28
        E 450 95 3b 4b
        E 74 85 39 47
        E 1782 95 3c 4c
        E 4 85 3b 5c
        E 973 95 3e 38
        E 21 85 3c 49
        E 1034 95 40 3a
        E 50 85 3e 4c
        E 2491 95 41 4e
        E 93 85 40 2a
        E 847 95 43 50
        E 87 85 41 3d
        E 2031 95 41 53
        E 396 85 43 01
        E 1197 95 40 35
        E 101 85 41 46
        E 440 95 3e 45
        E 128 85 40 26
        E 2894 85 3e 4a
        E 667 95 3c 51
        E 3029 85 3c 2d
        E 595 95 3c 4a
        E 1998 95 3b 40
        E 32 85 3c 4d
        E 1985 95 3c 47
        E 65 85 3b 3d
        E 1940 95 39 38
        E 78 85 3c 32
        E 1873 95 40 3d
        E 105 85 39 2e
        E 3660 95 41 3e
        E 32 85 40 36
        E 1676 95 40 3c
        E 59 85 41 3d
        E 869 95 41 3f
        E 76 85 40 37
        E 433 95 43 41
        E 145 85 41 22
        E 368 95 45 43
        E 74 85 43 28
        E 1894 95 43 4a
        E 183 85 45 21
        E 763 95 41 48
        E 61 85 43 4c
        E 880 95 40 38
        E 83 85 41 30
        E 2607 95 41 46
        E 96 85 40 30
        E 414 95 40 40
        E 138 85 41 37
        E 368 95 3e 41
        E 68 85 40 33
        E 3951 95 3b 3b
        E 57 85 3e 48
        E 2887 95 39 3d
        E 181 85 3b 28
        E 4530 95 37 41
        E 31 85 39 4b
        E 1824 95 3b 3e
        E 130 85 37 30
        E 1947 95 35 31
        E 62 85 3b 46
        E 2799 95 37 46
        E 137 85 35 31
        E 327 95 35 34
        E 230 85 37 2b
        E 324 95 34 39
        E 52 85 35 43
        E 1810 95 35 43
        E 95 85 34 31
        E 810 95 34 21
        E 111 85 35 4c
        E 910 95 32 43
        E 99 85 34 43
        E 2956 95 30 3b
        E 47 85 32 28
        E 299 95 32 36
        E 79 85 30 20
        E 491 95 34 4a
        E 76 85 32 30
        E 1912 95 32 36
        E 98 85 34 3c
        E 4186 95 30 41
        E 90 85 32 48
        E 4141 95 2f 3a
        E 112 85 30 31
        E 3810 95 30 47
        E 74 85 2f 3e
        E 3468 85 30 25
        E 245 95 30 0e
        E 1878 95 35 20
        E 74 85 30 25
        E 4338 95 30 37
        E 177 85 35 2b
        E 7960 95 4f 2c
        E 2552 95 4d 23
        E 90 85 30 01
        E 5 85 4f 38
        E 867 95 4c 36
        E 52 85 4d 3f
        E 3651 85 4c 19
        E 218 95 4d 41
        E 2937 95 4c 4c
        E 106 85 4d 30
        E 800 95 4a 48
        E 96 85 4c 44
        E 2623 85 4a 1e
        E 165 95 47 3e
        E 816 85 47 28
        E 198 95 4a 45
        E 1246 85 4a 20
        E 638 95 48 3a
        E 906 85 48 29
        E 377 95 4a 4e
        E 274 85 4a 34
        E 261 95 4c 43
        E 2996 95 4f 3f
        E 106 85 4c 2c
        E 406 95 4d 47
        E 118 85 4f 2a
        E 376 95 4c 39
        E 86 85 4d 3c
        E 2442 85 4c 13
        E 422 95 4c 48
        E 426 95 4a 40
        E 92 85 4c 3f
        E 412 95 4c 37
        E 102 85 4a 36
        E 1777 95 48 28
        E 15 85 4c 3a
        E 865 95 47 53
        E 115 85 48 3b
        E 836 95 45 40
        E 103 85 47 32
        E 1270 95 47 48
        E 66 85 45 35
        E 341 95 45 34
        E 179 85 47 2c
        E 692 95 47 46
        E 66 85 45 34
        E 844 95 48 4a
        E 120 85 47 30
        E 1328 95 47 3d
        E 60 85 48 4a
        E 406 95 48 40
        E 279 85 47 0a
        E 563 95 4a 41
        E 94 85 48 34
        E 827 95 48 4a
        E 81 85 4a 3d
        E 844 95 4c 3f
        E 47 85 48 44
        E 792 95 4a 3e
        E 136 85 4c 2d
        E 795 85 4a 41
        E 16 95 4d 43
        E 834 95 4c 36
        E 131 85 4d 2b
        E 1754 95 4a 48
        E 69 85 4c 25
        E 866 95 48 36
        E 144 85 4a 2d
        E 300 95 47 22
        E 9 85 48 42
        E 492 95 45 3d
        E 94 85 47 27
        E 880 95 47 45
        E 116 85 45 1d
        E 815 95 41 2f
        E 67 85 47 43
        E 846 95 43 36
        E 36 85 41 44
        E 963 95 45 40
        E 82 85 43 29
        E 1894 95 43 46
        E 103 85 45 3a
        E 1289 95 41 3c
        E 180 85 43 37
        E 251 95 43 51
        E 116 85 41 3c
        E 2613 95 41 3e
        E 121 85 43 42
        E 604 95 40 3d
        E 50 85 41 44
        E 259 95 3e 5c
        E 90 85 40 40
        E 3788 95 3c 38
        E 100 85 3e 3c
        E 2839 95 3b 2e
        E 103 85 3c 37
        E 808 95 3e 40
        E 93 85 3b 32
        E 1812 95 3c 39
        E 86 85 3e 3a
        E 909 95 3e 3c
        E 82 85 3c 32
        E 987 95 40 49
        E 73 85 3e 22
        E 2026 95 43 46
        E 34 85 40 39
        E 1290 95 41 47
        E 119 85 43 39
        E 386 95 40 3d
        E 75 85 41 49
        E 2600 95 3e 43
        E 150 85 40 30
        E 336 95 3c 37
        E 61 85 3e 45
        E 466 95 3e 43
        E 112 85 3c 2c
        E 1731 95 3c 35
        E 49 85 3e 41
        E 841 95 3b 31
        E 350 85 3c 23
        E 628 95 39 36
        E 114 85 3b 3e
        E 1855 95 3b 46
        E 166 85 39 2a
        E 709 95 39 1f
        E 139 85 3b 34
        E 860 95 3e 33
        E 72 85 39 42
        E 842 95 3c 43
        E 105 85 3e 39
        E 832 95 3b 29
        E 118 85 3c 41
        E 1350 95 3c 46
        E 141 85 3b 36
        E 103 85 3c 37
        E 195 95 3c 45
        E 10580 95 37 26
        E 103 85 3c 50
        E 912 95 39 44
        E 105 85 37 3d
        E 931 95 35 37
        E 119 85 39 25
        E 955 95 39 38
        E 101 85 35 2a
        E 961 95 37 39
        E 79 85 39 35
        E 979 95 3e 44
        E 77 85 37 46
        E 990 95 39 42
        E 97 85 3e 3f
        E 977 95 37 36
        E 9 85 39 27
        E 1098 95 3e 43
        E 127 85 37 3f
        E 1006 95 39 3d
        E 95 85 3e 4f
        E 876 95 37 2b
        E 99 85 39 43
        E 982 95 3e 49
        E 128 85 37 35
        E 968 95 39 44
        E 99 85 3e 42
        E 894 95 37 35
        E 251 85 37 77
        E 881 95 40 4c
        E 63 85 39 46
        E 992 95 39 33
        E 18 85 40 40
        E 903 95 37 1d
        E 327 85 39 20
        E 695 95 41 3f
        E 117 85 37 40
        E 938 95 39 2a
        E 78 85 41 43
        E 930 95 37 01
        E 76 85 39 4f
        E 976 95 43 3e
        E 160 85 37 28
        E 787 95 39 1e
        E 97 85 43 37
        E 900 95 37 1d
        E 1034 95 41 41
        E 86 85 39 39
        E 52 85 37 3a
        E 863 95 39 2c
        E 214 85 41 1e
        E 823 95 37 36
        E 106 85 39 2c
        E 951 95 40 36
        E 109 85 37 32
        E 877 95 39 2a
        E 55 85 40 40
        E 974 95 37 3a
        E 84 85 39 2f
        E 940 95 3e 32
        E 121 85 37 2c
        E 848 95 39 21
        E 129 85 3e 2b
        E 793 95 37 2d
        E 43 85 39 39
        E 910 95 34 34
        E 123 85 37 36
        E 2702 95 35 43
        E 251 85 34 01
        E 789 95 32 22
        E 95 85 35 2d
        E 3116 85 32 27
        E 584 95 32 3f
        E 2766 95 34 40
        E 17 85 32 42
        E 920 95 2d 18
        E 56 85 34 51
        E 3949 95 2f 48
        E 105 85 2d 56
        E 2787 95 2d 23
        E 73 85 2f 50
        E 835 95 30 48
        E 134 85 2d 47
        E 2689 95 2d 36
        E 120 85 30 29
        E 358 95 30 3e
        E 86 85 2d 35
        E 372 95 34 43
        E 138 85 30 48
        E 1698 85 34 32
        E 41 95 32 2a
        E 930 95 37 3c
        E 114 85 32 26
        E 4621 95 41 4e
        E 335 85 37 2b
        E 1638 95 45 50
        E 50 85 41 3d
        E 1947 95 43 46
        E 40 85 45 44
        E 3776 95 40 21
        E 19 85 43 31
        E 1929 95 43 40
        E 99 85 40 36
        E 1823 95 41 40
        E 81 85 43 34
        E 3691 95 3e 3e
        E 117 85 41 30
        E 1856 95 41 49
        E 90 85 3e 33
        E 1842 95 40 4a
        E 50 85 41 4c
        E 853 95 3e 3f
        E 134 85 40 31
        E 741 95 3c 35
        E 74 85 3e 3c
        E 868 95 3b 25
        E 213 85 3c 26
        E 711 95 39 40
        E 79 85 3b 37
        E 1875 95 3b 4c
        E 44 85 39 50
        E 1534 95 3c 3d
        E 82 85 3b 1e
        E 117 85 3c 3c
        e 322 95 3c 3a -16
        e 9600 85 3c 30 87
        e 0 95 4a 32 -55
        e 960 85 4a 34 9
        e 0 95 43 3b -68
        e 960 85 43 2b -26
        e 0 95 48 34 -136
        e 960 85 48 47 -94
        e 0 95 43 43 -105
        e 960 85 43 30 -22
        e 0 95 4a 2f -54
        e 960 85 4a 24 9
        e 0 95 43 43 -87
        e 960 85 43 32 24
        e 0 95 48 3f -98
        e 960 85 48 38 -107
        e 0 95 43 2b -160
        e 960 85 43 39 6
        e 0 95 4d 3e -40
        e 960 85 4d 2c -29
        e 0 95 43 3f -66
        e 960 85 43 39 30
        e 0 95 4c 45 -54
        e 960 85 4c 29 12
        e 0 95 43 2c -71
        e 960 85 43 3d -46
        e 0 95 4d 34 -94
        e 960 85 4d 30 -46
        e 0 95 43 3e -147
        e 960 85 43 31 -76
        e 0 95 4c 3a -136
        e 960 85 4c 34 -145
        e 0 95 43 40 -180
        e 960 85 43 36 -140
        e 0 95 4a 2d -213
        e 960 85 4a 33 -148
        e 0 95 43 32 -245
        e 960 85 43 3b -145
        e 0 95 48 42 -227
        e 960 85 48 41 -200
        e 0 95 43 3a -258
        e 960 85 43 27 -180
        e 0 95 4a 3d -231
        e 960 85 4a 2c -166
        e 0 95 43 35 -231
        e 960 85 43 31 -79
        e 0 95 48 32 -230
        e 960 85 48 46 -140
        e 0 95 43 3c -195
        e 960 85 43 33 -33
        e 0 95 4d 40 -55
        e 960 85 4d 28 36
        e 0 95 43 2b -86
        e 960 85 43 3d 35
        e 0 95 4c 36 -60
        e 960 85 4c 36 49
        e 0 95 43 38 -32
        e 960 85 43 29 12
        e 0 95 4d 33 -75
        e 960 85 4d 42 -38
        e 0 95 43 3b -104
        e 960 85 43 22 50
        e 0 95 4c 34 -88
        e 960 85 4c 40 -8
        e 0 95 43 3b -76
        e 960 85 43 52 -23
        e 0 95 48 48 -90
        e 960 85 48 31 54
        e 0 95 43 32 -82
        e 960 85 43 44 105
        e 0 95 47 42 50
        e 960 85 47 4d 68
        e 0 95 43 45 67
        e 960 85 43 3c 119
        e 0 95 48 48 63
        e 960 85 48 39 127
        e 0 95 43 3c 9
        e 960 85 43 46 38
        e 0 95 47 3b -35
        e 960 85 47 3d 17
        e 0 95 43 36 -34
        e 960 85 43 33 -61
        e 0 95 45 4c
        e 960 85 45 33 -5
        e 0 95 43 40
        e 960 85 43 43 92
        e 0 95 47 46
        e 960 85 47 48 -33
        e 0 95 43 46 40
        e 960 85 43 3f 120
        e 0 95 45 4f -5
        e 960 85 45 2a
        e 0 95 43 2d
        e 960 85 43 43 45
        e 0 95 47 3e
        e 960 85 47 32 61
        e 0 95 43 30 61
        e 960 85 43 2f 120
        e 0 95 45 43
        e 960 85 45 3b -106
        e 0 95 40 3d
        e 960 85 40 1f 117
        e 0 95 43 40
        e 960 85 43 2b -24
        e 0 95 40 40 -16
        e 960 85 40 30 120
        e 0 95 3e 1f
        e 960 85 3e 38 -48
        e 0 95 40 25 -32
        e 960 85 40 24 121
        e 0 95 43 38 -9
        e 960 85 43 42 16
        e 0 95 40 2e 20
        e 960 85 40 24 144
        e 0 95 3c 28 5
        e 960 85 3c 36 57
        e 0 95 40 2b -31
        e 960 85 40 47 -33
        e 0 95 43 3f
        e 960 85 43 44 -43
        e 0 95 40 38 -56
        e 960 85 40 2f 32
        e 0 95 3b 23
        e 960 85 3b 53 25
        e 0 95 40 2c 43
        e 960 85 40 3b 62
        e 0 95 43 3f 27
        e 960 85 43 31 -75
        e 0 95 40 2c -77
        e 960 85 40 33 -73
        e 0 95 3c 22 21
        e 960 85 3c 49
        e 0 95 40 38 -22
        e 960 85 40 2a 36
        e 0 95 43 38 -32
        e 960 85 43 35 -41
        e 0 95 40 22 -70
        e 960 85 40 37 33
        e 0 95 47 4c -32
        e 960 85 47 2b -70
        e 0 95 40 37
        e 960 85 40 35 104
        e 0 95 45 43 -4
        e 960 85 45 48 -41
        e 0 95 40 38 -56
        e 960 85 40 2b 72
        e 0 95 43 4a -6
        e 960 85 43 33 -25
        e 0 95 3e 2b -61
        e 960 85 3e 2b 45
        e 0 95 43 46 -52
        e 960 85 43 32 -80
        e 0 95 40 31 -84
        e 960 85 40 33 -65
        e 0 95 47 49
        e 960 85 47 2c -1
        e 0 95 40 3c -38
        e 960 85 40 30 32
        e 0 95 45 42 -62
        e 960 85 45 4b -39
        e 0 95 43 45 -122
        e 960 85 43 23 -123
        e 0 95 40 34
        e 960 85 40 28 81
        e 0 95 47 44 -34
        e 960 85 47 3b -15
        e 0 95 45 19 -159
        e 960 85 45 31 -89
        e 0 95 40 27
        e 960 85 40 35 65
        e 0 95 43 22 -57
        e 960 85 43 28 -37
        e 0 95 40 2e 39
        e 960 85 40 38 120
        e 0 95 47 42 36
        e 960 85 47 26 -16
        e 0 95 40 2f -132
        e 960 85 40 35 -67
        e 0 95 45 4c
        e 960 85 45 4a 2
        e 0 95 43 40 -62
        e 960 85 43 2c -95
        e 0 95 47 45
        e 960 85 47 36 -34
        e 0 95 40 32 -60
        e 960 85 40 2b -7
        e 0 95 45 1e 47
        e 960 85 45 52
        e 0 95 43 45 -6
        e 960 85 43 1a
        e 0 95 45 47
        e 960 85 45 3b -91
        e 0 95 40 31 -17
        e 960 85 40 36
        e 0 95 47 46 -70
        e 960 85 47 30 -98
        e 0 95 43 36 -17
        e 960 85 43 32
        e 0 95 3e 2b -38
        e 960 85 3e 28 -33
        e 0 95 43 31 -78
        e 960 85 43 33 -30
        e 0 95 3e 30 -75
        e 960 85 3e 2f -69
        e 0 95 43 31 -158
        e 960 85 43 36 -170
        e 0 95 3e 20 -212
        e 960 85 3e 2c -147
        e 0 95 43 36
        e 960 85 43 21 -43
        e 0 95 3e 22 -20
        e 960 85 3e 2b 120
        e 0 95 43 2d 36
        e 960 85 43 27 8
        e 0 95 40 2f 19
        e 960 85 40 2d 72
        e 0 95 43 3e
        e 960 85 43 2a 62
        e 0 95 40 36 40
        e 960 85 40 2b
        e 0 95 43 32
        e 960 85 43 2a 42
        e 0 95 40 36 -74
        e 960 85 40 2f -9
        e 0 95 43 28 -18
        e 960 85 43 2a
        e 0 95 40 28
        e 960 85 40 3d 1
        e 0 95 43 46
        e 960 85 43 37 -36
        e 0 95 3c 3e -23
        e 960 85 3c 30
        e 0 95 43 40 14
        e 960 85 43 27
        e 0 95 3e 32
        e 960 85 3e 34 -76
        e 0 95 43 42 -42
        e 960 85 43 2a
        e 0 95 40 30 -49
        e 960 85 40 33
        e 0 95 43 26
        e 960 85 43 45 31
        e 0 95 3b 38 -48
        e 960 85 3b 2e
        e 0 95 43 22
        e 960 85 43 3c 5
        e 0 95 3c 38
        e 960 85 3c 38 49
        e 0 95 43 2e -27
        e 960 85 43 2f -28
        e 0 95 3c 2e
        e 960 85 3c 35 -10
        e 0 95 43 33 -41
        e 960 85 43 3d
        e 0 95 3c 31 -12
        e 960 85 3c 33
        e 0 95 43 21 39
        e 960 85 43 2c
        e 0 95 3c 24 -6
        e 960 85 3c 1d 240
        e 0 95 43 2e
        e 960 85 43 33 109
        e 0 95 48 41 11
        e 960 85 48 2d -59
        e 0 95 43 3a
        e 960 85 43 26 35
        e 0 95 47 45 25
        e 960 85 47 39
        e 0 95 43 48 -5
        e 960 85 43 3e
        e 0 95 4a 30
        e 960 85 4a 30 -9
        e 0 95 43 2d
        e 960 85 43 35 182
        e 0 95 48 44
        e 960 85 48 4f 21
        e 0 95 43 33
        e 960 85 43 31 -51
        e 0 95 47 3b
        e 960 85 47 2e -64
        e 0 95 43 32 -32
        e 960 85 43 37 -120
        e 0 95 4c 31 -56
        e 960 85 4c 27 -120
        e 0 95 43 33
        e 960 85 43 3d 12
        e 0 95 4a 45
        e 960 85 4a 39 -73
        e 0 95 43 36
        e 960 85 43 33 -84
        e 0 95 48 3b 8
        e 960 85 48 38 -120
        e 0 95 43 36
        e 960 85 43 4f -55
        e 0 95 4f 40
        e 960 85 4f 27 -47
        e 0 95 43 41 41
        e 960 85 43 4a
        e 0 95 4d 32 -32
        e 960 85 4d 49 -108
        e 0 95 43 3d
        e 960 85 43 33 -45
        e 0 95 4c 3e
        e 960 85 4c 48 -80
        e 0 95 43 42 16
        e 960 85 43 2e
        e 0 95 4a 3d
        e 960 85 4a 34 -104
        e 0 95 43 3f 34
        e 960 85 43 33
        e 0 95 48 2b
        e 960 85 48 38 -86
        e 0 95 43 2d -4
        e 960 85 43 31 120
        e 0 95 47 3e 25
        e 960 85 47 2e 36
        e 0 95 43 2d 37
        e 960 85 43 2c
        e 0 95 45 3b 70
        e 960 85 45 2c
        e 0 95 43 2d 57
        e 960 85 43 45
        e 0 95 45 39 -27
        e 960 85 45 45 -22
        e 0 95 43 43
        e 960 85 43 3d -100
        e 0 95 4c 2d -65
        e 960 85 4c 22 -120
        e 0 95 43 2f
        e 960 85 43 41 -24
        e 0 95 4a 41 1
        e 960 85 4a 3d -120
        e 0 95 43 39 -33
        e 960 85 43 32 -120
        e 0 95 48 47
        e 960 85 48 31 -120
        e 0 95 43 2a -13
        e 960 85 43 35 -120
        e 0 95 47 3b
        e 960 85 47 2d -119
        e 0 95 43 39 -27
        e 960 85 43 44 -120
        e 0 95 4c 43
        e 960 85 4c 2f -20
        e 0 95 43 33
        e 960 85 43 29 -117
        e 0 95 47 38 5
        e 960 85 47 2d -120
        e 0 95 43 38
        e 960 85 43 35 -30
        e 0 95 48 31 120
        e 960 85 48 33 -7
        e 0 95 43 31 2
        e 960 85 43 26
        e 0 95 47 1e 81
        e 960 85 47 2f -120
        e 0 95 43 34
        e 960 85 43 46 -13
        e 0 95 4d 40
        e 960 85 4d 27 -82
        e 0 95 43 31 75
        e 960 85 43 27
        e 0 95 4a 41
        e 960 85 4a 3b -78
        e 0 95 43 38 -4
        e 960 85 43 30 -120
        e 0 95 48 41
        e 960 85 48 2e 49
        e 0 95 43 31 32
        e 960 85 43 44
        e 0 95 4a 44 14
        e 960 85 4a 2a -120
        e 0 95 43 34 22
        e 960 85 43 39
        e 0 95 4c 2f
        e 960 85 4c 47 -114
        e 0 95 43 25 12
        e 960 85 43 01 360
        e 0 95 4a 2b
        e 960 85 4a 31 -59
        e 0 95 43 30 26
        e 960 85 43 39
        e 0 95 48 0b -53
        e 960 85 48 2f -70
        e 0 95 43 3c 46
        e 960 85 43 35
        e 0 95 47 37 33
        e 960 85 47 45
        e 0 95 43 3f
        e 960 85 43 2b 10
        e 0 95 40 1e
        e 960 85 40 2f -61
        e 0 95 43 2f -4
        e 960 85 43 32 43
        e 0 95 3e 2d
        e 960 85 3e 43 -53
        e 0 95 43 1a
        e 960 85 43 33 39
        e 0 95 41 3b 48
        e 960 85 41 46
        e 0 95 43 2a
        e 960 85 43 2c 39
        e 0 95 3e 35
        e 960 85 3e 48 -21
        e 0 95 43 21 1
        e 960 85 43 36
        e 0 95 40 30 32
        e 960 85 40 30 120
        e 0 95 43 37
        e 960 85 43 2b -72
        e 0 95 3e 23
        e 960 85 3e 45 -25
        e 0 95 43 29 -59
        e 960 85 43 4a -58
        e 0 95 40 2e 55
        e 960 85 40 42
        e 0 95 43 39 18
        e 960 85 43 35
        e 0 95 41 3c 8
        e 960 85 41 38 -120
        e 0 95 43 3f
        e 960 85 43 39 -85
        e 0 95 3c 30
        e 960 85 3c 3f -36
        e 0 95 43 25 -51
        e 960 85 43 3f -120
        e 0 95 3c 2c
        e 960 85 3c 38 -55
        e 0 95 43 29
        e 960 85 43 2d -67
        e 0 95 3c 36
        e 960 85 3c 2d 64
        e 0 95 43 32
        e 960 85 43 33 23
        e 0 95 3c 3a
        e 960 85 3c 40 -86
        e 0 95 43 30
        e 960 85 43 46 -34
        e 0 95 3b 3f
        e 960 85 3b 38 -26
        e 0 95 43 3d -11
        e 960 85 43 32
        e 0 95 3b 30 19
        e 960 85 3b 33 120
        e 0 95 43 37
        e 960 85 43 45 -47
        e 0 95 3c 29 19
        e 960 85 3c 36
        e 0 95 43 34 42
        e 960 85 43 23
        e 0 95 3c 2e -19
        e 960 85 3c 41 -120
        e 0 95 43 3b -26
        e 960 85 43 38
        e 0 95 3b 36
        e 960 85 3b 38 69
        e 0 95 43 29
        e 960 85 43 41 -97
        e 0 95 3b 1b
        e 960 85 3b 35 160
        e 0 95 43 39 39
        e 960 85 43 3f
        e 0 95 3c 2d 37
        e 960 85 3c 2e
        e 0 95 43 33 78
        e 960 85 43 30
        e 0 95 3c 26
        e 960 85 3c 34 -87
        e 0 95 43 34
        e 960 85 43 3a 55
        e 0 95 3e 3b
        e 960 85 3e 21 8
        e 0 95 43 3c -6
        e 960 85 43 2d
        e 0 95 3e 38
        e 960 85 3e 2f -39
        e 0 95 43 38
        e 960 85 43 3d 9
        e 0 95 40 26
        e 960 85 40 3d -102
        e 0 95 43 3e 52
        e 960 85 43 33
        e 0 95 40 3b 19
        e 960 85 40 34 -120
        e 0 95 43 3d -41
        e 960 85 43 41 -120
        e 0 95 40 43 12
        e 960 85 40 2b
        e 0 95 48 41
        e 960 85 48 3e -116
        e 0 95 40 2e
        e 960 85 40 3b -54
        e 0 95 43 42
        e 960 85 43 46 -206
        e 0 95 40 30
        e 960 85 40 32 -78
        e 0 95 48 40
        e 960 85 48 2a -55
        e 0 95 40 36
        e 960 85 40 3b -229
        e 0 95 43 29 22
        e 960 85 43 34 -120
        e 0 95 40 3a
        e 960 85 40 26 -112
        e 0 95 48 2c -14
        e 960 85 48 3e -120
        e 0 95 40 3b 33
        e 960 85 40 2f -120
        e 0 95 43 3e
        e 960 85 43 30 -125
        e 0 95 41 30 19
        e 960 85 41 2d -120
        e 0 95 48 36 22
        e 960 85 48 29 -120
        e 0 95 41 28
        e 960 85 41 2f -70
        e 0 95 43 17 22
        e 960 85 43 21
        e 0 95 41 25
        e 960 85 41 3d -114
        e 0 95 48 44
        e 960 85 48 32 -117
        e 0 95 41 2e
        e 960 85 41 2f -222
        e 0 95 43 38 -85
        e 960 85 43 37 -240
        e 0 95 41 2d
        e 960 85 41 44 -120
        e 0 95 4a 2c 28
        e 960 85 4a 38 -120
        e 0 95 45 38 16
        e 960 85 45 3d -240
        e 0 95 43 26
        e 960 85 43 30 -81
        e 0 95 4a 36
        e 960 85 4a 35 -167
        e 0 95 45 23
        e 960 85 45 26 -187
        e 0 95 43 2e -56
        e 960 85 43 30 -120
        e 0 95 4a 30
        e 960 85 4a 2a -147
        e 0 95 45 2e
        e 960 85 45 01 -65
        e 0 95 43 22
        e 960 85 43 31 -141
        e 0 95 47 28 67
        e 960 85 47 42 -120
        e 0 95 45 30
        e 960 85 45 3a -74
        e 0 95 43 2d
        e 960 85 43 2d -187
        e 0 95 48 42
        e 960 85 48 35 -199
        e 0 95 45 3a 15
        e 960 85 45 2a -240
        e 0 95 43 26
        e 960 85 43 37 -149
        e 0 95 4a 30 48
        e 960 85 4a 2b -120
        e 0 95 45 29
        e 960 85 45 0f 5
        e 0 95 43 20
        e 960 85 43 30 -151
        e 0 95 4c 3e
        e 960 85 4c 1b 8
        e 0 95 45 1b
        e 960 85 45 31
        e 0 95 43 1e
        e 960 85 43 31 -157
        e 0 95 4a 42 -74
        e 960 85 4a 2c -240
        e 0 95 47 2b 7
        e 960 85 47 1c
        e 0 95 43 27 41
        e 960 85 43 34 -120
        e 0 95 48 4c 17
        e 960 85 48 2a -120
        e 0 95 47 26 120
        e 960 85 47 27 -20
        e 0 95 43 01
        e 960 85 43 3e 302
        e 0 95 4c 2a
        e 960 85 4c 34 -62
        e 0 95 4a 32
        e 960 85 4a 46 -144
        e 0 95 43 31
        e 960 85 43 43 -51
        e 0 95 4d 1f
        e 960 85 4d 28 -84
        e 0 95 4c 35 34
        e 960 85 4c 40
        e 0 95 43 15 41
        e 960 85 43 23 120
        e 0 95 4f 23
        e 960 85 4f 3a -66
        e 0 95 4d 45
        e 960 85 4d 3b -134
        e 0 95 43 37
        e 960 85 43 28 -67
        e 0 95 4d 1a
        e 960 85 4d 34 -129
        e 0 95 4c 43 -33
        e 960 85 4c 40 -120
        e 0 95 43 29
        e 960 85 43 21 -108
        e 0 95 4c 3a
        e 960 85 4c 0b -9
        e 0 95 4a 3b
        e 960 85 4a 41 -191
        e 0 95 43 2a
        e 960 85 43 26 -107
        e 0 95 4a 39 34
        e 960 85 4a 2f -120
        e 0 95 48 42 25
        e 960 85 48 47 -120
        e 0 95 43 38 96
        e 960 85 43 24
        e 0 95 48 3a
        e 960 85 48 29 -189
        e 0 95 47 38 45
        e 960 85 47 55 -120
        e 0 95 43 28 23
        e 960 85 43 40 -120
        e 0 95 4d 33 -7
        e 960 85 4d 34 -120
        e 0 95 4c 23
        e 960 85 4c 57 -139
        e 0 95 43 34
        e 960 85 43 26 21
        e 0 95 4c 14
        e 960 85 4c 1b -83
        e 0 95 4a 37
        e 960 85 4a 49 -108
        e 0 95 43 0e
        e 960 85 43 22 -82
        e 0 95 4a 16
        e 960 85 4a 27 -149
        e 0 95 48 46 28
        e 960 85 48 50 -120
        e 0 95 41 33 -92
        e 0 95 43 22 -59
        e 960 85 41 2f -220
        e 0 85 43 01 -600
        e 0 95 48 25 20
        e 960 85 48 17
        e 0 95 47 32
        e 960 85 47 4e -204
        e 0 95 43 39
        e 960 85 43 4a 30
        e 0 95 4d 01
        e 960 85 4d 28 -202
        e 0 95 4c 38
        e 960 85 4c 4f -149
        e 0 95 43 40
        e 960 85 43 2a -163
        e 0 95 4c 2e
        e 960 85 4c 30 -114
        e 0 95 4a 32
        e 960 85 4a 54 -242
        e 0 95 43 2e
        e 960 85 43 2f -230
        e 0 95 4a 28
        e 960 85 4a 29 -197
        e 0 95 48 3c
        e 960 85 48 4c -238
        e 0 95 43 30 -18
        e 960 85 43 27 -120
        e 0 95 48 1e
        e 960 85 48 2e -211
        e 0 95 47 2c
        e 960 85 47 43 -246
        e 0 95 43 36
        e 960 85 43 33 -206
        e 0 95 40 19 -8
        e 960 85 40 3f -120
        e 0 95 43 2b
        e 960 85 43 33 -177
        e 0 95 41 39
        e 960 85 41 40 -199
        e 0 95 43 25 9
        e 960 85 43 35 -120
        e 0 95 40 2a
        e 960 85 40 47 -116
        e 0 95 43 2b
        e 960 85 43 38 -110
        e 0 95 45 39 32
        e 960 85 45 1c -120
        e 0 95 43 34
        e 960 85 43 36 -123
        e 0 95 47 4c
        e 960 85 47 42 -140
        e 0 95 43 33 19
        e 960 85 43 38 -120
        e 0 95 48 44
        e 960 85 48 3d -183
        e 0 95 43 35 14
        e 960 85 43 2e -120
        e 0 95 48 37
        e 960 85 48 39 -40
        e 0 95 43 2d
        e 960 85 43 30 -120
        e 0 95 48 32
        e 960 85 48 40 -205
        e 0 95 43 26
        e 960 85 43 40 -53
        e 0 95 48 1f 50
        e 960 85 48 39 -120
        e 0 95 43 32
        e 960 85 43 34 -53
        e 0 95 48 40
        e 960 85 48 1b -61
        e 0 95 43 29
        e 960 85 43 2b -199
        e 0 95 4a 35
        e 960 85 4a 31 -212
        e 0 95 43 26
        e 960 85 43 38 7
        e 0 95 48 2e
        e 960 85 48 3f -181
        e 0 95 43 30
        e 960 85 43 36 -109
        e 0 95 48 2b
        e 960 85 48 2c -202
        e 0 95 43 34
        e 960 85 43 33 -177
        e 0 95 48 2b -24
        e 960 85 48 2f -120
        e 0 95 43 32 14
        e 960 85 43 3b -120
        e 0 95 4a 42 -27
        e 960 85 4a 33 -120
        e 0 95 43 2c
        e 960 85 43 31 -68
        e 0 95 48 23 29
        e 960 85 48 3a -120
        e 0 95 43 27
        e 960 85 43 34 -87
        e 0 95 48 40 -4
        e 960 85 48 45 -240
        e 0 95 43 30
        e 960 85 43 3a -63
        e 0 95 48 45
        e 960 85 48 2a -125
        e 0 95 43 37
        e 960 85 43 3e -204
        e 0 95 4a 3d
        e 960 85 4a 2d -84
        e 0 95 43 2f 25
        e 960 85 43 36 -120
        e 0 95 48 2c
        e 960 85 48 37 -88
        e 0 95 43 26 43
        e 960 85 43 29
        e 0 95 48 2b
        e 960 85 48 39 -166
        e 0 95 43 25
        e 960 85 43 39 -24
        e 0 95 48 26
        e 960 85 48 48 -154
        e 0 95 43 2b
        e 5760 85 43 35 195
        E 599040 b0 7b 00
        CCINTERP 32
        CHASE_CC_TAKEOFFS 1
        GUID {61909359-1D55-4937-BE5C-2F37CAB15E33}
        IGNTEMPO 0 120 4 4
        SRCCOLOR 374
        VELLANE -1 100 0
        CFGEDITVIEW 757116.540372 0.004713 53 46 0 -1 0 0 0 0.5
        KEYSNAP 0
        TRACKSEL 0
        EVTFILTER 0 -1 -1 -1 -1 0 0 0 0 -1 -1 -1 -1 0 -1 0 -1 -1
        CFGEDIT 1 1 0 1 0 0 1 1 1 1 1 0.125 151 300 1183 989 0 0 0 0 0 0 0 1 0 0.5 0 0 1 64
      >
    >
  >
  <TRACK {6AB5F8AE-0BD3-4CEA-9E54-1D048394882D}
    NAME ""
    PEAKCOL 16576
    BEAT -1
    AUTOMODE 0
    VOLPAN 1 0 -1 -1 1
    MUTESOLO 0 0 0
    IPHASE 0
    PLAYOFFS 0 1
    ISBUS 0 0
    BUSCOMP 0 0 0 0 0
    SHOWINMIX 1 0.6667 0.5 1 0.5 0 -1 0
    SEL 0
    REC 1 4096 1 0 0 0 0 0
    VU 2
    TRACKHEIGHT 0 0 0 0 0 0
    INQ 0 0 0 0.5 100 0 0 100
    NCHAN 2
    FX 1
    TRACKID {6AB5F8AE-0BD3-4CEA-9E54-1D048394882D}
    PERF 0
    MIDIOUT -1
    MAINSEND 1 0
    <ITEM
      POSITION 0
      SNAPOFFS 0
      LENGTH 225.6
      LOOP 1
      ALLTAKES 0
      FADEIN 1 0 0 1 0 0 0
      FADEOUT 1 0 0 1 0 0 0
      MUTE 0 0
      SEL 0
      IGUID {37445B67-3165-463E-B02F-2956711B4CAA}
      IID 6
      NAME "untitled MIDI item"
      VOLPAN 1 0 1 -1
      SOFFS 0 0
      PLAYRATE 1 1 0 -1 0 0.0025
      CHANMODE 0
      GUID {D4903A73-CC39-492A-ABD7-8A0154D011AD}
      <SOURCE MIDI
        HASDATA 1 960 QN
        CCINTERP 32
        POOLEDEVTS {B8032948-1F52-468C-92F6-B5E29D01AB04}
        e 0 90 24 2d
        e 960 80 24 00
        e 0 90 2b 49
        e 960 80 2b 00
        e 0 90 32 49
        e 960 80 32 00
        e 0 90 37 49
        e 960 80 37 00
        E 0 b0 7b 00
        CCINTERP 32
        CHASE_CC_TAKEOFFS 1
        GUID {44632600-ED10-496B-A38C-CCB63877F7C6}
        IGNTEMPO 0 120 4 4
        SRCCOLOR 375
        VELLANE -1 100 0
        CFGEDITVIEW 0 0.178125 36 12 0 -1 0 0 0 0.5
        KEYSNAP 0
        TRACKSEL 0
        EVTFILTER 0 -1 -1 -1 -1 0 0 0 0 -1 -1 -1 -1 0 -1 0 -1 -1
        CFGEDIT 1 1 0 1 0 0 1 1 1 1 1 0.125 493 307 1525 996 0 0 0 0 0 0 0 1 0 0.5 0 0 1 64
      >
    >
  >
  <TRACK {23C4CA81-3E20-445C-B7A4-664590210C9C}
    NAME ""
    PEAKCOL 16576
    BEAT -1
    AUTOMODE 0
    VOLPAN 1 0 -1 -1 1
    MUTESOLO 0 0 0
    IPHASE 0
    PLAYOFFS 0 1
    ISBUS 0 0
    BUSCOMP 0 0 0 0 0
    SHOWINMIX 1 0.6667 0.5 1 0.5 0 -1 0
    SEL 0
    REC 0 0 1 0 0 0 0 0
    VU 2
    TRACKHEIGHT 0 0 0 0 0 0
    INQ 0 0 0 0.5 100 0 0 100
    NCHAN 2
    FX 1
    TRACKID {23C4CA81-3E20-445C-B7A4-664590210C9C}
    PERF 0
    MIDIOUT -1
    MAINSEND 1 0
    <ITEM
      POSITION 0
      SNAPOFFS 0
      LENGTH 79.22625
      LOOP 1
      ALLTAKES 0
      FADEIN 1 0 0 1 0 0 0
      FADEOUT 1 0 0 1 0 0 0
      MUTE 0 0
      SEL 0
      IGUID {490526E6-BC96-4B21-9C11-750970008C74}
      IID 1
      NAME "01-Originals - Felt Piano-Recorded MIDI"
      VOLPAN 1 0 1 -1
      SOFFS 0 0
      PLAYRATE 1 1 0 -1 0 0.0025
      CHANMODE 0
      GUID {C4095E7D-5B6A-4EF0-8FE2-1BE282514139}
      RECPASS 1
      <SOURCE MIDI
        HASDATA 1 960 QN
        CCINTERP 32
        POOLEDEVTS {6E327CB2-9981-4C8A-AA99-7F1B2347B46E}
        E 3085 95 47 40
        E 621 95 49 22
        E 155 85 47 27
        E 517 95 4b 22
        E 78 85 49 28
        E 692 95 4c 24
        E 38 85 4b 2e
        E 650 95 4e 30
        E 50 85 4c 34
        E 1791 95 4b 2a
        E 78 85 4e 22
        E 1792 95 47 3a
        E 17 85 4b 30
        E 1194 95 49 29
        E 95 85 47 2b
        E 1901 95 44 25
        E 86 85 49 35
        E 1878 95 42 29
        E 95 85 44 26
        E 1140 95 40 2f
        E 90 85 42 28
        E 1998 95 3d 26
        E 445 85 40 22
        E 1534 95 52 26
        E 1291 95 53 36
        E 52 85 52 2a
        E 3598 95 57 2c
        E 101 85 53 3a
        E 519 85 3d 31
        E 792 95 5c 32
        E 10 85 57 37
        E 2040 95 55 3b
        E 164 85 5c 33
        E 1687 95 53 43
        E 6 85 55 36
        E 1197 95 52 38
        E 40 85 53 39
        E 1974 95 50 2b
        E 91 85 52 29
        E 1920 95 4c 3b
        E 6 85 50 38
        E 1349 95 49 15
        E 105 95 4b 29
        E 41 85 4c 29
        E 3236 95 4e 22
        E 11 85 49 10
        E 82 85 4b 1d
        E 3664 95 4c 29
        E 82 85 4e 30
        E 4545 85 4c 2b
        E 1178 95 36 1e
        E 1594 95 3f 2e
        E 51 85 36 35
        E 1263 95 44 31
        E 268 85 3f 29
        E 1127 95 46 33
        E 90 85 44 29
        E 1407 95 47 46
        E 65 85 46 27
        E 3745 95 4b 2a
        E 79 85 47 3e
        E 1278 95 4c 29
        E 95 85 4b 32
        E 2528 95 50 2f
        E 2 85 4c 42
        E 2810 95 4e 33
        E 72 85 50 28
        E 3737 95 50 30
        E 43 85 4e 2c
        E 711 95 4e 28
        E 92 85 50 2b
        E 635 95 4c 42
        E 60 85 4e 2e
        E 3710 95 44 27
        E 1088 85 4c 2b
        E 316 95 46 36
        E 103 85 44 34
        E 3764 95 4b 23
        E 237 85 46 25
        E 1141 95 49 2d
        E 119 85 4b 2c
        E 3469 95 3d 20
        E 192 85 49 2e
        E 2599 95 3b 2d
        E 117 85 3d 36
        E 5829 85 3b 30
        E 2165 95 38 17
        E 980 95 42 15
        E 43 85 38 29
        E 966 95 4b 2b
        E 1046 95 4e 16
        E 100 85 4b 22
        E 29 85 42 0c
        E 2163 95 50 33
        E 52 85 4e 2c
        E 2034 95 4e 2f
        E 81 85 50 29
        E 1106 95 52 48
        E 22 85 4e 39
        E 3429 95 55 35
        E 56 85 52 2c
        E 993 95 52 34
        E 60 85 55 25
        E 1002 95 50 30
        E 14 85 52 44
        E 1022 95 42 22
        E 5 95 4e 2c
        E 28 95 38 27
        E 44 85 50 30
        E 1571 95 4b 25
        E 32 85 4e 31
        E 251 85 42 20
        E 27 85 38 23
        E 2393 95 3f 14
        E 10 95 49 29
        E 28 95 36 1c
        E 119 85 4b 22
        E 644 85 36 20
        E 84 85 3f 2c
        E 1120 95 42 13
        E 8 95 46 29
        E 53 95 38 14
        E 73 85 49 39
        E 649 85 42 1e
        E 48 85 38 21
        E 1222 95 3f 0f
        E 16 85 46 31
        E 5 95 44 20
        E 36 95 36 0e
        E 2829 85 44 2a
        E 47 85 3f 1d
        E 80 85 36 15
        E 3740 b0 7b 00
        CCINTERP 32
        CHASE_CC_TAKEOFFS 1
        GUID {509B4B58-7309-42DE-84F9-309374C89A93}
        IGNTEMPO 0 120 4 4
        SRCCOLOR 364
      >
    >
  >
  <TRACK {396188B5-D39C-4E08-BB8B-A07D52D192AA}
    NAME ""
    PEAKCOL 16576
    BEAT -1
    AUTOMODE 0
    VOLPAN 1 0 -1 -1 1
    MUTESOLO 0 0 0
    IPHASE 0
    PLAYOFFS 0 1
    ISBUS 0 0
    BUSCOMP 0 0 0 0 0
    SHOWINMIX 1 0.6667 0.5 1 0.5 0 -1 0
    SEL 0
    REC 0 0 1 0 0 0 0 0
    VU 2
    TRACKHEIGHT 0 0 0 0 0 0
    INQ 0 0 0 0.5 100 0 0 100
    NCHAN 2
    FX 1
    TRACKID {396188B5-D39C-4E08-BB8B-A07D52D192AA}
    PERF 0
    MIDIOUT -1
    MAINSEND 1 0
    <ITEM
      POSITION 1.2
      SNAPOFFS 0
      LENGTH 1022.2275
      LOOP 1
      ALLTAKES 0
      FADEIN 1 0 0 1 0 0 0
      FADEOUT 1 0 0 1 0 0 0
      MUTE 0 0
      SEL 0
      IGUID {963CC961-98FD-4547-8602-5F24FF228E63}
      IID 2
      NAME "01-Originals - Felt Piano-Recorded MIDI"
      VOLPAN 1 0 1 -1
      SOFFS 0 0
      PLAYRATE 1 1 0 -1 0 0.0025
      CHANMODE 0
      GUID {2C7496F8-CCF2-4CAF-82F7-A8623ED8E77A}
      RECPASS 2
      <SOURCE MIDI
        HASDATA 1 960 QN
        CCINTERP 32
        POOLEDEVTS {96EAE001-DB73-4D3E-853A-16C6AB55F613}
        E 3473 95 3c 35
        E 454 85 3c 1b
        E 538 95 3c 33
        E 694 85 3c 01
        E 296 95 3c 21
        E 628 85 3c 19
        E 375 95 3c 30
        E 721 85 3c 01
        E 276 95 3c 29
        E 674 85 3c 0e
        E 327 95 3c 2c
        E 722 85 3c 20
        E 250 95 3c 43
        E 497 95 40 3d
        E 73 85 3c 30
        E 414 95 3c 35
        E 89 85 40 20
        E 356 85 3c 3d
        E 471 95 3c 27
        E 655 85 3c 23
        E 355 95 3c 32
        E 613 85 3c 22
        E 343 95 3c 2a
        E 523 85 3c 2c
        E 447 95 3c 32
        E 850 85 3c 01
        E 156 95 3c 26
        E 502 85 3c 22
        E 463 95 3c 36
        E 540 85 3c 26
        E 404 95 3c 42
        E 523 95 37 2f
        E 202 85 3c 26
        E 323 85 37 3b
        E 34 95 40 36
        E 569 95 3c 36
        E 84 85 40 2e
        E 318 85 3c 41
        E 128 95 3c 4c
        E 574 85 3c 26
        E 409 95 3c 30
        E 693 85 3c 25
        E 310 95 3c 31
        E 660 85 3c 21
        E 307 95 3c 20
        E 641 85 3c 36
        E 406 95 3c 33
        E 557 85 3c 3d
        E 414 95 3c 3d
        E 622 85 3c 32
        E 394 95 3c 47
        E 508 95 37 38
        E 138 85 3c 23
        E 369 95 40 48
        E 119 85 37 29
        E 416 95 3c 3d
        E 139 85 40 2a
        E 371 95 37 42
        E 70 85 3c 36
        E 419 85 37 3c
        E 561 95 37 3c
        E 564 85 37 30
        E 430 95 34 44
        E 442 85 34 36
        E 552 95 34 3d
        E 481 85 34 30
        E 368 95 37 3d
        E 470 95 3c 37
        E 190 85 37 21
        E 301 85 3c 1d
        E 34 95 40 2d
        E 507 95 3f 33
        E 148 85 40 2e
        E 355 95 3c 2f
        E 28 85 3f 25
        E 1484 85 3c 09
        E 591 95 47 35
        E 1064 95 45 3d
        E 103 85 47 40
        E 974 95 40 3d
        E 18 95 43 46
        E 7 85 45 37
        E 1093 85 43 40
        E 12 85 40 28
        E 6 95 45 42
        E 986 95 40 2e
        E 50 95 43 3e
        E 53 85 45 32
        E 977 95 45 36
        E 96 85 40 24
        E 3 85 43 34
        E 926 95 40 37
        E 18 95 43 49
        E 37 85 45 4c
        E 1042 95 45 36
        E 28 85 40 23
        E 77 85 43 33
        E 963 95 40 2a
        E 72 95 43 4a
        E 17 85 45 53
        E 1025 95 45 3d
        E 93 85 40 37
        E 37 85 43 2f
        E 926 95 3e 33
        E 3 95 41 36
        E 17 85 45 49
        E 939 95 45 47
        E 89 85 41 21
        E 34 85 3e 29
        E 974 85 45 4c
        E 4 95 41 3d
        E 37 95 3e 3f
        E 1057 95 45 41
        E 100 85 41 24
        E 22 85 3e 27
        E 983 95 3e 39
        E 26 95 41 27
        E 13 85 45 4a
        E 1066 95 45 2f
        E 44 85 41 29
        E 64 85 3e 2e
        E 934 95 3e 3d
        E 45 95 41 24
        E 4 85 45 3e
        E 1079 95 45 4c
        E 58 85 3e 21
        E 16 85 41 2f
        E 933 95 40 2a
        E 18 95 3c 28
        E 75 85 45 3a
        E 973 95 45 3a
        E 70 85 3c 28
        E 29 85 40 29
        E 894 95 3c 30
        E 14 95 40 1d
        E 137 85 45 37
        E 927 95 45 38
        E 90 85 3c 2e
        E 4 85 40 2f
        E 942 95 40 30
        E 3 95 3c 2a
        E 48 85 45 4a
        E 997 95 45 41
        E 90 85 40 34
        E 23 85 3c 3b
        E 947 95 3c 2c
        E 29 95 40 29
        E 45 85 45 45
        E 941 95 45 36
        E 96 85 40 3d
        E 22 85 3c 28
        E 903 95 3e 27
        E 7 95 3b 28
        E 64 85 45 4b
        E 3497 85 3e 21
        E 19 85 3b 26
        E 614 95 3b 40
        E 0 95 3e 48
        E 332 85 3e 37
        E 34 85 3b 27
        E 601 95 3c 3e
        E 1 95 40 42
        E 434 85 3c 33
        E 22 85 40 2b
        E 564 95 3b 3b
        E 4 95 3e 36
        E 422 85 3e 36
        E 5 85 3b 33
        E 653 95 3c 42
        E 9 95 39 45
        E 1215 85 3c 41
        E 5 85 39 2e
        E 265 95 3c 46
        E 34 95 39 42
        E 1472 85 39 32
        E 15 85 3c 2c
        E 179 95 3c 47
        E 38 95 39 4a
        E 1482 85 3c 27
        E 27 85 39 2a
        E 482 95 3c 4f
        E 6 95 39 45
        E 296 85 3c 3f
        E 117 85 39 2f
        E 597 95 3b 4a
        E 14 95 3e 4a
        E 305 85 3e 31
        E 10 85 3b 34
        E 679 95 3c 3c
        E 12 95 39 43
        E 292 85 39 47
        E 8 85 3c 32
        E 739 95 37 43
        E 9 95 3b 3a
        E 991 85 3b 22
        E 4 85 37 1c
        E 513 95 3b 48
        E 16 95 37 44
        E 802 85 3b 3d
        E 68 85 37 34
        E 469 95 39 44
        e 5 95 35 40
        E 1833 85 39 24
        e 96 85 35 26
        E 367 95 39 43
        E 11 95 35 3f
        E 346 85 39 24
        E 106 85 35 1e
        E 505 95 35 3a
        E 0 95 39 3d
        E 362 85 39 31
        E 29 85 35 2f
        E 601 95 39 3e
        E 23 95 35 46
        E 242 85 39 39
        E 29 85 35 3e
        E 739 95 3b 42
        E 16 95 37 3f
        E 905 85 3b 1b
        E 70 85 37 1d
        E 426 95 3b 3e
        E 33 95 37 38
        E 655 85 3b 35
        E 114 85 37 32
        E 575 95 39 30
        E 9 95 35 40
        E 2063 95 30 45
        E 225 85 39 22
        E 208 85 35 01
        E 437 95 29 39
        E 142 85 30 1c
        E 845 95 2d 37
        E 151 85 29 2d
        E 867 95 39 28
        E 17 85 2d 36
        E 10 95 35 38
        E 965 85 39 21
        E 9 85 35 20
        E 435 95 39 3e
        E 34 95 35 39
        E 701 85 39 32
        E 43 85 35 41
        E 778 95 37 50
        E 19 95 34 3c
        E 2033 95 30 42
        E 196 85 37 29
        E 91 85 34 2e
        E 707 95 29 2f
        E 133 85 30 1b
        E 846 95 2d 33
        E 113 85 29 2b
        E 823 85 2d 2c
        E 98 95 37 3e
        E 12 95 34 3d
        E 987 85 37 21
        E 49 85 34 24
        E 468 95 34 44
        E 7 95 37 3c
        E 753 85 37 2a
        E 98 85 34 2d
        E 668 95 35 42
        E 14 95 32 40
        E 4532 85 35 20
        E 48 85 32 27
        E 470 95 35 42
        E 47 95 32 3e
        E 2292 95 37 48
        E 121 85 35 1f
        E 40 85 32 2b
        E 1500 95 34 42
        E 72 85 37 45
        E 3189 95 37 24
        E 39 95 30 3a
        E 16 85 34 28
        E 7290 95 29 32
        E 230 85 30 18
        E 177 85 37 28
        E 845 95 43 31
        E 438 85 29 28
        E 738 95 41 3a
        E 160 85 43 20
        E 1076 95 34 2d
        E 13 95 30 27
        E 62 95 2d 29
        E 10 95 40 47
        E 80 85 41 43
        E 3223 95 3e 32
        E 113 85 40 33
        E 430 95 40 32
        E 121 85 3e 2e
        E 494 95 3c 3a
        E 105 85 40 30
        E 2280 95 3b 3e
        E 148 85 3c 2c
        E 1166 95 39 2b
        E 100 85 3b 2f
        E 5 85 34 2d
        E 13 85 2d 29
        E 6 85 30 37
        E 1117 95 2f 1e
        E 14 95 3c 2e
        E 16 95 32 26
        E 34 95 2b 23
        E 17 85 39 32
        E 3078 95 3e 32
        E 99 85 3c 1a
        E 1171 95 37 2b
        E 108 85 3e 37
        E 3374 95 39 2d
        E 112 85 37 22
        E 481 95 3b 38
        E 109 85 39 29
        E 63 85 2f 23
        E 13 85 32 31
        E 47 85 2b 21
        E 956 95 34 38
        E 23 95 30 29
        E 90 95 3c 2d
        E 13 85 3b 36
        E 3468 95 3b 3d
        E 192 85 3c 29
        E 366 95 3c 32
        E 151 85 3b 23
        E 562 95 3e 48
        E 130 85 3c 1b
        E 2760 95 3c 42
        E 2 85 3e 32
        E 541 95 3e 1c
        E 134 85 3c 22
        E 528 95 40 43
        E 99 85 3e 22
        E 2434 95 41 23
        E 92 85 40 7b
        E 1844 95 40 44
        E 53 85 41 41
        E 561 95 3e 41
        E 235 85 40 10
        E 3105 95 3c 40
        E 39 85 3e 29
        E 621 85 30 21
        E 15 85 34 1c
        E 17 85 3c 22
        E 550 95 3c 35
        E 26 95 2f 25
        E 0 95 40 28
        E 0 95 43 36
        E 0 95 2b 28
        E 2 95 34 29
        E 37 95 32 23
        E 157 85 32 27
        E 3936 85 43 0a
        E 599 85 3c 01
        E 184 85 40 01
        E 27 95 45 3e
        E 1236 95 43 40
        E 147 85 45 40
        E 1877 95 41 26
        E 103 85 43 38
        E 560 95 40 32
        E 125 85 41 3c
        E 2412 85 2b 01
        E 573 85 34 01
        E 193 85 2f 01
        E 2143 85 40 46
        E 20 95 3e 37
        E 1142 95 41 44
        E 59 85 3e 31
        E 1798 95 40 29
        E 219 85 41 20
        E 499 95 3e 30
        E 56 85 40 31
        E 2614 95 3c 40
        E 159 85 3e 33
        E 2457 95 3b 39
        E 132 85 3c 35
        E 2386 95 37 37
        E 127 85 3b 28
        E 3667 95 39 31
        E 125 85 37 31
        E 6010 95 30 2e
        E 196 85 39 2c
        E 1029 95 39 2b
        E 1006 85 30 19
        E 236 95 35 21
        E 200 85 39 27
        E 1278 95 34 3e
        E 31 95 3b 35
        E 8 85 35 21
        E 5317 95 3c 2c
        E 68 85 3b 2c
        E 1227 95 3b 3c
        E 0 95 35 33
        E 33 85 34 3e
        E 85 85 3c 32
        E 2893 95 3e 40
        E 111 85 3b 38
        E 5183 95 43 43
        E 170 85 3e 2d
        E 1107 95 47 48
        E 91 85 43 29
        E 1434 95 45 3f
        E 156 85 47 3d
        E 265 85 35 01
        E 1087 95 30 0e
        E 22 95 37 1a
        E 122 95 43 44
        E 120 85 45 43
        E 3078 95 41 30
        E 135 85 43 43
        E 2160 85 37 19
        E 34 85 30 40
        E 774 95 2f 2a
        E 10 95 35 24
        E 49 95 40 3d
        E 64 85 41 40
        E 2945 95 3e 40
        E 159 85 40 2f
        E 1417 95 3c 3c
        E 151 85 3e 3a
        E 200 85 2f 26
        E 1 85 35 09
        E 1379 95 34 25
        E 14 95 32 1d
        E 59 95 39 34
        E 76 85 3c 2d
        E 3109 85 32 0a
        E 252 95 30 1c
        E 1573 95 37 2d
        E 277 85 39 1e
        E 1476 95 39 2a
        E 4 95 2f 29
        E 136 85 34 1c
        E 64 85 30 21
        E 229 85 37 29
        E 2776 95 2d 21
        E 75 85 2f 2c
        E 6335 95 24 31
        E 68 85 39 21
        E 210 85 2d 29
        E 3466 95 34 28
        E 3506 95 30 39
        E 15 95 29 36
        E 16 85 34 44
        E 50 85 24 36
        E 6285 95 24 33
        E 108 85 29 41
        E 3072 95 34 2b
        E 169 85 30 24
        E 2955 95 30 3a
        E 20 95 2b 41
        E 76 85 34 3d
        E 22 85 24 3d
        E 3358 95 2d 2e
        E 77 85 2b 38
        E 3272 95 32 43
        E 95 85 30 4b
        E 3143 85 32 23
        E 71 95 35 3f
        E 3325 85 35 2f
        E 20 85 2d 36
        E 132 95 2b 34
        E 15 95 37 47
        E 4446 95 3c 47
        E 29 85 37 4c
        E 1166 95 3b 41
        E 63 85 3c 2d
        E 278 95 39 4e
        E 60 85 3b 2b
        E 4416 85 39 21
        E 6 95 3b 47
        E 1135 85 3b 2a
        E 437 95 3b 41
        E 4217 95 3c 45
        E 4 85 3b 46
        E 1232 95 3b 37
        E 83 85 3c 2d
        E 297 95 39 25
        E 76 85 3b 3e
        E 4225 95 40 32
        E 113 85 39 3c
        E 1291 85 40 27
        E 201 95 3e 45
        E 4391 95 40 33
        E 124 85 3e 22
        E 687 95 41 3f
        E 187 85 40 2a
        E 553 95 43 34
        E 3 95 3e 3d
        E 102 85 41 1c
        E 3778 95 48 20
        E 27 85 43 2c
        E 109 85 3e 4f
        E 1397 95 47 49
        E 43 85 48 45
        E 3095 95 45 4e
        E 91 85 47 50
        E 1425 95 43 3f
        E 176 85 45 31
        E 1462 95 41 44
        E 37 85 43 3f
        E 5456 95 40 2c
        E 108 85 41 31
        E 2836 95 3e 48
        E 25 85 40 43
        E 1685 85 2b 21
        E 1430 95 30 2f
        E 30 95 39 33
        E 90 85 3e 33
        E 3168 85 30 1e
        E 83 85 39 20
        E 444 95 30 40
        E 28 95 39 39
        E 878 85 30 24
        E 114 85 39 1b
        E 375 95 32 52
        E 20 95 3b 42
        E 3187 85 3b 01
        E 152 85 32 25
        E 297 95 32 3f
        E 52 95 3b 43
        E 934 85 32 25
        E 36 85 3b 23
        E 325 95 3c 47
        E 0 95 34 41
        E 1982 95 3e 3f
        E 128 85 3c 28
        E 561 95 3c 38
        E 147 85 3e 37
        E 1254 95 39 3b
        E 73 85 3c 32
        E 1507 95 32 59
        E 45 95 3e 3f
        E 14 85 34 48
        E 34 85 39 48
        E 4132 95 43 2c
        E 21 85 3e 44
        E 1555 95 41 4c
        E 117 85 43 3c
        E 3002 95 40 43
        E 80 85 41 3b
        E 2140 95 3e 3d
        E 670 85 40 01
        E 56 95 3c 46
        E 46 95 35 29
        E 1 85 3e 45
        E 109 85 32 3a
        E 2570 95 3e 42
        E 98 85 3c 46
        E 2362 95 3c 3d
        E 43 85 3e 4b
        E 929 95 32 3a
        E 17 95 39 33
        E 95 85 35 41
        E 44 85 3c 41
        E 2867 95 34 41
        E 102 85 32 33
        E 3158 95 3c 43
        E 33 95 30 48
        E 51 85 39 3c
        E 2 85 34 44
        E 6509 95 2b 21
        E 4358 95 43 43
        E 4369 95 29 46
        E 23 85 2b 46
        E 2933 85 43 2b
        E 1125 95 45 4c
        E 4117 95 2b 48
        E 95 85 29 48
        E 1977 85 45 53
        E 1938 95 4a 42
        E 2620 95 48 40
        E 74 85 4a 46
        E 191 85 3c 29
        E 692 95 47 49
        E 106 85 48 49
        E 3660 85 47 3b
        E 15 95 45 3d
        E 986 95 43 3f
        E 29 85 45 3d
        E 1742 95 41 31
        E 162 85 43 29
        E 863 85 2b 2c
        E 139 85 30 21
        E 788 95 32 2d
        E 61 95 3e 1d
        E 103 85 41 3b
        E 1837 95 3b 3e
        E 63 85 3e 33
        E 2692 95 39 36
        E 35 95 34 36
        E 126 85 32 3b
        E 30 85 3b 26
        E 2424 95 37 47
        E 20 85 39 4f
        E 3008 95 2b 4f
        E 23 95 3b 4d
        E 61 85 34 43
        E 47 85 37 36
        E 2009 95 3c 45
        E 141 85 3b 37
        E 1713 95 32 34
        E 23 95 35 2c
        E 35 85 2b 27
        E 38 85 3c 3e
        E 1076 95 30 26
        E 47 95 37 3f
        E 76 85 32 26
        E 30 85 35 2b
        E 3743 95 3c 39
        E 163 85 37 29
        E 514 95 3e 37
        E 110 85 30 2a
        E 28 85 3c 25
        E 529 95 32 40
        E 15 95 3b 3e
        E 3 95 29 3d
        E 62 85 3e 3b
        E 1387 85 29 38
        E 565 95 2b 2a
        E 2018 85 2b 3e
        E 13 95 39 47
        E 49 85 3b 4a
        E 1265 95 28 3a
        E 26 95 37 39
        E 171 85 39 2c
        E 1428 85 28 21
        E 564 95 29 42
        E 1810 95 35 34
        E 82 85 37 43
        E 535 95 37 43
        E 322 85 35 01
        E 6 85 32 1d
        E 81 85 29 0c
        E 297 95 30 32
        E 22 95 2d 1f
        E 44 95 39 38
        E 73 85 37 34
        E 3450 95 3b 10
        E 76 85 39 37
        E 4018 95 3c 37
        E 42 85 3b 33
        E 8882 85 3c 18
        E 141 85 2d 23
        E 8 85 30 01
        E 708 95 45 46
        E 3665 85 45 2d
        E 598 95 45 40
        E 1338 85 45 16
        E 705 95 45 34
        E 1107 85 45 13
        E 21 95 48 47
        E 1046 95 45 36
        E 41 85 48 42
        E 1254 85 45 0e
        E 644 95 45 34
        E 1241 85 45 20
        E 703 95 45 31
        E 1122 85 45 19
        E 592 95 45 32
        E 694 95 48 36
        E 73 85 45 24
        E 661 95 45 3c
        E 106 85 48 40
        E 544 85 45 2b
        E 699 95 45 40
        E 675 85 45 23
        E 626 95 45 3d
        E 658 85 45 2d
        E 603 95 45 32
        E 669 95 48 55
        E 89 85 45 37
        E 612 95 45 33
        E 101 85 48 36
        E 541 95 43 30
        E 6 85 45 2f
        E 610 95 45 32
        E 125 85 43 27
        E 391 95 48 3f
        E 53 85 45 29
        E 568 95 45 22
        E 128 85 48 31
        E 558 95 43 38
        E 20 85 45 33
        E 531 95 45 2b
        E 158 85 43 26
        E 570 95 4c 46
        E 6 85 45 33
        E 615 95 4a 45
        E 414 85 4c 21
        E 421 85 4a 20
        E 393 95 4a 33
        E 755 85 4a 2a
        E 503 95 4a 30
        E 654 95 48 38
        E 94 85 4a 2e
        E 522 95 47 2d
        E 119 85 48 2d
        E 457 95 45 31
        E 134 85 47 1f
        E 504 95 4a 3b
        E 62 85 45 25
        E 912 85 4a 2f
        E 291 95 4a 3d
        E 784 85 4a 29
        E 514 95 4a 30
        E 680 95 48 39
        E 104 85 4a 34
        E 485 95 47 2c
        E 131 85 48 2d
        E 463 95 45 30
        E 69 85 47 28
        E 672 95 43 4c
        E 104 85 45 32
        E 661 85 43 23
        E 528 95 43 3f
        E 647 95 41 2b
        E 107 85 43 27
        E 617 95 40 45
        E 91 85 41 2e
        E 684 85 40 0a
        E 610 95 40 43
        E 877 85 40 25
        E 566 95 3c 28
        E 6 95 40 1f
        E 798 85 3c 25
        E 101 85 40 09
        E 397 95 3e 32
        E 1 95 41 36
        E 775 85 3e 1b
        E 167 85 41 02
        E 397 95 40 30
        E 26 95 3c 35
        E 711 85 3c 1f
        E 146 85 40 16
        E 507 95 3e 2a
        E 26 95 3b 2b
        E 556 85 3e 18
        E 75 85 3b 22
        E 665 95 3b 3d
        E 9 95 3e 28
        E 289 85 3e 3f
        E 50 85 3b 36
        E 922 95 3c 38
        E 12 95 40 42
        E 398 85 40 32
        E 62 85 3c 2d
        E 894 95 3e 3e
        E 6 95 3b 39
        E 478 85 3e 33
        E 9 85 3b 31
        E 808 95 39 3a
        E 7 95 3c 36
        E 723 85 39 2d
        E 16 85 3c 2c
        E 563 95 3c 3d
        E 4 95 39 3f
        E 2099 95 35 3e
        E 70 85 39 2c
        E 72 85 3c 32
        E 585 95 39 3b
        E 2 95 3c 3f
        E 105 85 35 35
        E 1254 95 32 38
        E 202 85 39 24
        E 11 85 3c 3c
        E 494 95 3c 38
        E 5 95 39 36
        E 187 85 32 1d
        E 428 95 34 2a
        E 143 85 39 23
        E 55 85 3c 2b
        E 574 95 3c 3b
        E 10 95 39 40
        E 64 85 34 2a
        E 624 95 30 3d
        E 74 85 39 2d
        E 37 85 3c 2c
        E 581 95 3c 2b
        E 23 95 39 2f
        E 145 85 30 2d
        E 599 95 32 40
        E 55 85 39 2b
        E 31 85 3c 38
        E 588 95 3c 35
        E 21 95 39 2f
        E 110 85 32 42
        E 579 95 2b 58
        E 192 85 39 31
        E 29 85 3c 35
        E 526 95 3c 39
        E 17 95 39 38
        E 36 85 2b 44
        E 686 95 30 3d
        E 165 85 39 29
        E 48 85 3c 34
        E 536 95 3c 3b
        E 20 95 39 39
        E 87 85 30 39
        E 655 95 2d 4a
        E 111 85 39 28
        E 59 85 3c 30
        E 505 85 2d 46
        E 26 95 3c 32
        E 5 95 39 40
        E 709 95 32 3c
        E 153 85 39 30
        E 35 85 3c 3a
        E 504 95 3c 49
        E 2 95 39 48
        E 50 85 32 4b
        E 716 95 30 43
        E 172 85 39 29
        E 31 85 3c 2f
        E 496 85 30 3b
        E 35 95 39 3d
        E 2 95 3c 39
        E 730 95 34 45
        E 100 85 39 29
        E 44 85 3c 38
        E 562 95 3c 43
        E 11 95 39 40
        E 67 85 34 43
        E 697 95 37 31
        E 44 85 39 2e
        E 42 85 3c 38
        E 572 95 3c 41
        E 8 95 39 42
        E 70 85 37 4b
        E 627 95 34 45
        E 130 85 39 32
        E 15 85 3c 36
        E 595 95 3c 46
        E 19 95 39 36
        E 30 85 34 2f
        E 751 95 34 22
        E 75 95 32 28
        E 66 85 39 2a
        E 49 85 32 33
        E 5 85 3c 2d
        E 587 95 3c 45
        E 9 95 39 43
        E 80 85 34 42
        E 594 95 32 3b
        E 121 85 39 2e
        E 47 85 3c 33
        E 624 95 3c 42
        E 17 95 39 40
        E 100 85 32 2b
        E 533 95 32 2c
        E 26 85 39 25
        E 50 85 3c 2d
        E 709 95 3c 47
        E 11 95 39 45
        E 124 85 32 31
        E 642 95 30 38
        E 111 85 39 30
        E 36 85 3c 33
        E 535 95 3c 41
        E 18 95 39 40
        E 172 85 30 2f
        E 604 95 2d 47
        E 117 85 39 31
        E 33 85 3c 34
        E 534 95 3c 3c
        E 8 95 39 38
        E 121 85 2d 3d
        E 623 95 2b 43
        E 93 85 39 33
        E 30 85 3c 34
        E 607 95 3c 44
        E 16 95 39 42
        E 88 85 2b 36
        E 680 95 2d 45
        E 164 85 39 2c
        E 28 85 3c 2b
        E 1558 85 2d 31
        E 625 95 2d 69
        E 354 95 3c 42
        E 12 85 2d 37
        E 252 95 40 47
        E 159 85 3c 38
        E 1430 95 3e 41
        E 94 85 40 31
        E 2416 95 48 45
        E 11 85 3e 24
        E 234 85 48 48
        E 485 95 48 50
        E 2072 85 48 0c
        E 1240 95 4d 33
        E 1481 95 4c 45
        E 40 85 4d 2c
        E 2269 85 4c 24
        E 6 95 54 33
        E 287 85 54 31
        E 430 95 54 44
        E 1529 95 51 40
        E 131 85 54 24
        E 1418 95 4f 4a
        E 121 85 51 36
        E 1351 95 4d 41
        E 83 85 4f 45
        E 1386 95 4c 42
        E 140 85 4d 34
        E 1477 95 4a 49
        E 114 85 4c 2e
        E 3059 85 4a 3d
        E 497 95 35 42
        E 436 85 35 3a
        E 309 95 3c 41
        E 370 85 3c 28
        E 333 95 40 3f
        E 277 85 40 2a
        E 507 95 41 48
        E 11 95 32 3d
        E 14 95 34 3c
        E 267 85 34 43
        E 1132 95 40 3c
        E 149 85 41 3a
        E 304 85 32 1f
        E 417 95 3e 30
        E 99 85 40 2e
        E 525 95 34 34
        E 38 95 3c 3b
        E 11 85 3e 46
        E 1487 95 3b 42
        E 162 85 3c 39
        E 59 85 34 25
        E 1302 95 32 3c
        E 61 95 37 3e
        E 93 85 3b 27
        E 260 85 32 2c
        E 323 85 37 22
        E 53 95 32 45
        E 40 95 39 43
        E 308 85 32 34
        E 3 85 39 2f
        E 331 95 32 47
        E 41 95 3b 49
        E 300 85 3b 3a
        E 18 85 32 35
        E 387 95 3c 33
        E 3 95 32 46
        E 319 85 32 40
        E 36 85 3c 3c
        E 379 95 32 3a
        E 17 95 3c 49
        E 1402 85 3c 27
        E 161 95 3e 47
        E 13 95 3c 18
        E 88 85 3c 35
        E 187 85 32 33
        E 323 85 3e 52
        E 1437 95 30 45
        E 14 95 40 4a
        E 1516 95 43 4c
        E 125 85 40 34
        E 1395 95 35 47
        E 28 95 41 46
        E 96 85 43 40
        E 2 85 30 41
        E 1367 95 37 41
        E 97 85 35 39
        E 1061 85 37 32
        E 300 95 37 40
        E 25 95 43 48
        E 144 85 41 0d
        E 3612 85 37 24
        E 160 85 43 09
        E 740 95 34 2d
        E 10 95 39 2c
        E 77 95 45 3c
        E 3085 85 39 2e
        E 23 85 45 2a
        E 10 85 34 2e
        E 742 95 45 31
        E 16 95 39 3e
        E 7 95 34 33
        E 747 85 39 2b
        E 13 85 34 28
        E 193 85 45 20
        E 480 95 40 36
        E 3 95 39 3c
        E 2971 85 40 53
        E 11 95 3e 46
        E 1540 95 3c 46
        E 161 85 3e 28
        E 8 85 39 23
        E 607 85 3c 01
        E 815 95 39 1d
        E 18 95 34 21
        E 11 95 3c 21
        E 1231 85 39 40
        E 72 85 3c 26
        E 7 85 34 23
        E 250 95 37 40
        E 5 95 34 32
        E 48 95 3c 44
        E 1099 85 34 2c
        E 2 85 37 2e
        E 131 85 3c 29
        E 318 95 34 2e
        E 40 95 39 47
        E 11 95 3c 43
        E 1346 85 3c 25
        E 38 85 34 31
        E 9 85 39 1c
        E 360 95 39 2f
        E 1 95 35 32
        E 9 95 3c 42
        E 1298 85 39 23
        E 12 85 35 22
        E 105 85 3c 29
        E 244 95 39 33
        E 3 95 35 39
        E 14 95 3e 46
        E 3471 85 3e 28
        E 22 95 40 48
        E 822 95 3e 42
        E 108 85 40 33
        E 291 85 39 24
        E 178 85 35 29
        E 188 95 3c 3a
        E 211 85 3e 24
        E 1339 85 3c 22
        E 618 95 37 3e
        E 6 95 3b 41
        E 2 95 34 3e
        E 1133 85 34 24
        E 42 85 37 1b
        E 150 85 3b 28
        E 313 95 39 42
        E 4 95 37 36
        E 3 95 34 40
        E 1122 85 39 23
        E 17 85 37 2b
        E 5 85 34 2d
        E 477 95 34 42
        E 5 95 37 3f
        E 11 95 3b 47
        E 1016 85 37 21
        E 32 85 34 3d
        E 201 85 3b 1f
        E 380 95 35 38
        E 34 95 32 3b
        E 1 95 3c 3e
        E 1072 85 32 2a
        E 11 85 35 24
        E 192 85 3c 22
        E 317 95 30 40
        E 13 95 3e 3f
        E 17 95 35 46
        E 5413 85 30 09
        E 23 85 35 2b
        E 1068 85 3e 1f
        E 145 95 28 42
        E 3219 85 28 29
        E 467 95 28 41
        E 957 85 28 32
        E 459 95 26 35
        E 3295 85 26 2c
        E 359 95 26 43
        E 903 85 26 39
        E 414 95 24 43
        E 1230 85 24 35
        E 271 95 28 40
        E 960 85 28 38
        E 369 95 26 50
        E 1054 85 26 26
        E 406 95 24 56
        E 840 85 24 31
        E 573 95 24 4a
        E 2070 85 24 2d
        E 323 95 24 4a
        E 380 85 24 38
        E 329 95 24 42
        E 1346 95 2d 3e
        E 42 85 24 28
        E 1409 95 29 46
        E 33 85 2d 28
        E 2377 85 29 01
        E 384 95 24 4d
        E 1434 85 24 21
        E 14 95 2d 36
        E 1501 95 2f 39
        E 57 85 2d 25
        E 2590 85 2f 01
        E 462 95 2f 1d
        E 2021 85 2f 2b
        E 413 95 2f 34
        E 410 85 2f 2d
        E 2249 95 2d 3e
        E 5383 85 2d 01
        E 454 95 2f 2a
        E 10 95 3b 31
        E 1219 85 2f 25
        E 35 85 3b 23
        E 494 95 3b 3a
        E 12 95 2f 33
        E 802 95 2d 27
        E 15 95 39 36
        E 1 85 3b 3e
        E 26 85 2f 21
        E 2991 95 30 3d
        E 61 95 3c 29
        E 276 85 39 40
        E 63 85 2d 3e
        E 2607 85 3c 52
        E 25 95 39 4c
        E 6 95 40 40
        E 16 95 2d 39
        E 2669 85 40 3b
        E 192 85 39 05
        E 287 95 43 52
        E 2275 85 30 2f
        E 208 85 2d 29
        E 2400 95 37 49
        E 9 95 3b 45
        E 16 95 41 45
        E 156 85 43 24
        E 4104 95 40 47
        E 151 85 41 29
        E 782 85 3b 34
        E 161 85 37 29
        E 454 95 32 3f
        E 73 95 3e 45
        E 104 85 40 41
        E 3094 95 3b 44
        E 29 85 3e 53
        E 3021 95 39 4e
        E 74 85 3b 48
        E 3098 95 35 47
        E 2498 85 32 33
        E 62 85 39 27
        E 12 85 35 26
        E 386 95 32 38
        E 47 95 39 42
        E 0 95 35 32
        E 1503 95 3c 38
        E 3188 85 32 35
        E 104 85 3c 2b
        E 8 85 39 2d
        E 2 85 35 27
        E 869 95 32 2f
        E 2 95 39 24
        E 32 95 35 1e
        E 1330 95 3c 45
        E 1491 95 3e 39
        E 1910 85 3e 21
        E 136 85 32 29
        E 39 85 39 21
        E 46 85 35 1d
        E 25 85 3c 20
        E 538 95 32 37
        E 39 95 3c 44
        E 23 95 35 36
        E 32 95 39 47
        E 2372 95 3e 2b
        E 234 85 3e 23
        E 461 95 3e 33
        E 1940 85 32 1c
        E 116 85 35 01
        E 151 85 39 01
        E 179 85 3e 27
        E 75 85 3c 26
        E 2835 95 3e 6b
        E 679 85 3e 22
        E 671 95 40 6b
        E 839 85 40 21
        E 698 95 3e 4a
        E 812 85 3e 30
        E 928 95 48 53
        E 23 95 45 42
        E 6 95 41 47
        E 2887 85 48 36
        E 4 85 45 2b
        E 10 85 41 26
        E 970 95 45 69
        E 23 95 48 4d
        E 4 95 41 4c
        E 181 85 45 45
        E 9 85 41 37
        E 10 85 48 36
        E 1242 95 47 55
        E 2 95 4a 4a
        E 29 95 43 45
        E 163 85 4a 37
        E 19 85 47 49
        E 12 85 43 32
        E 453 95 47 61
        E 5 95 43 52
        E 18 95 4a 4b
        E 185 85 47 3c
        E 11 85 4a 27
        E 21 85 43 38
        E 4481 95 45 64
        E 18 95 41 46
        E 34 95 48 46
        E 2786 85 45 20
        E 7 85 48 22
        E 40 85 41 27
        E 862 95 41 3c
        E 14 95 45 2f
        E 1 95 48 3a
        E 168 85 45 39
        E 20 85 41 38
        E 0 85 48 35
        E 1123 95 4a 4a
        E 14 95 47 45
        E 22 95 43 45
        E 188 85 47 41
        E 2 85 4a 3e
        E 18 85 43 38
        E 396 95 47 66
        E 19 95 43 51
        E 37 95 4a 32
        E 98 85 4a 23
        E 16 85 47 46
        E 35 85 43 38
        E 427 95 43 4f
        E 9 95 4a 4f
        E 5 95 47 65
        E 215 85 47 3b
        E 24 85 4a 3a
        E 9 85 43 3f
        E 365 95 43 55
        E 2 95 47 69
        E 16 95 4a 4b
        E 1401 85 4a 29
        E 13 85 43 28
        E 31 85 47 26
        E 548 95 47 60
        E 10 95 4a 40
        E 2 95 43 51
        E 290 85 47 32
        E 30 85 4a 29
        E 21 85 43 31
        E 850 95 43 5b
        E 2 95 4a 57
        E 1 95 47 6b
        E 198 85 47 4a
        E 3 85 4a 34
        E 5 85 43 43
        E 352 95 47 6a
        E 14 95 43 4f
        E 21 95 4a 3c
        E 131 85 4a 2b
        E 74 85 47 42
        E 9 85 43 32
        E 407 95 4c 26
        E 16 95 43 3f
        E 20 95 47 25
        E 15 95 48 28
        E 151 85 48 30
        E 33 85 47 36
        E 27 85 43 37
        E 22 85 4c 2b
        E 432 95 4c 46
        E 33 95 48 43
        E 17 95 43 45
        E 11 95 47 32
        E 249 85 47 19
        E 914 85 43 2b
        E 18 85 4c 2b
        E 18 85 48 32
        E 523 95 4c 4d
        E 1 95 48 56
        E 17 95 43 4b
        E 250 85 4c 3c
        E 16 85 48 34
        E 41 85 43 35
        E 900 95 47 6e
        E 21 95 4a 4d
        E 0 95 43 4f
        E 186 85 47 4b
        E 4 85 4a 30
        E 6 85 43 39
        E 423 95 43 53
        E 1 95 47 66
        E 3 95 4a 53
        E 168 85 47 46
        E 19 85 4a 37
        E 26 85 43 3f
        E 290 95 48 61
        E 8 95 4c 4a
        E 34 95 43 3c
        E 218 85 4c 2e
        E 38 85 48 37
        E 10 85 43 31
        E 410 95 4c 4c
        E 9 95 48 67
        E 1 95 43 53
        E 1099 85 43 25
        E 8 85 48 31
        E 18 85 4c 2c
        E 615 95 48 72
        E 14 95 4c 59
        E 2 95 43 60
        E 294 85 48 24
        E 76 85 43 20
        E 44 85 4c 1f
        E 725 95 47 6c
        E 16 95 4a 46
        E 54 95 41 21
        E 100 85 41 26
        E 17 85 47 41
        E 8 85 4a 2a
        E 496 95 47 56
        E 34 95 41 3f
        E 1 95 4a 3b
        E 149 85 4a 27
        E 14 85 41 2f
        E 31 85 47 38
        E 613 95 48 70
        E 6 95 45 4a
        E 7 95 4c 53
        E 262 85 45 23
        E 20 85 48 33
        E 26 85 4c 22
        E 418 95 48 53
        E 1 95 43 58
        E 8 95 4c 43
        E 872 85 4c 28
        E 9 85 48 29
        E 15 85 43 2c
        E 720 95 48 6f
        E 7 95 4c 54
        E 0 95 43 5d
        E 300 85 48 26
        E 103 85 43 27
        E 1 85 4c 32
        E 900 95 47 65
        E 2 95 41 5d
        E 2 95 4a 58
        E 572 85 47 38
        E 32 85 41 32
        E 12 85 4a 31
        E 631 95 41 5b
        E 4 95 4a 51
        E 0 95 47 6c
        E 175 85 47 4f
        E 12 85 4a 37
        E 10 85 41 45
        E 486 95 45 64
        E 14 95 48 4f
        E 3 95 40 44
        E 724 85 45 1d
        E 47 85 48 24
        E 27 85 40 1a
        E 683 95 40 60
        E 1 95 45 6b
        E 5 95 48 5b
        E 625 85 45 29
        E 48 85 48 2e
        E 8 85 40 28
        E 605 95 40 4e
        E 21 95 45 69
        E 4 95 48 57
        E 193 85 45 43
        E 5 85 48 3a
        E 33 85 40 40
        E 416 95 45 69
        E 7 95 48 54
        E 8 95 40 5b
        E 340 85 45 26
        E 98 85 48 2c
        E 15 85 40 2e
        E 701 95 43 6a
        E 19 95 47 5b
        E 2 95 3e 5d
        E 204 85 43 43
        E 17 85 47 38
        E 19 85 3e 42
        E 380 95 3e 55
        E 4 95 47 4f
        E 0 95 43 65
        E 627 85 43 27
        E 24 85 3e 2a
        E 25 85 47 28
        E 503 95 43 6c
        E 10 95 3e 66
        E 8 95 47 60
        E 832 85 43 2a
        E 3 85 3e 30
        E 1 85 47 2b
        E 478 95 43 5b
        E 14 95 47 48
        E 5 95 3e 54
        E 232 85 43 45
        E 13 85 47 35
        E 2 85 3e 42
        E 413 95 43 6b
        E 5 95 3e 5c
        E 1 95 47 57
        E 855 85 3e 34
        E 36 85 43 2b
        E 25 85 47 27
        E 368 95 43 52
        E 6 95 47 48
        E 1 95 40 51
        E 268 85 47 3a
        E 10 85 43 3c
        E 21 85 40 3e
        E 319 95 43 4f
        E 0 95 40 47
        E 6 95 47 41
        E 634 85 43 22
        E 29 85 47 22
        E 73 85 40 1b
        E 534 95 43 52
        E 6 95 40 4f
        E 11 95 47 47
        E 783 85 40 31
        E 8 85 47 27
        E 14 85 43 30
        E 461 95 43 60
        E 20 95 40 51
        E 6 95 47 4a
        E 212 85 47 30
        E 17 85 43 43
        E 1 85 40 41
        E 451 95 43 69
        E 6 95 47 4a
        E 7 95 3e 61
        E 786 85 3e 2c
        E 12 85 47 2a
        E 25 85 43 27
        E 517 95 47 4a
        E 3 95 43 4e
        E 3 95 3e 5c
        E 271 85 3e 42
        E 2 85 47 37
        E 1 85 43 3b
        E 494 95 43 60
        E 4 95 40 5d
        E 5 95 47 56
        E 663 85 43 22
        E 14 85 47 28
        E 12 85 40 28
        E 551 95 43 67
        E 3 95 47 58
        E 9 95 40 5d
        E 559 85 47 12
        E 4 85 43 19
        E 95 85 40 22
        E 535 95 43 61
        E 18 95 47 4c
        E 9 95 40 4f
        E 200 85 43 41
        E 9 85 47 31
        E 35 85 40 3b
        E 476 95 41 59
        E 7 95 3e 4a
        E 3 95 45 43
        E 12 95 3c 3a
        E 44 85 3c 59
        E 487 85 3e 26
        E 11 85 41 28
        E 14 85 45 24
        E 673 95 41 5b
        E 7 95 45 4f
        E 3 95 3e 52
        E 240 85 41 3b
        E 3 85 45 36
        E 23 85 3e 3e
        E 406 95 40 51
        E 3 95 3c 56
        E 20 95 43 41
        E 477 85 3c 28
        E 16 85 40 2a
        E 20 85 43 23
        E 598 95 40 51
        E 1 95 3c 44
        E 5 95 43 4f
        E 7205 85 40 01
        E 760 95 40 40
        E 30 85 3c 21
        E 125 85 43 22
        E 1410 95 30 3a
        E 49 95 3c 42
        E 124 85 40 20
        E 453 95 3e 33
        E 147 85 3c 27
        E 568 95 40 34
        E 113 85 3e 2c
        E 510 85 30 20
        E 0 95 3e 32
        E 186 85 40 24
        E 427 95 30 2d
        E 80 95 40 46
        E 107 85 3e 40
        E 586 95 3e 27
        E 279 85 40 24
        E 354 95 3c 33
        E 46 85 3e 33
        E 512 95 3e 2a
        E 85 85 3c 25
        E 582 95 3c 2e
        E 23 85 3e 29
        E 537 95 3e 2a
        E 148 85 3c 1b
        E 90 85 30 22
        E 445 95 30 3d
        E 27 95 40 47
        E 146 85 3e 26
        E 593 95 3e 46
        E 119 85 40 3d
        E 458 95 40 3e
        E 159 85 3e 32
        E 514 95 3e 2e
        E 160 85 40 30
        E 39 85 30 23
        E 454 95 30 2e
        E 17 95 3c 40
        E 79 85 3e 40
        E 503 95 3e 33
        E 99 85 3c 31
        E 279 85 30 2d
        E 359 95 30 32
        E 23 95 3c 41
        E 19 85 3e 4c
        E 551 95 3e 40
        E 279 85 3c 13
        E 269 85 30 27
        E 286 95 30 33
        E 42 95 40 4f
        E 55 85 3e 43
        E 662 95 3e 3c
        E 99 85 30 28
        E 69 85 40 38
        E 458 95 30 36
        E 43 95 40 42
        E 105 85 3e 49
        E 625 95 3e 30
        E 199 85 30 24
        E 49 85 40 25
        E 444 95 30 2c
        E 12 95 3c 43
        E 96 85 3e 3c
        E 551 95 3e 41
        E 125 85 3c 33
        E 86 85 30 32
        E 540 95 30 31
        E 54 95 3c 41
        E 36 85 3e 42
        E 618 85 30 37
        E 13 95 3b 38
        E 148 85 3c 34
        E 791 95 2d 25
        E 14 95 39 3e
        E 0 95 34 32
        E 101 85 3b 36
        E 1813 95 3b 4c
        E 103 85 39 46
        E 1675 95 39 43
        E 79 85 34 3f
        E 111 85 3b 2f
        E 13 85 2d 34
        E 1108 95 32 3e
        E 0 95 2d 3c
        E 40 95 37 40
        E 5 85 39 4b
        E 3147 85 32 27
        E 52 85 2d 38
        E 48 95 35 40
        E 228 85 37 21
        E 411 95 34 31
        E 132 85 35 31
        E 424 95 35 2d
        E 174 85 34 28
        E 504 95 37 48
        E 8 95 29 34
        E 5 95 30 3b
        E 112 85 35 20
        E 1494 85 29 32
        E 144 85 30 21
        E 81 95 30 2b
        E 34 95 35 41
        E 1 95 2d 45
        E 139 85 37 35
        E 1226 85 2d 3c
        E 34 85 30 2b
        E 279 95 30 36
        E 10 95 2b 46
        E 35 95 34 44
        E 54 85 35 2f
        E 603 85 2b 22
        E 12 85 30 22
        E 510 95 30 49
        E 9 95 2d 3a
        E 17 95 35 3f
        E 101 85 34 29
        E 3465 95 37 40
        E 50 85 35 39
        E 666 95 39 42
        E 73 85 37 40
        E 28 85 2d 51
        E 3 85 30 28
        E 1559 95 29 41
        E 15 95 30 37
        E 24 95 3b 43
        E 98 85 39 23
        E 3351 95 40 33
        E 96 85 3b 39
        E 849 85 29 35
        E 38 85 30 27
        E 615 95 32 2c
        E 0 95 2d 27
        E 22 95 3e 47
        E 164 85 40 33
        E 2025 95 3c 46
        E 89 85 3e 3c
        E 1756 95 3b 3b
        E 191 85 3c 29
        E 115 85 32 21
        E 94 85 2d 36
        E 873 95 30 16
        E 23 95 29 34
        E 83 95 39 3b
        E 63 85 3b 31
        E 2921 95 37 43
        E 185 85 39 29
        E 540 95 35 2b
        E 157 85 37 2a
        E 21 85 29 1e
        E 62 85 30 20
        E 1020 95 2f 2a
        E 19 95 29 31
        E 2 95 34 2e
        E 87 85 35 1b
        E 1628 85 2f 28
        E 87 85 29 18
        E 337 95 30 32
        E 1981 95 32 47
        E 0 95 2d 43
        E 98 85 30 2c
        E 84 85 34 27
        E 1111 95 2b 5d
        E 28 95 34 3b
        E 42 85 32 38
        E 51 85 2d 43
        E 2081 95 35 3d
        E 28 85 34 52
        E 2628 85 2b 28
        E 214 85 35 20
        E 451 95 2d 2b
        E 5 95 37 40
        E 7 95 30 38
        E 1321 85 30 01
        E 452 85 2d 37
        E 28 95 30 29
        E 46 95 2b 41
        E 7 95 39 45
        E 142 85 37 43
        E 2534 85 30 1e
        E 53 85 2b 2f
        E 212 85 39 01
        E 365 95 3e 3d
        E 0 95 30 1d
        E 23 95 29 33
        E 1535 85 29 22
        E 278 95 3c 48
        E 31 95 2b 2c
        E 81 85 3e 3d
        E 1588 85 2b 2b
        E 32 95 2d 3e
        E 77 95 3b 46
        E 145 85 3c 34
        E 927 85 2d 2e
        E 45 95 2b 41
        E 16 95 39 42
        E 95 85 3b 3a
        E 2333 85 30 2c
        E 130 85 2b 1d
        E 430 85 39 1f
        E 710 95 24 50
        E 1347 95 3c 4a
        E 619 95 40 47
        E 170 85 3c 21
        E 132 85 40 38
        E 350 95 40 6b
        E 540 85 24 24
        E 80 95 3c 47
        E 137 85 40 27
        E 449 95 24 49
        E 272 85 3c 33
        E 473 95 3c 49
        E 562 95 40 37
        E 155 85 3c 3d
        E 109 85 40 43
        E 490 95 40 5b
        E 211 85 24 1f
        E 587 95 24 59
        E 224 85 40 34
        E 478 95 3c 53
        E 542 95 40 3d
        E 245 85 3c 19
        E 464 95 43 4a
        E 52 85 40 2b
        E 199 85 43 43
        E 393 95 43 56
        E 111 85 24 2d
        E 632 95 24 55
        E 88 85 43 40
        E 584 95 40 61
        E 87 85 24 43
        E 616 95 24 56
        E 30 85 40 2c
        E 674 95 43 53
        E 225 85 24 1e
        E 39 85 43 4a
        E 448 95 43 53
        E 747 95 24 3f
        E 74 85 43 34
        E 614 95 40 5b
        E 83 85 24 29
        E 557 95 24 48
        E 7 85 40 36
        E 682 95 3c 65
        E 298 85 3c 4c
        E 388 85 24 2f
        E 56 95 3c 69
        E 694 95 24 4a
        E 57 85 3c 3d
        E 671 95 3c 60
        E 99 85 24 2e
        E 587 95 24 4c
        E 190 85 3c 2b
        E 491 95 40 6a
        E 55 85 24 2c
        E 653 95 24 4f
        E 14 85 40 34
        E 674 95 43 5c
        E 177 85 24 32
        E 75 85 43 48
        E 437 95 43 60
        E 638 95 28 59
        E 28 85 43 2a
        E 682 95 43 54
        E 2 85 28 2e
        E 696 95 28 67
        E 50 85 43 38
        E 621 95 40 4b
        E 51 85 28 38
        E 648 95 28 61
        E 66 85 40 2b
        E 651 95 3c 56
        E 8 85 28 3d
        E 452 85 3c 2b
        E 69 95 28 72
        E 462 85 28 29
        E 95 95 3c 56
        E 598 95 28 6a
        E 75 85 3c 33
        E 569 95 3c 55
        E 462 95 40 3c
        E 118 85 28 01
        E 145 85 3c 1a
        E 411 95 43 48
        E 21 95 24 2e
        E 37 95 2d 36
        E 37 85 40 2f
        E 14 95 2b 28
        E 95 85 2b 26
        E 785 85 24 28
        E 72 85 2d 1e
        E 181 95 40 3f
        E 8 95 28 3f
        E 50 95 2d 33
        E 133 85 43 2b
        E 380 85 2d 01
        E 375 85 28 20
        E 356 95 2d 38
        E 20 95 26 1f
        E 34 95 3e 37
        E 28 85 40 38
        E 1265 85 26 30
        E 24 95 47 38
        E 90 85 3e 42
        E 147 85 2d 24
        E 1249 95 37 36
        E 42 95 45 45
        E 137 85 47 45
        E 1319 95 35 2c
        E 63 85 37 4c
        E 9 95 43 41
        E 166 85 45 38
        E 1154 95 34 41
        E 8 95 41 33
        E 91 85 35 26
        E 32 85 43 30
        E 1689 95 37 30
        E 19 95 3e 3f
        E 29 85 34 4a
        E 7 85 41 47
        E 17 95 32 3f
        E 1563 85 32 31
        E 48 95 30 42
        E 27 95 3c 27
        E 188 85 3e 2b
        E 1478 95 34 37
        E 26 95 3b 49
        E 26 85 30 39
        E 118 85 3c 3e
        E 1528 95 3e 41
        E 5 95 39 46
        E 9 95 32 3d
        E 24 85 34 3f
        E 14 85 3b 53
        E 2311 95 34 37
        E 10 85 32 43
        E 3 95 40 48
        E 13 95 30 40
        E 65 85 37 69
        E 3 85 3e 1e
        E 72 85 39 2a
        E 1962 85 34 01
        E 2348 85 30 44
        E 7 95 35 1c
        E 12 95 3c 48
        E 29 95 32 3e
        E 137 85 40 3f
        E 2019 95 3b 3d
        E 22 85 35 2b
        E 64 85 32 38
        E 91 85 3c 38
        E 1006 95 39 34
        E 35 85 3b 4c
        E 17 95 35 2a
        E 41 95 2f 28
        E 65 95 2d 1e
        E 77 85 2d 3a
        E 1349 85 2f 20
        E 59 85 35 20
        E 177 95 37 42
        E 277 85 39 19
        E 1494 95 30 29
        E 10 95 34 3b
        E 19 95 2d 31
        E 48 95 39 43
        E 100 85 37 3b
        E 11966 85 34 31
        E 20 85 39 27
        E 137 85 2d 42
        E 53 85 30 31
        E 2055 95 3c 43
        E 2196 95 3e 41
        E 61 85 3c 38
        E 225 95 40 43
        E 99 85 3e 35
        E 1044 95 43 39
        E 65 85 40 2a
        E 112 85 43 32
        E 876 95 43 3b
        E 1689 95 3c 36
        E 193 85 43 1e
        E 177 85 3c 2d
        E 36 95 40 21
        E 1130 85 40 24
        E 2 95 45 45
        E 191 85 45 47
        E 1048 95 45 28
        E 1596 95 3c 26
        E 336 85 45 01
        E 92 95 40 30
        E 80 85 3c 2f
        E 893 85 40 01
        E 12 95 47 41
        E 221 85 47 42
        E 899 95 48 45
        E 286 85 48 48
        E 791 95 47 46
        E 248 85 47 30
        E 330 95 45 45
        E 244 85 45 36
        E 290 95 43 3d
        E 889 85 43 24
        E 774 95 47 40
        E 494 95 45 38
        E 104 85 47 28
        E 478 95 43 3d
        E 7 85 45 30
        E 565 95 41 38
        E 132 85 43 2a
        E 1082 95 40 38
        E 75 85 41 28
        E 1609 95 43 3b
        E 102 85 40 2e
        E 440 95 41 24
        E 111 85 43 2b
        E 373 95 40 31
        E 180 85 41 23
        E 448 95 3e 32
        E 42 85 40 32
        E 1024 95 3c 3b
        E 183 85 3e 23
        E 290 95 3e 2d
        E 174 85 3c 2e
        E 446 95 40 21
        E 38 85 3e 20
        E 434 95 3e 34
        E 195 85 40 28
        E 409 95 3c 21
        E 352 85 3e 1f
        E 114 95 3b 33
        E 81 85 3c 3a
        E 385 95 3c 3b
        E 59 85 3b 2e
        E 481 95 39 41
        E 117 85 3c 38
        E 377 95 3c 2b
        E 149 85 39 1c
        E 418 95 3e 3b
        E 182 85 3c 28
        E 357 95 3c 36
        E 172 85 3e 31
        E 325 95 3b 31
        E 150 85 3c 2d
        E 336 95 40 38
        E 68 85 3b 2a
        E 453 95 3e 25
        E 130 85 40 32
        E 413 95 3c 23
        E 102 85 3e 2b
        E 891 85 3c 2e
        E 119 95 3e 49
        E 531 95 3b 38
        E 137 85 3e 28
        E 266 95 3c 2e
        E 176 85 3b 1d
        E 440 95 3e 32
        E 132 85 3c 36
        E 520 95 39 33
        E 72 85 3e 3e
        E 679 95 3b 2c
        E 163 85 39 2a
        E 422 95 3c 38
        E 162 85 3b 28
        E 366 95 3e 42
        E 182 85 3c 27
        E 410 95 3c 47
        E 138 85 3e 32
        E 128 85 3c 43
        E 299 95 3c 3c
        E 583 95 3b 27
        E 212 85 3c 2b
        E 394 95 39 36
        E 170 85 3b 29
        E 118 85 39 33
        E 281 95 39 35
        E 515 95 37 34
        E 165 85 39 0d
        E 515 95 35 2f
        E 118 85 37 3c
        E 389 95 37 3d
        E 76 85 35 2b
        E 572 95 35 2b
        E 95 85 37 2d
        E 116 85 35 40
        E 449 95 35 30
        E 515 95 37 39
        E 117 85 35 2a
        E 574 95 35 1c
        E 76 85 37 2a
        E 426 95 34 32
        E 129 85 35 1d
        E 214 85 34 3b
        E 321 95 34 3a
        E 572 95 35 3b
        E 31 85 34 32
        E 438 95 34 32
        E 95 85 35 26
        E 567 95 32 39
        E 250 85 34 29
        E 5059 85 32 23
        E 1126 95 40 37
        E 1186 95 3c 46
        E 5 85 40 33
        E 1151 85 3c 39
        E 11 95 45 47
        E 1277 95 43 4a
        E 19 85 45 26
        E 169 85 43 3b
        E 437 95 43 5e
        E 591 95 41 41
        E 101 85 43 37
        E 432 95 40 38
        E 168 85 41 26
        E 408 95 3e 48
        E 65 85 40 39
        E 135 85 3e 52
        E 430 95 3e 54
        E 534 95 40 2c
        E 85 85 3e 21
        E 510 95 41 29
        E 41 85 40 2c
        E 532 95 40 24
        E 156 85 41 2e
        E 166 85 40 3c
        E 350 95 40 63
        E 574 95 3e 3e
        E 88 85 40 43
        E 487 95 3c 29
        E 166 85 3e 39
        E 423 95 3b 46
        E 103 85 3c 34
        E 102 85 3b 49
        E 438 95 3b 5d
        E 671 95 3c 3d
        E 88 85 3b 33
        E 445 95 3b 30
        E 136 85 3c 2b
        E 492 95 3e 49
        E 65 85 3b 33
        E 187 85 3e 38
        E 388 95 3e 63
        E 620 95 3c 21
        E 108 85 3e 37
        E 429 95 3b 38
        E 191 85 3c 29
        E 357 95 39 45
        E 62 85 3b 39
        E 106 85 39 52
        E 502 95 39 5d
        E 552 95 3b 41
        E 59 85 39 34
        E 496 95 39 2c
        E 19 85 3b 3b
        E 582 95 37 43
        E 96 85 39 38
        E 87 85 37 48
        E 432 95 37 55
        E 192 85 37 43
        E 379 95 37 60
        E 211 85 37 46
        E 331 95 37 63
        E 233 85 37 43
        E 380 95 37 6a
        E 1201 85 37 18
        E 1383 95 3e 4a
        E 256 85 3e 41
        E 308 95 3e 46
        E 540 95 41 3b
        E 80 85 3e 25
        E 446 95 43 40
        E 85 85 41 19
        E 521 95 41 4e
        E 101 85 43 2c
        E 116 85 41 40
        E 376 95 41 53
        E 519 95 40 2a
        E 129 85 41 34
        E 557 95 43 52
        E 32 85 40 2b
        E 570 95 45 41
        E 51 85 43 20
        E 202 85 45 41
        E 361 95 45 4c
        E 595 85 45 7f
        E 5 95 47 25
        E 512 95 48 1d
        E 98 85 47 20
        E 503 95 4a 35
        E 56 85 48 7d
        E 205 85 4a 32
        E 332 95 4a 45
        E 630 95 48 46
        E 119 85 4a 2a
        E 462 95 47 28
        E 96 85 48 29
        E 483 95 45 3f
        E 47 85 47 3c
        E 405 95 4a 38
        E 60 85 45 23
        E 569 95 48 37
        E 128 85 4a 33
        E 404 95 45 31
        E 135 85 48 3c
        E 419 95 4a 33
        E 81 85 45 20
        E 546 95 48 3a
        E 91 85 4a 38
        E 478 95 47 2e
        E 69 85 48 38
        E 464 95 48 45
        E 99 85 47 32
        E 528 95 45 40
        E 105 85 48 29
        E 3177 95 43 36
        E 48 85 45 24
        E 1108 85 43 1d
        E 21 95 45 51
        E 223 85 45 4a
        E 428 95 45 53
        E 578 95 43 43
        E 65 85 45 42
        E 525 95 41 34
        E 148 85 43 28
        E 411 95 40 46
        E 43 85 41 3e
        E 226 85 40 47
        E 918 95 40 43
        E 548 95 41 40
        E 133 85 40 1e
        E 429 95 43 40
        E 95 85 41 2f
        E 143 85 43 38
        E 438 95 43 58
        E 538 95 41 3c
        E 138 85 43 2d
        E 484 95 40 3e
        E 21 85 41 3f
        E 548 95 3e 34
        E 121 85 40 27
        E 139 85 3e 41
        E 863 95 3e 3b
        E 475 95 3c 2d
        E 151 85 3e 26
        E 462 95 3b 44
        E 91 85 3c 3d
        E 185 85 3b 44
        E 340 95 3b 44
        E 572 95 39 31
        E 102 85 3b 29
        E 481 95 37 40
        E 134 85 39 37
        E 424 95 39 4b
        E 79 85 37 38
        E 139 85 39 3c
        E 395 95 39 54
        E 522 95 37 3f
        E 149 85 39 2a
        E 430 95 35 47
        E 66 85 37 36
        E 440 95 34 31
        E 120 85 35 28
        E 155 85 34 42
        E 377 95 34 57
        E 596 95 32 33
        E 141 85 34 35
        E 405 95 34 44
        E 117 85 32 34
        E 164 85 34 47
        E 337 95 34 4f
        E 1151 95 32 3d
        E 131 85 34 28
        E 334 95 34 3b
        E 63 85 32 2e
        E 599 95 35 41
        E 146 85 34 37
        E 62 85 35 49
        E 300 95 35 46
        E 502 85 35 43
        E 9 95 37 29
        E 669 95 39 32
        E 80 85 37 22
        E 178 85 39 41
        E 400 95 39 48
        E 1183 95 3b 3a
        E 48 85 39 2a
        E 596 95 3c 2a
        E 175 85 3b 11
        E 402 95 3e 44
        E 122 85 3c 35
        E 115 85 3e 39
        E 397 95 3e 58
        E 551 95 3b 3e
        E 128 85 3e 26
        E 554 95 3c 41
        E 114 85 3b 36
        E 118 85 3c 34
        E 320 95 3c 50
        E 1102 85 3c 4c
        E 45 95 3e 27
        E 619 95 40 3f
        E 134 85 3e 24
        E 451 95 41 43
        E 86 85 40 28
        E 118 85 41 46
        E 460 95 41 53
        E 567 95 40 31
        E 79 85 41 2b
        E 435 95 41 39
        E 165 85 40 28
        E 492 95 43 48
        E 153 85 41 30
        E 94 85 43 3b
        E 330 95 43 52
        E 635 95 41 45
        E 96 85 43 29
        E 453 95 43 33
        E 91 85 41 1a
        E 536 95 45 43
        E 89 85 43 0f
        E 1144 95 3e 2a
        E 11 85 45 31
        E 1288 95 48 54
        E 8 85 3e 41
        E 1654 85 48 2a
        E 694 95 48 2e
        E 489 95 47 35
        E 212 85 48 1b
        E 374 95 45 32
        E 20 85 47 43
        E 497 95 47 2a
        E 73 85 45 23
        E 606 95 48 53
        E 85 85 47 28
        E 1102 95 43 36
        E 124 85 48 30
        E 1155 95 45 32
        E 68 85 43 36
        E 487 95 43 28
        E 127 85 45 2f
        E 466 95 41 30
        E 6 85 43 44
        E 526 95 43 3b
        E 206 85 41 12
        E 439 95 45 45
        E 99 85 43 2f
        E 1081 95 40 2e
        E 1 85 45 3b
        E 1245 95 3e 34
        E 124 85 40 2b
        E 468 95 3c 33
        E 138 85 3e 33
        E 500 95 3e 36
        E 148 85 3c 32
        E 457 95 40 36
        E 127 85 3e 22
        E 433 95 3e 37
        E 150 85 40 2e
        E 989 95 3c 3f
        E 132 85 3e 32
        E 1126 95 3b 42
        E 41 85 3c 40
        E 3226 85 3b 21
        E 489 95 39 32
        E 568 95 3b 21
        E 172 85 39 19
        E 307 95 3c 41
        E 177 85 3b 1a
        E 276 85 3c 2a
        E 206 95 3c 49
        E 552 95 3e 36
        E 48 85 3c 23
        E 519 95 40 2f
        E 125 85 3e 27
        E 555 95 3e 37
        E 147 85 40 2b
        E 1003 85 3e 47
        E 45 95 40 1f
        E 499 95 41 36
        E 47 85 40 36
        E 589 95 43 41
        E 88 85 41 30
        E 126 85 43 34
        E 429 95 43 4f
        E 586 95 45 29
        E 195 85 43 1a
        E 394 95 47 33
        E 153 85 45 1e
        E 349 95 45 31
        E 119 85 47 2b
        E 974 95 43 39
        E 96 85 45 2d
        E 497 95 41 26
        E 56 85 43 30
        E 451 95 48 29
        E 71 85 41 30
        E 224 85 48 48
        E 395 95 48 53
        E 655 95 47 24
        E 43 85 48 28
        E 394 95 45 31
        E 33 85 47 31
        E 705 95 4a 3f
        E 12 85 45 29
        E 1130 95 48 35
        E 138 85 4a 20
        E 984 95 4c 26
        E 47 95 45 45
        E 12 85 48 3e
        E 1801 85 4c 01
        E 470 95 4a 40
        E 132 85 45 2f
        E 922 85 4a 2f
        E 27 95 48 48
        E 1300 95 47 40
        E 120 85 48 32
        E 408 95 45 43
        E 59 85 47 3e
        E 496 95 43 35
        E 123 85 45 29
        E 541 95 41 3c
        E 100 85 43 2a
        E 457 95 40 42
        E 92 85 41 3c
        E 1089 95 3e 35
        E 174 85 40 28
        E 356 95 3c 29
        E 173 85 3e 38
        E 364 95 40 2f
        E 103 85 3c 2e
        E 511 95 3e 31
        E 157 85 40 30
        E 438 95 3c 2a
        E 164 85 3e 2c
        E 496 95 3b 40
        E 73 85 3c 3b
        E 590 95 39 29
        E 329 85 3b 1d
        E 816 95 37 30
        E 66 85 39 2b
        E 481 95 35 32
        E 340 85 37 01
        E 258 95 37 33
        E 48 85 35 3b
        E 478 95 39 38
        E 167 85 37 2a
        E 446 95 3b 2f
        E 157 85 39 1f
        E 284 95 39 3c
        E 145 85 3b 27
        E 339 95 37 27
        E 168 85 39 30
        E 409 95 35 40
        E 101 85 37 36
        E 684 95 37 41
        E 92 85 35 2b
        E 505 95 39 2f
        E 89 85 37 2d
        E 541 95 37 32
        E 142 85 39 3c
        E 3495 95 39 22
        E 97 85 37 21
        E 551 95 3b 40
        E 64 85 39 21
        E 514 95 3c 40
        E 69 85 3b 07
        E 190 85 3c 30
        E 327 95 3c 45
        E 668 95 3b 40
        E 119 85 3c 40
        E 617 95 39 46
        E 84 85 3b 40
        E 516 95 37 3f
        E 127 85 39 3b
        E 1156 95 35 3b
        E 28 85 37 47
        E 675 95 39 31
        E 132 85 35 3d
        E 537 95 3b 40
        E 77 85 39 21
        E 139 85 3b 42
        E 405 95 3b 44
        E 734 95 3c 25
        E 12 85 3b 3e
        E 690 95 3e 34
        E 144 85 3c 2f
        E 179 85 3e 2a
        E 400 95 3e 3c
        E 1315 85 3e 01
        E 52 95 3c 3d
        E 692 95 3e 42
        E 154 85 3c 21
        E 447 95 43 4a
        E 100 85 3e 24
        E 152 85 43 39
        E 401 95 43 3d
        E 649 95 41 2e
        E 94 85 43 1d
        E 537 95 40 31
        E 66 85 41 31
        E 552 95 43 40
        E 83 85 40 21
        E 178 85 43 3a
        E 427 95 43 45
        E 654 85 43 2a
        E 19 95 41 22
        E 551 95 40 2a
        E 105 85 41 18
        E 505 95 45 1c
        E 58 85 40 34
        E 3308 95 47 3a
        E 74 85 45 7d
        E 1183 95 45 46
        E 106 85 47 42
        E 1488 85 45 28
        E 10 95 48 2a
        E 6285 95 4a 42
        E 128 85 48 2a
        E 1177 95 48 47
        E 61 85 4a 36
        E 226 95 47 3e
        E 171 85 48 34
        E 642 95 48 46
        E 132 85 47 31
        E 1150 95 47 39
        E 92 85 48 35
        E 316 95 45 38
        E 121 85 47 34
        E 713 95 48 3a
        E 51 85 45 23
        E 1256 95 47 41
        E 106 85 48 39
        E 385 95 45 29
        E 94 85 47 33
        E 721 95 48 42
        E 75 85 45 32
        E 1275 95 47 3f
        E 81 85 48 42
        E 275 95 45 32
        E 168 85 47 25
        E 638 85 45 3b
        E 5 95 4a 48
        E 1273 95 48 42
        E 158 85 4a 26
        E 276 95 47 33
        E 127 85 48 40
        E 664 95 48 44
        E 139 85 47 28
        E 1070 95 47 3e
        E 131 85 48 35
        E 327 95 45 32
        E 115 85 47 30
        E 716 95 43 32
        E 42 85 45 3e
        E 1238 95 41 45
        E 114 85 43 2b
        E 257 95 40 38
        E 137 85 41 33
        E 357 95 41 33
        E 96 85 40 31
        E 355 95 40 34
        E 164 85 41 2e
        E 5342 95 3e 43
        E 61 85 40 46
        E 2337 95 3b 28
        E 332 85 3e 18
        E 86 95 3c 3a
        E 246 85 3b 20
        E 293 95 3e 41
        E 182 85 3c 2d
        E 1010 95 3c 40
        E 78 85 3e 3c
        E 353 95 3b 42
        E 120 85 3c 33
        E 222 95 3c 35
        E 185 85 3b 22
        E 317 95 40 2f
        E 79 85 3c 32
        E 1057 95 3c 3d
        E 136 85 40 31
        E 323 95 3b 45
        E 109 85 3c 38
        E 226 95 3c 2e
        E 130 85 3b 33
        E 388 95 41 3f
        E 93 85 3c 42
        E 996 95 3c 31
        E 195 85 41 39
        E 250 95 3b 39
        E 88 85 3c 34
        E 287 95 3c 41
        E 182 85 3b 23
        E 340 95 3e 44
        E 105 85 3c 29
        E 1033 95 3c 40
        E 114 85 3e 3b
        E 386 95 3b 2a
        E 152 85 3c 34
        E 189 95 3c 50
        E 108 85 3b 48
        E 587 95 40 50
        E 90 85 3c 40
        E 992 95 3e 40
        E 123 85 40 33
        E 441 95 3c 3f
        E 111 85 3e 40
        E 229 95 3b 47
        E 162 85 3c 38
        E 302 95 41 23
        E 86 85 3b 43
        E 953 95 40 32
        E 64 85 41 3f
        E 461 95 3e 27
        E 140 85 40 2d
        E 257 95 3b 2a
        E 41 85 3e 3a
        E 421 95 43 33
        E 126 85 3b 42
        E 4064 95 41 40
        E 163 85 43 33
        E 951 95 40 46
        E 91 85 41 34
        E 354 95 3e 24
        E 155 85 40 36
        E 747 95 3c 43
        E 51 85 3e 3f
        E 1141 95 3b 40
        E 192 85 3c 2a
        E 242 95 39 3b
        E 196 85 3b 2f
        E 645 95 37 48
        E 28 85 39 4c
        E 1361 95 39 45
        E 37 85 37 4c
        E 309 95 37 43
        E 66 85 39 3f
        E 819 95 35 48
        E 140 85 37 3b
        E 1184 95 34 40
        E 134 85 35 3e
        E 315 95 32 3e
        E 92 85 34 43
        E 773 95 30 47
        E 125 85 32 38
        E 1317 95 2f 31
        E 158 85 30 33
        E 330 95 2d 28
        E 101 85 2f 42
        E 956 95 32 50
        E 104 85 2d 2a
        E 1182 95 30 3b
        E 20 85 32 43
        E 497 95 32 49
        E 103 85 30 29
        E 802 95 34 44
        E 56 85 32 29
        E 4422 95 35 1f
        E 16 85 34 4d
        E 543 95 37 51
        E 172 85 35 22
        E 376 95 39 44
        E 101 85 37 2e
        E 1228 95 37 3b
        E 63 85 39 2f
        E 386 95 39 38
        E 106 85 37 26
        E 762 95 3b 46
        E 150 85 39 26
        E 1695 95 35 40
        E 28 85 3b 44
        E 963 95 3c 3c
        E 49 85 35 38
        E 1174 95 3b 3b
        E 88 85 3c 38
        E 398 95 39 3e
        E 63 85 3b 4b
        E 805 95 3e 47
        E 22 85 39 36
        E 1744 95 37 22
        E 22 85 3e 4c
        E 931 95 40 40
        E 6 85 37 46
        E 22 95 3e 3b
        E 98 85 3e 33
        E 1157 95 3e 41
        E 121 85 40 27
        E 413 95 3c 3b
        E 47 85 3e 46
        E 341 95 3e 41
        E 203 85 3c 25
        E 324 95 40 3f
        E 65 85 3e 3e
        E 1282 85 40 7b
        E 0 95 41 48
        E 409 95 43 43
        E 129 85 41 2b
        E 2417 95 41 19
        E 152 85 43 2b
        E 3040 95 40 48
        E 109 85 41 51
        E 2934 95 3e 40
        E 153 85 40 40
        E 2803 85 3e 40
        E 21 95 3c 4d
        E 1492 95 3b 49
        E 117 85 3c 3d
        E 1098 85 3b 3d
        E 158 95 39 36
        E 108 85 39 41
        E 593 95 39 3c
        E 607 95 37 36
        E 32 85 39 33
        E 709 85 37 27
        E 8 95 39 40
        E 142 85 39 3d
        E 1117 95 39 40
        E 602 85 39 30
        E 27 95 37 3b
        E 314 95 39 43
        E 53 85 37 30
        E 324 95 3b 47
        E 105 85 39 3d
        E 574 95 39 49
        E 77 85 3b 35
        E 74 85 39 42
        E 617 95 39 5c
        E 652 95 37 3c
        E 25 85 39 28
        E 698 95 39 45
        E 76 85 37 35
        E 56 85 39 53
        E 1236 95 37 40
        E 714 95 39 39
        E 212 85 37 1b
        E 106 95 3b 44
        E 143 85 39 1a
        E 322 95 39 3d
        E 218 85 3b 24
        E 429 85 39 36
        E 0 95 37 3c
        E 267 85 37 41
        E 468 95 37 41
        E 650 95 3c 21
        E 33 85 37 20
        E 708 95 3b 42
        E 24 85 3c 45
        E 110 85 3b 4a
        E 1121 95 3b 3b
        E 750 95 39 40
        E 18 85 3b 40
        E 266 95 3b 45
        E 84 85 39 26
        E 350 95 3c 32
        E 143 85 3b 1d
        E 492 95 3e 28
        E 72 85 3c 1a
        E 150 85 3e 3d
        E 546 95 3e 53
        E 672 95 3c 33
        E 12 85 3e 42
        E 744 95 3e 45
        E 94 85 3c 34
        E 164 85 3e 42
        E 1000 95 3c 2d
        E 658 95 3e 43
        E 129 85 3c 29
        E 222 95 40 40
        E 62 85 3e 25
        E 184 95 3e 3e
        E 79 85 40 3c
        E 691 85 3e 39
        E 50 95 40 35
        E 105 95 41 40
        E 31 85 40 31
        E 280 85 41 47
        E 320 95 41 44
        E 700 95 40 3e
        E 281 85 41 01
        E 501 95 3e 42
        E 88 85 40 49
        E 129 85 3e 30
        E 974 95 3e 31
        E 725 95 3c 33
        E 213 85 3e 21
        E 112 95 3b 3d
        E 65 85 3c 2f
        E 311 95 3c 43
        E 100 85 3b 33
        E 610 95 3b 43
        E 39 85 3c 35
        E 185 85 3b 43
        E 492 95 3b 42
        E 678 95 39 1c
        E 114 85 3b 33
        E 629 95 37 47
        E 49 85 39 43
        E 127 85 37 46
        E 1149 95 37 3c
        E 635 85 37 34
        E 64 95 35 31
        E 278 95 37 3f
        E 3 85 35 36
        E 361 95 35 38
        E 20 85 37 3c
        E 662 95 34 43
        E 75 85 35 29
        E 163 85 34 3d
        E 496 95 34 26
        E 697 95 32 44
        E 74 85 34 2d
        E 297 95 35 5e
        E 37 85 32 31
        E 346 95 34 56
        E 56 85 35 40
        E 342 85 34 3c
        E 856 95 32 43
        E 259 95 34 3f
        E 47 85 32 45
        E 674 95 32 3c
        E 103 85 34 31
        E 649 95 30 32
        E 19 85 32 43
        E 722 95 2f 47
        E 86 85 30 36
        E 136 85 2f 3f
        E 828 95 2f 38
        E 387 95 30 3d
        E 26 85 2f 31
        E 229 95 2f 41
        E 63 85 30 3e
        E 342 95 2d 41
        E 72 85 2f 2c
        E 210 85 2d 33
        E 1032 95 2d 40
        E 245 85 2d 3d
        E 512 95 2d 44
        E 254 85 2d 36
        E 1047 95 2d 4e
        E 284 85 2d 37
        E 5 95 2f 48
        E 343 95 30 47
        E 62 85 2f 2c
        E 256 95 2f 4c
        E 32 85 30 3f
        E 202 85 2f 44
        E 1035 95 2d 5e
        E 175 85 2d 4a
        E 577 95 2d 64
        E 185 85 2d 48
        E 1161 95 2d 61
        E 279 95 2f 45
        E 85 85 2d 1f
        E 240 95 30 37
        E 35 85 2f 2f
        E 258 95 2f 46
        E 101 85 30 36
        E 275 85 2f 49
        E 822 95 2d 65
        E 176 85 2d 48
        E 529 95 2d 67
        E 190 85 2d 4c
        E 834 95 2d 63
        E 186 85 2d 3d
        E 190 95 2b 55
        E 170 85 2b 4e
        E 522 95 2d 57
        E 169 85 2d 47
        E 887 95 2d 58
        E 153 85 2d 36
        E 161 95 2d 42
        E 217 85 2d 42
        E 613 95 2d 41
        E 1063 85 2d 2f
        E 479 95 2b 28
        E 316 95 2d 01
        E 62 85 2b 1b
        E 292 95 2f 36
        E 110 85 2d 2b
        E 152 85 2f 50
        E 734 95 2d 51
        E 189 85 2d 3d
        E 184 95 2d 3e
        E 216 85 2d 3c
        E 618 95 2d 57
        E 1153 85 2d 29
        E 343 95 2b 45
        E 325 95 2d 3f
        E 113 85 2b 21
        E 211 95 2f 48
        E 101 85 2d 2a
        E 115 85 2f 47
        E 868 95 2d 5e
        E 141 85 2d 3d
        E 188 95 2d 40
        E 177 85 2d 40
        E 664 95 2d 66
        E 1044 85 2d 2e
        E 355 95 2b 40
        E 306 95 2d 40
        E 222 85 2b 1c
        E 167 95 2f 47
        E 141 85 2d 30
        E 179 85 2f 46
        E 719 95 2d 67
        E 129 85 2d 42
        E 230 95 2d 49
        E 296 85 2d 2f
        E 452 95 2f 44
        E 769 85 2f 3d
        E 338 95 2d 50
        E 166 85 2d 4f
        E 210 95 2f 3c
        E 280 85 2f 2a
        E 445 95 30 3a
        E 1652 85 30 26
        E 1876 95 43 43
        E 509 85 43 21
        E 222 95 41 45
        E 855 85 41 22
        E 549 95 40 60
        E 251 85 40 3d
        E 514 95 3e 65
        E 517 85 3e 1c
        E 949 95 41 6b
        E 240 85 41 40
        E 447 95 40 66
        E 688 85 40 34
        E 614 95 3e 5c
        E 179 85 3e 32
        E 528 95 3c 66
        E 621 85 3c 01
        E 730 95 3e 56
        E 221 85 3e 40
        E 417 95 3c 66
        E 709 85 3c 26
        E 596 95 3b 60
        E 233 85 3b 43
        E 455 95 39 63
        E 234 85 39 42
        E 333 95 3b 49
        E 260 85 3b 2b
        E 384 95 39 59
        E 234 85 39 31
        E 459 95 37 41
        E 1808 85 37 1d
        E 1689 95 3e 31
        E 411 95 40 1c
        E 48 85 3e 34
        E 180 95 41 44
        E 105 85 40 2f
        E 237 85 41 31
        E 941 95 40 27
        E 320 95 41 26
        E 110 85 40 1d
        E 584 95 43 43
        E 46 85 41 2c
        E 559 85 43 36
        E 494 95 40 2e
        E 311 95 41 2a
        E 72 85 40 18
        E 252 95 43 31
        E 52 85 41 26
        E 321 95 45 3d
        E 136 85 43 1d
        E 170 85 45 3b
        E 795 95 43 46
        E 360 95 45 2b
        E 83 85 43 1d
        E 690 95 47 3e
        E 25 85 45 1f
        E 205 85 47 33
        E 811 95 40 32
        E 370 95 41 27
        E 24 85 40 21
        E 318 95 43 34
        E 119 85 41 1e
        E 340 95 45 2c
        E 56 85 43 30
        E 347 85 45 1e
        E 687 95 43 2b
        E 351 95 45 2e
        E 53 85 43 21
        E 721 95 47 46
        E 180 85 45 1b
        E 813 85 47 36
        E 37 95 45 2f
        E 353 95 47 40
        E 146 85 45 1f
        E 616 95 48 48
        E 86 85 47 22
        E 4076 85 48 2a
        E 730 95 48 3f
        E 1259 85 48 3e
        E 106 95 4a 2f
        E 756 85 4a 27
        E 12 95 48 43
        E 1213 95 47 23
        E 112 85 48 23
        E 296 95 45 3c
        E 9 85 47 2c
        E 471 85 45 1d
        E 242 95 48 31
        E 1066 85 48 22
        E 385 95 47 3d
        E 406 85 47 22
        E 284 95 48 28
        E 1072 95 47 35
        E 175 85 48 21
        E 242 95 45 3f
        E 54 85 47 27
        E 561 85 45 29
        E 155 95 43 3e
        E 756 85 43 1f
        E 615 95 45 3b
        E 351 85 45 23
        E 465 95 43 38
        E 1027 85 43 31
        E 99 95 41 39
        E 374 85 41 0c
        E 43 95 40 3e
        E 437 85 40 07
        E 339 95 3e 32
        E 2291 85 3e 01
        E 470 95 3c 3d
        E 372 95 3e 3e
        E 85 85 3c 1e
        E 204 85 3e 26
        E 43 95 40 47
        E 246 85 40 2d
        E 179 95 40 44
        E 1075 85 40 2a
        E 43 95 3e 28
        E 333 95 40 33
        E 62 85 3e 1b
        E 639 95 41 4d
        E 127 85 40 35
        E 47 85 41 46
        E 886 95 3e 33
        E 321 95 40 42
        E 140 85 3e 19
        E 109 85 40 2c
        E 678 95 3c 50
        E 689 85 3c 24
        E 437 95 40 40
        E 265 85 40 26
        E 147 95 41 50
        E 335 85 41 2b
        E 383 95 43 42
        E 469 85 43 28
        E 607 95 3e 2b
        E 163 85 3e 24
        E 288 95 40 33
        E 229 85 40 28
        E 571 95 43 36
        E 828 85 43 25
        E 304 95 41 4b
        E 246 85 41 33
        E 147 95 43 3f
        E 262 85 43 30
        E 577 95 45 41
        E 809 85 45 1b
        E 228 95 43 55
        E 291 85 43 2b
        E 104 95 45 47
        E 428 85 45 28
        E 336 95 47 43
        E 966 85 47 21
        E 385 95 48 3d
        E 20 95 47 37
        E 119 85 47 3e
        E 1 85 48 47
        E 194 95 48 44
        E 340 85 48 1c
        E 397 95 48 46
        E 1512 85 48 26
        E 3796 95 47 44
        E 1619 95 45 34
        E 104 85 47 26
        E 788 95 43 41
        E 0 95 30 38
        E 5 85 45 36
        E 15 95 29 3b
        E 1368 95 41 42
        E 130 85 43 2c
        E 297 95 40 2e
        E 167 85 41 24
        E 18 85 29 1b
        E 28 85 30 1f
        E 465 95 30 2f
        E 16 85 40 3f
        E 1 95 3e 3e
        E 41 95 29 3e
        E 1293 95 3c 28
        E 162 85 3e 27
        E 73 85 29 1a
        E 218 95 3b 3d
        E 73 85 30 01
        E 87 85 3c 29
        E 560 95 30 2f
        E 22 95 29 4c
        E 9 95 39 44
        E 74 85 3b 1b
        E 1063 85 29 28
        E 148 95 3b 3a
        E 65 85 39 41
        E 61 85 30 1c
        E 231 95 3c 3d
        E 181 85 3b 2a
        E 619 95 32 3e
        E 51 95 2b 43
        E 20 95 3e 45
        E 221 85 3c 3e
        E 1035 85 32 20
        E 9 95 3c 34
        E 48 85 2b 2b
        E 96 85 3e 32
        E 339 95 3b 31
        E 164 85 3c 24
        E 557 85 3b 4f
        E 6 95 39 45
        E 46 95 30 29
        E 12 95 29 53
        E 1273 95 3b 3e
        E 84 85 30 36
        E 20 85 29 26
        E 17 85 39 1e
        E 313 95 3c 3c
        E 176 85 3b 21
        E 600 95 2b 55
        E 29 95 32 45
        E 40 95 3e 4e
        E 182 85 3c 38
        E 960 85 32 36
        E 172 95 3c 44
        E 65 85 2b 41
        E 49 85 3e 39
        E 313 95 3b 2e
        E 161 85 3c 2b
        E 553 95 29 4d
        E 17 95 30 35
        E 5 95 39 4a
        E 22 85 3b 4a
        E 2014 85 29 32
        E 36 85 30 2b
        E 17 85 39 35
        E 692 95 39 59
        E 14 95 29 4c
        E 9 95 30 43
        E 1622 95 3b 38
        E 68 85 39 33
        E 10 85 29 28
        E 160 85 30 38
        E 666 95 32 46
        E 5 95 2b 42
        E 83 95 3c 51
        E 57 85 3b 37
        E 1184 95 3b 39
        E 107 85 3c 36
        E 358 95 3c 49
        E 61 85 3b 38
        E 168 85 2b 22
        E 42 85 32 1b
        E 559 95 32 4a
        E 14 95 2b 5e
        E 8 95 3e 50
        E 197 85 3c 27
        E 1085 95 3c 42
        E 92 85 3e 34
        E 88 85 2b 01
        E 83 85 32 06
        E 286 95 3e 43
        E 105 85 3c 30
        E 620 95 40 46
        E 4 85 3e 3a
        E 18 95 32 43
        E 18 95 2b 5e
        E 1079 95 3e 3d
        E 88 85 2b 08
        E 9 85 40 3c
        E 113 85 32 2d
        E 199 95 3c 3d
        E 39 85 3e 46
        E 755 95 41 6a
        E 36 85 3c 4a
        E 16 95 32 40
        E 38 95 2b 44
        E 9 95 29 43
        E 306 85 29 25
        E 1060 85 2b 31
        E 55 95 40 44
        E 41 85 32 30
        E 247 85 41 1c
        E 531 95 34 40
        E 21 95 2d 3b
        E 21 95 3e 4c
        E 83 85 40 4d
        E 1153 95 45 29
        E 27 85 3e 2b
        E 144 85 2d 38
        E 208 85 34 07
        E 18 95 43 3e
        E 116 85 45 3a
        E 689 95 2b 32
        E 11 95 32 2e
        E 3 95 41 4c
        E 97 85 43 28
        E 1133 95 40 3d
        E 145 85 41 33
        E 5 85 32 20
        E 67 85 2b 20
        E 170 95 3e 3d
        E 56 85 40 40
        E 718 95 3c 45
        E 13 95 29 48
        E 9 95 30 40
        E 124 85 3e 2e
        E 1086 95 3b 38
        E 162 85 29 18
        E 4 85 3c 2a
        E 191 85 30 13
        E 46 95 39 41
        E 111 85 3b 30
        E 678 95 30 3b
        E 11 95 29 53
        E 35 95 37 3c
        E 113 85 39 40
        E 1374 85 29 1b
        E 89 85 30 11
        E 823 95 28 4e
        E 15 95 2f 34
        E 912 85 28 21
        E 126 85 2f 30
        E 383 95 30 25
        E 31 95 29 35
        E 346 85 29 3d
        E 48 85 30 47
        E 401 95 28 38
        E 8 95 2f 31
        E 1427 85 28 27
        E 13 95 35 40
        E 69 85 2f 23
        E 98 85 37 34
        E 626 95 26 4c
        E 4 95 2d 3a
        E 54 95 34 41
        E 14 85 35 46
        E 1276 85 34 14
        E 197 95 32 45
        E 374 85 32 27
        E 448 95 30 4a
        E 976 85 30 33
        E 477 95 34 1a
        E 302 85 34 33
        E 31 85 26 30
        E 35 85 2d 28
        E 430 95 24 2b
        E 56 95 2b 1a
        E 9 95 37 40
        E 1538 95 35 46
        E 103 85 24 30
        E 30 85 37 30
        E 120 85 2b 27
        E 492 95 34 44
        E 9 95 26 4e
        E 3 95 2d 32
        E 20 85 35 4d
        E 1402 85 26 21
        E 23 95 37 36
        E 140 85 2d 28
        E 110 85 34 28
        E 565 95 39 46
        E 15 95 2f 21
        E 12 95 28 4b
        E 80 85 37 4b
        E 1374 95 3b 43
        E 140 85 39 24
        E 52 85 28 40
        E 84 85 2f 2d
        E 531 95 29 43
        E 7 95 30 38
        E 59 95 39 4f
        E 107 85 3b 45
        E 1947 85 29 29
        E 10 85 39 39
        E 9 85 30 20
        E 416 95 39 55
        E 2 95 29 58
        E 14 95 30 4a
        E 1450 95 37 40
        E 79 85 39 27
        E 73 85 29 27
        E 12 85 30 29
        E 603 95 30 20
        E 22 95 29 47
        E 71 95 39 53
        E 57 85 37 44
        E 1443 95 3b 40
        E 143 85 39 33
        E 49 85 29 35
        E 137 85 30 27
        E 524 95 30 29
        E 21 95 3c 5d
        E 18 95 29 4f
        E 46 85 3b 47
        E 1384 85 29 21
        E 23 95 3b 4f
        E 130 85 3c 5c
        E 95 85 30 29
        E 618 95 32 20
        E 11 95 2b 4a
        E 8 95 39 43
        E 15 95 29 44
        E 58 85 3b 46
        E 139 85 29 4d
        E 1099 85 39 48
        E 43 95 3b 33
        E 354 95 3c 42
        E 40 85 3b 32
        E 479 85 2b 27
        E 135 85 32 20
        E 215 95 3e 53
        E 16 95 2b 50
        E 0 95 32 3a
        E 11 85 3c 44
        E 1257 95 3c 3d
        E 50 85 3e 41
        E 333 95 3e 43
        E 93 85 3c 3c
        E 122 85 32 26
        E 15 85 2b 2f
        E 523 95 32 42
        E 8 95 2b 56
        E 3 95 40 4f
        E 135 85 3e 33
        E 1185 95 3e 47
        E 84 85 40 44
        E 278 95 3c 36
        E 65 85 2b 01
        E 57 85 3e 3f
        E 87 85 32 01
        E 610 95 40 67
        E 15 95 32 3c
        E 8 95 2b 5c
        E 43 85 3c 49
        E 1159 95 3e 3d
        E 40 85 32 29
        E 82 85 40 3a
        E 87 85 2b 01
        E 177 95 3c 3e
        E 128 85 3e 31
        E 725 95 41 53
        E 3 95 43 59
        E 5 95 2b 58
        E 10 95 32 01
        E 12 85 3c 44
        E 441 85 41 4a
        E 912 85 2b 17
        E 46 85 32 14
        E 865 95 32 21
        E 61 95 2b 47
        E 31 95 29 37
        E 245 85 29 3b
        E 372 95 41 4e
        E 182 85 43 43
        E 1375 95 40 4d
        E 78 85 41 44
        E 86 85 2b 2a
        E 168 85 32 21
        E 484 95 2b 5c
        E 4 95 32 39
        E 8 95 3e 4e
        E 27 95 34 37
        E 71 85 40 21
        E 227 85 34 49
        E 904 95 3c 36
        E 77 85 3e 40
        E 60 85 32 1d
        E 51 85 2b 1b
        E 317 95 3b 57
        E 125 85 3c 39
        E 608 95 29 50
        E 22 95 30 32
        E 51 85 3b 50
        E 5 95 39 55
        E 2137 85 29 22
        E 51 85 30 15
        E 22 85 39 21
        E 344 95 30 58
        E 0 95 39 61
        E 27 95 29 60
        E 1229 85 39 48
        E 24 95 37 3d
        E 441 95 39 48
        E 103 85 37 2e
        E 326 85 29 23
        E 34 85 30 21
        E 166 85 39 3e
        E 218 95 37 67
        E 2 95 29 56
        E 1 95 30 4f
        E 2400 95 35 6b
        E 136 85 37 55
        E 114 85 29 32
        E 326 85 30 01
        E 668 95 34 3d
        E 34 85 35 2c
        E 378 95 35 51
        E 111 85 34 31
        E 517 95 28 59
        E 29 95 2f 45
        E 63 95 37 53
        E 132 85 35 45
        E 2063 95 39 3e
        E 8 85 37 59
        E 2154 95 3c 48
        E 52 85 39 4c
        E 2079 95 3e 44
        E 129 85 3c 3e
        E 220 85 28 38
        E 185 85 2f 27
        E 1541 95 3c 01
        E 91 85 3c 2f
        E 0 95 40 59
        E 8 95 30 40
        E 20 95 29 54
        E 59 85 3e 49
        E 1098 95 3e 48
        E 154 85 40 43
        E 247 95 3c 29
        E 120 85 3e 3e
        E 195 85 29 25
        E 136 85 30 18
        E 352 95 40 55
        E 16 95 30 3c
        E 21 95 29 60
        E 9 85 3c 4f
        E 1215 95 3c 45
        E 101 85 40 4b
        E 175 85 29 1c
        E 66 85 30 22
        E 90 95 3e 3d
        E 186 85 3c 2a
        E 543 95 40 54
        E 36 95 29 58
        E 1 95 30 38
        E 56 85 3e 3c
        E 1013 95 3e 42
        E 287 85 40 01
        E 155 95 3c 39
        E 63 85 3e 3e
        E 22 85 29 1a
        E 9 85 30 21
        E 616 95 40 55
        E 39 95 29 59
        E 11 95 30 2d
        E 14 85 3c 47
        E 1112 95 3c 47
        E 102 85 40 48
        E 240 95 3e 35
        E 145 85 3c 27
        E 139 85 29 27
        E 44 85 30 21
        E 490 95 30 39
        E 25 95 40 48
        E 5 95 29 54
        E 61 85 3e 20
        E 1006 95 3e 3d
        E 163 85 40 3c
        E 314 95 3c 41
        E 78 85 3e 43
        E 16 85 29 1f
        E 98 85 30 18
        E 503 95 29 4f
        E 18 95 30 29
        E 12 95 40 3f
        E 74 85 3c 49
        E 1025 95 3c 3e
        E 135 85 40 40
        E 278 95 3e 45
        E 147 85 29 23
        E 25 85 30 27
        E 10 85 3c 2e
        E 573 95 30 37
        E 3 95 3c 2e
        E 33 95 29 3d
        E 59 95 3b 61
        E 9 85 3e 35
        E 13 85 3c 21
        E 1362 85 29 01
        E 116 85 30 25
        E 721 95 30 34
        E 11 95 39 43
        E 15 85 3b 50
        E 5 95 2d 47
        E 2301 85 2d 3f
        E 6 95 37 4f
        E 30 95 2b 3a
        E 88 85 39 49
        E 5519 95 35 66
        E 63 85 37 50
        E 866 85 35 3c
        E 14 95 34 34
        E 388 95 35 31
        E 166 85 34 29
        E 173 95 37 46
        E 87 85 35 3c
        E 270 95 35 38
        E 133 85 37 2f
        E 217 95 34 3b
        E 60 85 35 40
        E 1242 85 30 19
        E 95 85 2b 1b
        E 209 95 2f 44
        E 18 95 32 44
        E 15 95 29 44
        E 21 95 28 40
        E 125 85 34 43
        E 74 85 28 39
        E 5876 85 2f 2d
        E 33 85 29 1e
        E 919 95 24 30
        E 2625 95 3b 2e
        E 12 85 32 34
        E 15 95 2f 45
        E 27 95 29 4a
        E 16 85 24 47
        E 1781 85 2f 1a
        E 194 85 29 20
        E 552 95 2f 47
        E 13 95 2b 56
        E 41 95 39 4f
        E 93 85 3b 52
        E 1604 85 2f 01
        E 103 85 2b 01
        E 74 95 2f 31
        E 23 85 39 43
        E 8 95 29 48
        E 6 95 3b 4b
        E 1070 85 2f 28
        E 40 85 29 2c
        E 62 85 3b 26
        E 215 95 2f 3e
        E 15 95 2b 45
        E 9 95 3b 49
        E 3433 85 2f 2d
        E 3 85 2b 2d
        E 56 85 3b 36
        E 214 95 2f 3f
        E 29 95 39 4b
        E 7 95 29 4a
        E 276 85 2f 3c
        E 7 85 39 3d
        E 63 85 29 2c
        E 168 95 2f 3d
        E 34 95 3b 3d
        E 1 95 2b 41
        E 278 85 2f 36
        E 42 85 2b 33
        E 28 85 3b 28
        E 219 95 2f 41
        E 17 95 29 40
        E 19 95 3c 3f
        E 1164 85 2f 2b
        E 43 85 29 38
        E 5 85 3c 3a
        E 250 95 2f 37
        E 13 95 2b 3f
        E 33 95 3b 41
        E 263 85 2b 3f
        E 11 85 2f 35
        E 78 85 3b 2c
        E 164 95 2f 40
        E 3 95 2b 35
        E 9 95 3c 47
        E 296 85 3c 3e
        E 6 85 2b 3e
        E 6 85 2f 32
        E 868 95 3e 49
        E 27 95 2f 3c
        E 16 95 2b 3d
        E 2127 85 3e 20
        E 785 95 43 2f
        E 433 85 2f 11
        E 27 85 2b 1e
        E 1454 95 2f 32
        E 5 95 26 4e
        E 37 95 41 43
        E 127 85 43 3d
        E 2645 85 2f 38
        E 929 95 2d 40
        E 2699 85 2d 26
        E 877 85 26 22
        E 30 95 2b 38
        E 39 95 2f 4a
        E 42 95 40 47
        E 75 85 41 46
        E 8092 85 2b 21
        E 157 85 2f 21
        E 4394 95 2d 28
        E 18 95 3e 48
        E 28 95 32 2c
        E 63 85 40 31
        E 5595 85 32 01
        E 1389 95 30 3c
        E 18 95 3c 3b
        E 30 95 2b 48
        E 9 85 3e 43
        E 5 85 2d 3c
        E 15824 85 3c 40
        E 89 85 2b 43
        E 59 85 30 3c
        E 3189 b0 7b 00
        CCINTERP 32
        CHASE_CC_TAKEOFFS 1
        GUID {8668A3ED-0B88-4963-B0EF-B2E7A97E5C12}
        IGNTEMPO 0 120 4 4
        SRCCOLOR 367
        VELLANE -1 100 0
        CFGEDITVIEW 43733.31638 0.017336 49 12 0 -1 0 0 0 0.5
        KEYSNAP 0
        TRACKSEL 0
        EVTFILTER 0 -1 -1 -1 -1 0 0 0 0 -1 -1 -1 -1 0 -1 0 -1 -1
        CFGEDIT 1 1 0 1 0 0 1 1 1 1 1 0.125 74 384 1106 1073 0 0 0 0 0 0 0 0 0 0.5 0 0 1 64
      >
    >
  >
  <TRACK {415CFC5B-2FE1-4670-BCD9-4435E4321CA3}
    NAME ""
    PEAKCOL 16576
    BEAT -1
    AUTOMODE 0
    VOLPAN 1 0 -1 -1 1
    MUTESOLO 0 0 0
    IPHASE 0
    PLAYOFFS 0 1
    ISBUS 0 0
    BUSCOMP 0 0 0 0 0
    SHOWINMIX 1 0.6667 0.5 1 0.5 0 -1 0
    SEL 0
    REC 0 0 1 0 0 0 0 0
    VU 2
    TRACKHEIGHT 0 0 0 0 0 0
    INQ 0 0 0 0.5 100 0 0 100
    NCHAN 2
    FX 1
    TRACKID {415CFC5B-2FE1-4670-BCD9-4435E4321CA3}
    PERF 0
    MIDIOUT -1
    MAINSEND 1 0
    <ITEM
      POSITION 0
      SNAPOFFS 0
      LENGTH 673.960625
      LOOP 1
      ALLTAKES 0
      FADEIN 1 0 0 1 0 0 0
      FADEOUT 1 0 0 1 0 0 0
      MUTE 0 0
      SEL 0
      IGUID {7CF0141B-BF03-4886-AAEB-6E9A658A98D8}
      IID 4
      NAME "01-Originals - Felt Piano-Recorded MIDI"
      VOLPAN 1 0 1 -1
      SOFFS 0 0
      PLAYRATE 1 1 0 -1 0 0.0025
      CHANMODE 0
      GUID {60271F66-127B-4F32-89D6-C9D0C1E94B06}
      RECPASS 4
      <SOURCE MIDI
        HASDATA 1 960 QN
        CCINTERP 32
        POOLEDEVTS {12CDBDA5-6C4A-40D7-A59E-3E5828492DC3}
        E 7615 95 3c 40
        E 2892 95 41 46
        E 142 85 3c 2c
        E 408 95 43 3c
        E 108 85 41 29
        E 438 95 48 51
        E 58 85 43 39
        E 2672 95 43 4d
        E 82 85 48 50
        E 890 95 45 56
        E 88 85 43 1f
        E 2746 95 43 5c
        E 59 85 45 37
        E 753 95 41 4c
        E 85 85 43 43
        E 109 95 40 4f
        E 59 85 41 53
        E 2799 95 3e 45
        E 115 85 40 35
        E 391 95 3c 3d
        E 90 85 3e 3e
        E 470 95 39 43
        E 91 85 3c 2e
        E 2659 95 3c 2f
        E 29 85 39 3b
        E 942 95 3b 48
        E 21 85 3c 4b
        E 2775 95 3c 40
        E 59 85 3b 43
        E 987 95 3e 30
        E 83 85 3c 3b
        E 7098 85 3e 1e
        E 455 95 40 40
        E 2926 95 43 2f
        E 146 85 40 22
        E 303 95 45 34
        E 143 85 43 27
        E 447 95 4a 53
        E 25 85 45 4e
        E 1938 95 4c 3d
        E 57 85 4a 79
        E 943 95 4f 4c
        E 37 85 4c 48
        E 876 95 4d 45
        E 96 85 4f 36
        E 1929 95 4c 4b
        E 70 85 4d 49
        E 1852 95 4a 4c
        E 69 85 4c 51
        E 2567 95 45 43
        E 38 85 4a 43
        E 495 95 47 45
        E 102 85 45 2e
        E 436 95 48 4d
        E 63 85 47 45
        E 1851 95 47 45
        E 76 85 48 36
        E 911 95 48 3f
        E 90 85 47 43
        E 881 95 4a 4f
        E 101 85 48 3d
        E 1817 95 45 37
        E 93 85 4a 49
        E 884 95 43 46
        E 35 85 45 4a
        E 1050 95 41 45
        E 103 85 43 2f
        E 1829 95 40 48
        E 75 85 41 46
        E 1935 95 3e 3f
        E 55 85 40 4c
        E 2387 85 3e 2a
        E 313 95 3e 4d
        E 1036 95 39 4c
        E 131 85 3e 35
        E 4425 95 37 39
        E 82 85 39 39
        E 835 95 35 30
        E 68 85 37 41
        E 1979 95 34 3c
        E 107 85 35 3e
        E 2489 95 35 37
        E 60 85 34 43
        E 421 95 34 30
        E 167 85 35 28
        E 331 95 32 1f
        E 54 85 34 2b
        E 2815 95 30 3c
        E 76 85 32 23
        E 437 95 32 39
        E 74 85 30 47
        E 403 95 34 3b
        E 99 85 32 33
        E 2656 95 35 40
        E 90 85 34 28
        E 966 95 37 4c
        E 108 85 35 34
        E 2895 95 39 30
        E 26 85 37 33
        E 508 95 3b 4a
        E 102 85 39 21
        E 461 95 3c 43
        E 66 85 3b 42
        E 2681 95 43 3d
        E 88 85 3c 40
        E 733 95 41 4f
        E 73 85 43 6b
        E 182 95 40 51
        E 68 85 41 54
        E 1889 95 3e 40
        E 81 85 40 53
        E 1925 95 3c 45
        E 20 85 3e 56
        E 2582 95 3e 46
        E 45 85 3c 3c
        E 957 95 3c 40
        E 22 85 3e 4b
        E 1935 95 39 28
        E 113 85 3c 3e
        E 1934 95 3b 4c
        E 114 85 39 37
        E 2565 95 3e 48
        E 99 85 3b 22
        E 920 95 39 33
        E 42 85 3e 46
        E 2760 95 37 24
        E 14 85 39 36
        E 475 95 39 40
        E 96 85 37 26
        E 453 95 3b 43
        E 72 85 39 41
        E 2738 95 40 47
        E 27 85 3b 39
        E 1033 95 3e 49
        E 80 85 40 4b
        E 1914 95 43 4f
        E 24 85 3e 3e
        E 1961 95 45 32
        E 11 85 43 7d
        E 2596 95 48 43
        E 28 85 45 40
        E 930 95 43 3c
        E 97 85 48 36
        E 3803 85 43 4d
        E 46 95 41 47
        E 1999 95 40 39
        E 28 85 41 47
        E 1954 95 3e 32
        E 142 85 40 35
        E 1750 95 3c 31
        E 15 85 3e 46
        E 1938 95 40 3d
        E 110 85 3c 2d
        E 2559 95 3e 40
        E 113 85 40 2e
        E 389 95 3c 40
        E 35 85 3e 38
        E 536 95 3b 48
        E 86 85 3c 3c
        E 2874 95 37 40
        E 64 85 3b 3a
        E 412 95 39 23
        E 104 85 37 1e
        E 505 95 3b 4a
        E 44 85 39 42
        E 2648 85 3b 31
        E 9 95 39 21
        E 389 95 3b 43
        E 150 85 39 21
        E 493 95 3c 46
        E 151 85 3b 2c
        E 1766 95 40 4d
        E 76 85 3c 45
        E 1793 95 3e 3e
        E 98 85 40 46
        E 2632 95 40 43
        E 57 85 3e 36
        E 672 95 3e 3f
        E 107 85 40 42
        E 147 95 3c 44
        E 63 85 3e 46
        E 3883 95 37 38
        E 70 85 3c 4d
        E 2820 95 3c 40
        E 32 85 37 40
        E 939 95 37 42
        E 28 85 3c 4a
        E 1878 95 35 3f
        E 92 85 37 3d
        E 1879 95 32 35
        E 94 85 35 30
        E 4385 85 32 36
        E 178 95 32 3c
        E 973 95 35 39
        E 93 85 32 42
        E 792 95 37 45
        E 68 85 35 2c
        E 968 95 35 3d
        E 110 85 37 44
        E 1821 95 34 2e
        E 59 85 35 3a
        E 1835 95 39 47
        E 44 85 34 4d
        E 1981 95 3e 4d
        E 21 85 39 53
        E 1879 95 3c 42
        E 935 85 3e 01
        E 851 95 3b 38
        E 64 85 3c 54
        E 1836 95 3c 31
        E 106 85 3b 30
        E 3851 95 48 4c
        E 72 85 3c 46
        E 2764 95 45 45
        E 95 85 48 4b
        E 391 95 43 3f
        E 153 85 45 32
        E 389 95 41 37
        E 46 85 43 41
        E 2768 95 43 4a
        E 90 85 41 33
        E 889 95 48 47
        E 68 85 43 4a
        E 2769 95 43 4c
        E 159 85 48 44
        E 581 95 41 41
        E 27 85 43 4f
        E 257 95 40 44
        E 53 85 41 45
        E 1802 95 3e 48
        E 3 85 40 53
        E 988 95 3c 47
        E 80 85 3e 29
        E 920 95 40 4d
        E 34 85 3c 48
        E 2895 85 40 56
        E 0 95 43 40
        E 696 95 45 4f
        E 82 85 43 3d
        E 164 95 48 49
        E 145 85 45 2c
        E 1790 95 4a 4a
        E 32 85 48 43
        E 916 85 4a 7b
        E 7 95 4c 4a
        E 1000 95 4f 45
        E 21 85 4c 57
        E 2475 95 4d 41
        E 132 85 4f 24
        E 699 95 4c 47
        E 79 85 4d 48
        E 184 95 4a 40
        E 76 85 4c 4a
        E 3878 95 48 48
        E 34 85 4a 4e
        E 3235 85 48 30
        E 503 95 48 52
        E 1985 95 45 43
        E 61 85 48 4c
        E 1916 95 48 54
        E 99 85 45 2c
        E 1827 95 4c 4e
        E 52 85 48 54
        E 1934 95 4a 4c
        E 47 85 4c 51
        E 2683 95 48 3d
        E 144 85 4a 30
        E 376 95 47 40
        E 91 85 48 3f
        E 468 95 45 46
        E 116 85 47 4a
        E 1708 95 43 49
        E 102 85 45 4d
        E 840 95 41 3f
        E 61 85 43 4c
        E 967 95 47 52
        E 63 85 41 4c
        E 1840 95 48 48
        E 95 85 47 4b
        E 810 95 45 48
        E 126 85 48 4a
        E 1007 95 4a 55
        E 19 85 45 52
        E 1883 95 48 57
        E 114 85 4a 3d
        E 1278 95 47 45
        E 72 85 48 4e
        E 446 95 48 38
        E 131 85 47 25
        E 2721 95 47 4b
        E 97 85 48 46
        E 860 95 45 43
        E 95 85 47 45
        E 1745 95 41 31
        E 55 85 45 42
        E 1901 95 43 33
        E 93 85 41 2a
        E 1800 95 40 35
        E 121 85 43 2b
        E 1816 95 41 42
        E 86 85 40 42
        E 1839 95 3e 47
        E 37 85 41 48
        E 1491 95 40 42
        E 112 85 3e 2a
        E 309 95 41 35
        E 68 85 40 4b
        E 2652 95 43 48
        E 84 85 41 38
        E 413 95 41 3b
        E 62 85 43 4f
        E 480 95 45 53
        E 47 85 41 43
        E 1917 95 43 4f
        E 113 85 45 3f
        E 723 95 41 28
        E 74 85 43 3b
        E 939 95 48 53
        E 55 85 41 44
        E 2805 95 4a 26
        E 88 85 48 79
        E 689 95 4c 66
        E 101 85 4a 30
        E 291 95 4a 2a
        E 121 85 4c 30
        E 1626 95 4f 3d
        E 63 85 4a 49
        E 1225 95 4d 2b
        E 159 85 4f 26
        E 361 95 4c 33
        E 79 85 4d 4a
        E 6425 85 4c 20
        E 376 95 4c 43
        E 984 95 4a 4a
        E 93 85 4c 43
        E 1987 85 4a 3a
        E 695 95 4a 3b
        E 979 95 47 3d
        E 53 85 4a 38
        E 2353 85 47 28
        E 463 95 47 40
        E 1017 95 45 4a
        E 90 85 47 32
        E 1824 95 43 45
        E 5 85 45 4b
        E 1600 95 41 2e
        E 99 85 43 3d
        E 453 95 40 3b
        E 117 85 41 30
        E 2475 95 3e 4c
        E 70 85 40 48
        E 409 95 3c 3d
        E 110 85 3e 2a
        E 433 95 3b 41
        E 130 85 3c 31
        E 1665 95 39 31
        E 41 85 3b 49
        E 982 95 3c 51
        E 93 85 39 3e
        E 851 95 3e 4a
        E 35 85 3c 4d
        E 1890 95 39 37
        E 21 85 3e 50
        E 938 95 3e 40
        E 65 85 39 38
        E 876 95 43 19
        E 95 85 3e 46
        E 1977 95 41 4f
        E 98 85 43 3f
        E 1821 85 41 4b
        E 138 95 41 47
        E 6792 85 41 22
        E 556 95 45 43
        E 281 85 45 2b
        E 625 95 45 4c
        E 205 85 45 35
        E 706 95 45 49
        E 202 85 45 24
        E 706 95 45 45
        E 457 95 43 2d
        E 44 85 45 33
        E 474 95 40 40
        E 25 85 43 32
        E 4140 95 43 47
        E 46 85 40 41
        E 191 85 43 2a
        E 666 95 43 40
        E 265 85 43 21
        E 631 95 43 43
        E 254 85 43 2d
        E 678 95 43 43
        E 505 95 41 2f
        E 63 85 43 2f
        E 705 95 40 20
        E 21 85 41 26
        E 1740 95 3c 3d
        E 158 85 40 23
        E 1279 85 3c 35
        E 410 95 3e 4e
        E 364 85 3e 20
        E 571 95 3e 3e
        E 355 85 3e 32
        E 596 95 3e 45
        E 275 85 3e 3d
        E 676 95 3c 46
        E 352 95 3e 3d
        E 169 85 3c 20
        E 461 95 40 51
        E 69 85 3e 22
        E 142 85 40 47
        E 700 95 40 1f
        E 222 85 40 47
        E 701 95 40 43
        E 240 85 40 3f
        E 730 95 3e 32
        E 395 95 40 3c
        E 174 85 3e 1c
        E 355 95 41 53
        E 110 85 40 33
        E 174 85 41 41
        E 660 95 43 43
        E 309 85 43 34
        E 649 95 41 53
        E 327 85 41 2c
        E 667 95 48 56
        E 473 85 48 24
        E 503 95 47 4c
        E 1318 85 47 27
        E 674 95 48 3d
        E 5726 95 34 55
        E 152 85 48 36
        E 3675 95 35 48
        E 97 85 34 4b
        E 3839 95 37 4c
        E 34 85 35 47
        E 1913 95 39 47
        E 57 85 37 73
        E 1469 95 3b 42
        E 112 85 39 4a
        E 441 95 3c 37
        E 113 85 3b 38
        E 2445 95 3b 33
        E 80 85 3c 34
        E 445 95 3c 3d
        E 47 85 3b 3e
        E 483 95 3e 4a
        E 29 85 3c 58
        E 1953 95 3c 48
        E 54 85 3e 46
        E 906 95 3e 3d
        E 69 85 3c 3b
        E 883 95 40 48
        E 106 85 3e 39
        E 1930 95 3e 4d
        E 4 85 40 59
        E 981 95 40 3a
        E 21 85 3e 48
        E 997 95 45 4c
        E 73 85 40 3f
        E 1818 95 43 4c
        E 38 85 45 4c
        E 1396 95 41 38
        E 30 85 43 45
        E 407 95 43 3f
        E 82 85 41 27
        E 3513 85 43 08
        E 188 95 45 51
        E 1949 95 43 49
        E 112 85 45 30
        E 1281 95 45 31
        E 152 85 43 26
        E 353 95 47 48
        E 102 85 45 34
        E 3738 95 48 4f
        E 30 85 47 46
        E 1679 95 47 4a
        E 129 85 48 40
        E 1201 95 45 3e
        E 91 85 47 29
        E 1945 95 48 59
        E 62 85 45 50
        E 9993 95 40 40
        E 73 85 48 4f
        E 402 85 40 09
        E 2487 95 40 37
        E 457 95 43 43
        E 65 85 40 23
        E 462 95 3e 35
        E 41 85 43 30
        E 724 85 3e 01
        E 3116 95 3c 31
        E 760 85 3c 1a
        E 2148 95 3c 36
        E 486 95 41 3f
        E 49 85 3c 24
        E 428 95 3e 2f
        E 25 85 41 2c
        E 1148 85 3e 1b
        E 654 95 39 32
        E 1090 85 39 2c
        E 825 95 3b 23
        E 939 85 3b 01
        E 1914 95 3b 35
        E 420 95 3c 24
        E 157 85 3b 20
        E 474 95 3e 45
        E 26 85 3c 48
        E 1799 95 3c 43
        E 75 85 3e 2f
        E 960 95 3e 34
        E 84 85 3c 30
        E 893 95 43 31
        E 51 85 3e 32
        E 1970 95 41 48
        E 132 85 43 32
        E 1924 95 40 44
        E 75 85 41 40
        E 2622 95 3e 43
        E 153 85 40 27
        E 830 95 3c 1a
        E 77 85 3e 4a
        E 2661 95 3e 3b
        E 23 85 3c 50
        E 488 95 3c 44
        E 52 85 3e 3b
        E 305 95 3b 30
        E 147 85 3c 28
        E 2757 95 3c 4a
        E 116 85 3b 21
        E 879 95 3b 3e
        E 86 85 3c 4a
        E 3862 95 39 40
        E 92 85 3b 2c
        E 2860 95 37 46
        E 50 85 39 4c
        E 389 95 39 26
        E 129 85 37 28
        E 450 95 3b 4b
        E 74 85 39 47
        E 1782 95 3c 4c
        E 4 85 3b 5c
        E 973 95 3e 38
        E 21 85 3c 49
        E 1034 95 40 3a
        E 50 85 3e 4c
        E 2491 95 41 4e
        E 93 85 40 2a
        E 847 95 43 50
        E 87 85 41 3d
        E 2031 95 41 53
        E 396 85 43 01
        E 1197 95 40 35
        E 101 85 41 46
        E 440 95 3e 45
        E 128 85 40 26
        E 2894 85 3e 4a
        E 667 95 3c 51
        E 3029 85 3c 2d
        E 595 95 3c 4a
        E 1998 95 3b 40
        E 32 85 3c 4d
        E 1985 95 3c 47
        E 65 85 3b 3d
        E 1940 95 39 38
        E 78 85 3c 32
        E 1873 95 40 3d
        E 105 85 39 2e
        E 3660 95 41 3e
        E 32 85 40 36
        E 1676 95 40 3c
        E 59 85 41 3d
        E 869 95 41 3f
        E 76 85 40 37
        E 433 95 43 41
        E 145 85 41 22
        E 368 95 45 43
        E 74 85 43 28
        E 1894 95 43 4a
        E 183 85 45 21
        E 763 95 41 48
        E 61 85 43 4c
        E 880 95 40 38
        E 83 85 41 30
        E 2607 95 41 46
        E 96 85 40 30
        E 414 95 40 40
        E 138 85 41 37
        E 368 95 3e 41
        E 68 85 40 33
        E 3951 95 3b 3b
        E 57 85 3e 48
        E 2887 95 39 3d
        E 181 85 3b 28
        E 4530 95 37 41
        E 31 85 39 4b
        E 1824 95 3b 3e
        E 130 85 37 30
        E 1947 95 35 31
        E 62 85 3b 46
        E 2799 95 37 46
        E 137 85 35 31
        E 327 95 35 34
        E 230 85 37 2b
        E 324 95 34 39
        E 52 85 35 43
        E 1810 95 35 43
        E 95 85 34 31
        E 810 95 34 21
        E 111 85 35 4c
        E 910 95 32 43
        E 99 85 34 43
        E 2956 95 30 3b
        E 47 85 32 28
        E 299 95 32 36
        E 79 85 30 20
        E 491 95 34 4a
        E 76 85 32 30
        E 1912 95 32 36
        E 98 85 34 3c
        E 4186 95 30 41
        E 90 85 32 48
        E 4141 95 2f 3a
        E 112 85 30 31
        E 3810 95 30 47
        E 74 85 2f 3e
        E 3468 85 30 25
        E 245 95 30 0e
        E 1878 95 35 20
        E 74 85 30 25
        E 4338 95 30 37
        E 177 85 35 2b
        E 7960 95 4f 2c
        E 2552 95 4d 23
        E 90 85 30 01
        E 5 85 4f 38
        E 867 95 4c 36
        E 52 85 4d 3f
        E 3651 85 4c 19
        E 218 95 4d 41
        E 2937 95 4c 4c
        E 106 85 4d 30
        E 800 95 4a 48
        E 96 85 4c 44
        E 2623 85 4a 1e
        E 165 95 47 3e
        E 816 85 47 28
        E 198 95 4a 45
        E 1246 85 4a 20
        E 638 95 48 3a
        E 906 85 48 29
        E 377 95 4a 4e
        E 274 85 4a 34
        E 261 95 4c 43
        E 2996 95 4f 3f
        E 106 85 4c 2c
        E 406 95 4d 47
        E 118 85 4f 2a
        E 376 95 4c 39
        E 86 85 4d 3c
        E 2442 85 4c 13
        E 422 95 4c 48
        E 426 95 4a 40
        E 92 85 4c 3f
        E 412 95 4c 37
        E 102 85 4a 36
        E 1777 95 48 28
        E 15 85 4c 3a
        E 865 95 47 53
        E 115 85 48 3b
        E 836 95 45 40
        E 103 85 47 32
        E 1270 95 47 48
        E 66 85 45 35
        E 341 95 45 34
        E 179 85 47 2c
        E 692 95 47 46
        E 66 85 45 34
        E 844 95 48 4a
        E 120 85 47 30
        E 1328 95 47 3d
        E 60 85 48 4a
        E 406 95 48 40
        E 279 85 47 0a
        E 563 95 4a 41
        E 94 85 48 34
        E 827 95 48 4a
        E 81 85 4a 3d
        E 844 95 4c 3f
        E 47 85 48 44
        E 792 95 4a 3e
        E 136 85 4c 2d
        E 795 85 4a 41
        E 16 95 4d 43
        E 834 95 4c 36
        E 131 85 4d 2b
        E 1754 95 4a 48
        E 69 85 4c 25
        E 866 95 48 36
        E 144 85 4a 2d
        E 300 95 47 22
        E 9 85 48 42
        E 492 95 45 3d
        E 94 85 47 27
        E 880 95 47 45
        E 116 85 45 1d
        E 815 95 41 2f
        E 67 85 47 43
        E 846 95 43 36
        E 36 85 41 44
        E 963 95 45 40
        E 82 85 43 29
        E 1894 95 43 46
        E 103 85 45 3a
        E 1289 95 41 3c
        E 180 85 43 37
        E 251 95 43 51
        E 116 85 41 3c
        E 2613 95 41 3e
        E 121 85 43 42
        E 604 95 40 3d
        E 50 85 41 44
        E 259 95 3e 5c
        E 90 85 40 40
        E 3788 95 3c 38
        E 100 85 3e 3c
        E 2839 95 3b 2e
        E 103 85 3c 37
        E 808 95 3e 40
        E 93 85 3b 32
        E 1812 95 3c 39
        E 86 85 3e 3a
        E 909 95 3e 3c
        E 82 85 3c 32
        E 987 95 40 49
        E 73 85 3e 22
        E 2026 95 43 46
        E 34 85 40 39
        E 1290 95 41 47
        E 119 85 43 39
        E 386 95 40 3d
        E 75 85 41 49
        E 2600 95 3e 43
        E 150 85 40 30
        E 336 95 3c 37
        E 61 85 3e 45
        E 466 95 3e 43
        E 112 85 3c 2c
        E 1731 95 3c 35
        E 49 85 3e 41
        E 841 95 3b 31
        E 350 85 3c 23
        E 628 95 39 36
        E 114 85 3b 3e
        E 1855 95 3b 46
        E 166 85 39 2a
        E 709 95 39 1f
        E 139 85 3b 34
        E 860 95 3e 33
        E 72 85 39 42
        E 842 95 3c 43
        E 105 85 3e 39
        E 832 95 3b 29
        E 118 85 3c 41
        E 1350 95 3c 46
        E 141 85 3b 36
        E 103 85 3c 37
        E 195 95 3c 45
        E 10580 95 37 26
        E 103 85 3c 50
        E 912 95 39 44
        E 105 85 37 3d
        E 931 95 35 37
        E 119 85 39 25
        E 955 95 39 38
        E 101 85 35 2a
        E 961 95 37 39
        E 79 85 39 35
        E 979 95 3e 44
        E 77 85 37 46
        E 990 95 39 42
        E 97 85 3e 3f
        E 977 95 37 36
        E 9 85 39 27
        E 1098 95 3e 43
        E 127 85 37 3f
        E 1006 95 39 3d
        E 95 85 3e 4f
        E 876 95 37 2b
        E 99 85 39 43
        E 982 95 3e 49
        E 128 85 37 35
        E 968 95 39 44
        E 99 85 3e 42
        E 894 95 37 35
        E 251 85 37 77
        E 881 95 40 4c
        E 63 85 39 46
        E 992 95 39 33
        E 18 85 40 40
        E 903 95 37 1d
        E 327 85 39 20
        E 695 95 41 3f
        E 117 85 37 40
        E 938 95 39 2a
        E 78 85 41 43
        E 930 95 37 01
        E 76 85 39 4f
        E 976 95 43 3e
        E 160 85 37 28
        E 787 95 39 1e
        E 97 85 43 37
        E 900 95 37 1d
        E 1034 95 41 41
        E 86 85 39 39
        E 52 85 37 3a
        E 863 95 39 2c
        E 214 85 41 1e
        E 823 95 37 36
        E 106 85 39 2c
        E 951 95 40 36
        E 109 85 37 32
        E 877 95 39 2a
        E 55 85 40 40
        E 974 95 37 3a
        E 84 85 39 2f
        E 940 95 3e 32
        E 121 85 37 2c
        E 848 95 39 21
        E 129 85 3e 2b
        E 793 95 37 2d
        E 43 85 39 39
        E 910 95 34 34
        E 123 85 37 36
        E 2702 95 35 43
        E 251 85 34 01
        E 789 95 32 22
        E 95 85 35 2d
        E 3116 85 32 27
        E 584 95 32 3f
        E 2766 95 34 40
        E 17 85 32 42
        E 920 95 2d 18
        E 56 85 34 51
        E 3949 95 2f 48
        E 105 85 2d 56
        E 2787 95 2d 23
        E 73 85 2f 50
        E 835 95 30 48
        E 134 85 2d 47
        E 2689 95 2d 36
        E 120 85 30 29
        E 358 95 30 3e
        E 86 85 2d 35
        E 372 95 34 43
        E 138 85 30 48
        E 1698 85 34 32
        E 41 95 32 2a
        E 930 95 37 3c
        E 114 85 32 26
        E 4621 95 41 4e
        E 335 85 37 2b
        E 1638 95 45 50
        E 50 85 41 3d
        E 1947 95 43 46
        E 40 85 45 44
        E 3776 95 40 21
        E 19 85 43 31
        E 1929 95 43 40
        E 99 85 40 36
        E 1823 95 41 40
        E 81 85 43 34
        E 3691 95 3e 3e
        E 117 85 41 30
        E 1856 95 41 49
        E 90 85 3e 33
        E 1842 95 40 4a
        E 50 85 41 4c
        E 853 95 3e 3f
        E 134 85 40 31
        E 741 95 3c 35
        E 74 85 3e 3c
        E 868 95 3b 25
        E 213 85 3c 26
        E 711 95 39 40
        E 79 85 3b 37
        E 1875 95 3b 4c
        E 44 85 39 50
        E 1534 95 3c 3d
        E 82 85 3b 1e
        E 117 85 3c 3c
        E 306 95 3c 3a
        E 9561 95 4a 32
        E 142 85 3c 30
        E 805 95 43 3b
        E 77 85 4a 34
        E 815 95 48 34
        E 110 85 43 2b
        E 881 95 43 43
        E 11 85 48 47
        E 1000 95 4a 2f
        E 32 85 43 30
        E 895 95 43 43
        E 96 85 4a 24
        E 853 95 48 3f
        E 122 85 43 32
        E 776 95 43 2b
        E 53 85 48 38
        E 1027 95 4d 3e
        E 46 85 43 39
        E 888 95 43 3f
        E 37 85 4d 2c
        E 935 95 4c 45
        E 84 85 43 39
        E 859 95 43 2c
        E 83 85 4c 29
        E 854 95 4d 34
        E 48 85 43 3d
        E 859 95 43 3e
        E 101 85 4d 30
        E 870 95 4c 3a
        E 60 85 43 31
        E 856 95 43 40
        E 35 85 4c 34
        E 892 95 4a 2d
        E 73 85 43 36
        E 855 95 43 32
        E 97 85 4a 33
        E 881 95 48 42
        E 82 85 43 3b
        E 847 95 43 3a
        E 58 85 48 41
        E 929 95 4a 3d
        E 51 85 43 27
        E 909 95 43 35
        E 65 85 4a 2c
        E 896 95 48 32
        E 151 85 43 31
        E 844 95 43 3c
        E 55 85 48 46
        E 1045 95 4d 40
        E 22 85 43 33
        E 907 95 43 2b
        E 122 85 4d 28
        E 864 95 4c 36
        E 95 85 43 3d
        E 893 95 43 38
        E 81 85 4c 36
        E 836 95 4d 33
        E 87 85 43 29
        E 844 95 43 3b
        E 66 85 4d 42
        E 910 95 4c 34
        E 138 85 43 22
        E 834 95 43 3b
        E 68 85 4c 40
        E 878 95 48 48
        E 67 85 43 52
        E 901 95 43 32
        E 136 85 48 31
        E 956 95 47 42
        E 55 85 43 44
        E 922 95 43 45
        E 1 85 47 4d
        E 955 95 48 48
        E 56 85 43 3c
        E 850 95 43 3c
        E 118 85 48 39
        E 798 95 47 3b
        E 73 85 43 46
        E 888 95 43 36
        E 51 85 47 3d
        E 851 95 45 4c
        E 31 85 43 33
        E 860 95 43 40
        E 64 85 45 33
        E 898 95 47 46
        E 90 85 43 43
        E 772 95 43 46
        E 65 85 47 48
        E 900 95 45 4f
        E 75 85 43 3f
        E 845 95 43 2d
        E 45 85 45 2a
        E 888 95 47 3e
        E 72 85 43 43
        E 831 95 43 30
        E 118 85 47 32
        E 850 95 45 43
        E 51 85 43 2f
        E 774 95 40 3d
        E 29 85 45 3b
        E 955 95 43 40
        E 93 85 40 1f
        E 765 95 40 40
        E 78 85 43 2b
        E 963 95 3e 1f
        E 55 85 40 30
        E 857 85 3e 38
        E 16 95 40 25
        E 983 95 43 38
        E 130 85 40 24
        E 855 85 43 42
        E 4 95 40 2e
        E 945 95 3c 28
        E 139 85 40 24
        E 785 95 40 2b
        E 88 85 3c 36
        E 791 95 43 3f
        E 79 85 40 47
        E 825 95 40 38
        E 13 85 43 44
        E 885 95 3b 23
        E 150 85 40 2f
        E 835 85 3b 53
        E 18 95 40 2c
        E 944 95 43 3f
        E 35 85 40 3b
        E 821 95 40 2c
        E 2 85 43 31
        E 855 95 3c 22
        E 107 85 40 33
        E 810 95 40 38
        E 22 85 3c 49
        E 928 95 43 38
        E 68 85 40 2a
        E 854 95 40 22
        E 29 85 43 35
        E 969 95 47 4c
        E 65 85 40 37
        E 798 95 40 37
        E 59 85 47 2b
        E 897 95 45 43
        E 108 85 40 35
        E 800 95 40 38
        E 15 85 45 48
        E 995 95 43 4a
        E 78 85 40 2b
        E 827 95 3e 2b
        E 36 85 43 33
        E 933 95 43 46
        E 97 85 3e 2b
        E 831 95 40 31
        E 4 85 43 32
        E 867 95 47 49
        E 108 85 40 33
        E 814 95 40 3c
        E 37 85 47 2c
        E 899 95 45 42
        E 94 85 40 30
        E 806 95 43 45
        E 83 85 45 4b
        E 783 95 40 34
        E 93 85 43 23
        E 833 95 47 44
        E 115 85 40 28
        E 720 95 45 19
        E 144 85 47 3b
        E 810 95 40 27
        E 76 85 45 31
        E 827 95 43 22
        E 122 85 40 35
        E 769 95 40 2e
        E 89 85 43 28
        E 868 95 47 42
        E 84 85 40 38
        E 708 95 40 2f
        E 116 85 47 26
        E 814 95 45 4c
        E 95 85 40 35
        E 803 95 43 40
        E 64 85 45 4a
        E 779 95 47 45
        E 84 85 43 2c
        E 816 95 40 32
        E 26 85 47 36
        E 888 95 45 1e
        E 99 85 40 2b
        E 792 95 43 45
        E 22 85 45 52
        E 854 95 45 47
        E 90 85 43 1a
        E 775 95 40 31
        E 4 85 45 3b
        E 903 95 47 46
        E 70 85 40 36
        E 786 95 43 36
        E 76 85 47 30
        E 863 95 3e 2b
        E 38 85 43 32
        E 882 95 43 31
        E 45 85 3e 28
        E 918 95 3e 30
        E 45 85 43 33
        E 832 95 43 31
        E 89 85 3e 2f
        E 817 95 3e 20
        E 42 85 43 36
        E 910 95 43 36
        E 73 85 3e 2c
        E 699 95 3e 22
        E 145 85 43 21
        E 871 95 43 2d
        E 84 85 3e 2b
        E 736 95 40 2f
        E 112 85 43 27
        E 755 95 43 3e
        E 146 85 40 2d
        E 762 95 40 36
        E 114 85 43 2a
        E 682 95 43 32
        E 124 85 40 2b
        E 762 95 40 36
        E 116 85 43 2a
        E 808 95 43 28
        E 101 85 40 2f
        E 734 95 40 28
        E 143 85 43 2a
        E 718 95 43 46
        E 100 85 40 3d
        E 693 95 3c 3e
        E 131 85 43 37
        E 717 95 43 40
        E 135 85 3c 30
        E 727 95 3e 32
        E 84 85 43 27
        E 722 95 43 42
        E 78 85 3e 34
        E 787 95 40 30
        E 137 85 43 2a
        E 747 95 43 26
        E 125 85 40 33
        E 768 95 3b 38
        E 98 85 43 45
        E 770 95 43 22
        E 140 85 3b 2e
        E 759 95 3c 38
        E 66 85 43 3c
        E 824 95 43 2e
        E 119 85 3c 38
        E 758 95 3c 2e
        E 82 85 43 2f
        E 783 95 43 33
        E 85 85 3c 35
        E 806 95 3c 31
        E 110 85 43 3d
        E 830 95 43 21
        E 32 85 3c 33
        E 761 95 3c 24
        E 128 85 43 2c
        E 752 95 43 2c
        E 326 85 3c 1d
        E 645 95 48 3f
        E 98 85 43 33
        E 672 95 43 38
        E 120 85 48 2d
        E 786 95 47 43
        E 89 85 43 26
        E 795 95 43 46
        E 51 85 47 39
        E 862 95 4a 2e
        E 52 85 43 3e
        E 776 95 43 2b
        E 123 85 4a 30
        E 893 95 48 42
        E 126 85 43 35
        E 742 95 43 33
        E 113 85 48 4f
        E 747 95 47 3b
        E 49 85 43 31
        E 805 95 43 32
        E 42 85 47 2e
        E 830 85 43 37
        E 2 95 4c 31
        E 833 95 43 33
        E 63 85 4c 27
        E 838 95 4a 45
        E 71 85 43 3d
        E 816 85 4a 39
        E 6 95 43 36
        E 828 95 48 3b
        E 48 85 43 33
        E 716 95 43 36
        E 68 85 48 38
        E 818 95 4f 40
        E 19 85 43 4f
        E 765 95 43 41
        E 129 85 4f 27
        E 758 95 4d 32
        E 32 85 43 4a
        E 835 95 43 3d
        E 17 85 4d 49
        E 812 95 4c 3e
        E 86 85 43 33
        E 776 95 43 42
        E 18 85 4c 48
        E 869 95 4a 3d
        E 57 85 43 2e
        E 749 95 43 41
        E 50 85 4a 34
        E 841 95 48 2d
        E 35 85 43 33
        E 758 95 43 2f
        E 81 85 48 38
        E 908 95 47 40
        E 95 85 43 31
        E 810 95 43 2f
        E 66 85 47 2e
        E 802 95 45 3d
        E 55 85 43 2c
        E 751 95 43 2f
        E 84 85 45 2c
        E 792 95 45 3b
        E 27 85 43 45
        E 881 95 43 45
        E 57 85 45 45
        E 780 95 4c 2f
        E 23 85 43 3d
        E 723 95 43 31
        E 159 85 4c 22
        E 692 95 4a 43
        E 85 85 43 41
        E 698 95 43 3b
        E 56 85 4a 3d
        E 771 95 48 49
        E 46 85 43 32
        E 719 95 43 2c
        E 75 85 48 31
        E 718 95 47 3d
        E 60 85 43 35
        E 727 95 43 3b
        E 54 85 47 2d
        E 722 95 4c 45
        E 91 85 43 44
        E 751 95 43 35
        E 98 85 4c 2f
        E 681 95 47 3a
        E 64 85 43 29
        E 644 95 43 3a
        E 127 85 47 2d
        E 703 95 48 33
        E 100 85 43 35
        E 657 95 43 33
        E 76 85 48 33
        E 765 95 47 20
        E 117 85 43 26
        E 567 95 43 36
        E 75 85 47 2f
        E 823 95 4d 42
        E 49 85 43 46
        E 692 95 43 33
        E 137 85 4d 27
        E 627 95 4a 43
        E 121 85 43 27
        E 708 95 43 3a
        E 53 85 4a 3b
        E 719 95 48 43
        E 72 85 43 30
        E 684 95 43 33
        E 253 85 48 2e
        E 579 95 4a 46
        E 96 85 43 44
        E 630 95 43 36
        E 100 85 4a 2a
        E 719 95 4c 31
        E 119 85 43 39
        E 367 95 43 27
        E 360 85 4c 47
        E 732 95 4a 2d
        E 45 95 48 26
        E 171 85 43 01
        E 144 85 48 19
        E 413 95 43 32
        E 128 85 4a 31
        E 753 95 48 0d
        E 53 85 43 39
        E 785 95 43 3e
        E 105 85 48 2f
        E 740 95 47 39
        E 69 85 43 35
        E 836 95 43 41
        E 22 85 47 45
        E 800 95 40 20
        E 148 85 43 2b
        E 673 95 43 31
        E 78 85 40 2f
        E 819 95 3e 2f
        E 110 85 43 32
        E 735 95 43 1c
        E 62 85 3e 43
        E 815 95 41 3d
        E 122 85 43 33
        E 758 95 43 2b
        E 32 85 41 46
        E 812 95 3e 36
        E 155 85 43 2c
        E 751 95 43 22
        E 33 85 3e 48
        E 777 95 40 31
        E 149 85 43 36
        E 838 95 43 38
        E 61 85 40 30
        E 697 95 3e 24
        E 130 85 43 2b
        E 771 95 43 2a
        E 34 85 3e 45
        E 767 95 40 2f
        E 160 85 43 4a
        E 700 95 43 3a
        E 45 85 40 42
        E 839 95 41 3d
        E 58 85 43 35
        E 713 95 43 40
        E 61 85 41 38
        E 777 95 3c 31
        E 37 85 43 39
        E 815 95 43 26
        E 72 85 3c 3f
        E 778 95 3c 2d
        E 41 85 43 3f
        E 767 95 43 2a
        E 97 85 3c 38
        E 682 95 3c 37
        E 114 85 43 2d
        E 790 95 43 33
        E 120 85 3c 2d
        E 795 95 3c 3b
        E 68 85 43 33
        E 717 95 43 31
        E 89 85 3c 40
        E 756 95 3b 40
        E 81 85 43 46
        E 731 95 43 3e
        E 122 85 3b 38
        E 707 95 3b 31
        E 142 85 43 32
        E 766 95 43 38
        E 153 85 3b 33
        E 656 95 3c 2a
        E 104 85 43 45
        E 693 95 43 39
        E 144 85 3c 36
        E 670 95 3c 33
        E 104 85 43 23
        E 670 95 43 40
        E 85 85 3c 41
        E 735 95 3b 3b
        E 166 85 43 38
        E 709 95 43 2e
        E 154 85 3b 38
        E 630 95 3b 20
        E 79 85 43 41
        E 817 95 43 3e
        E 224 85 3b 35
        E 594 95 3c 32
        E 103 85 43 3f
        E 704 95 43 38
        E 116 85 3c 2e
        E 710 95 3c 2b
        E 56 85 43 30
        E 702 95 43 39
        E 115 85 3c 34
        E 839 95 3e 40
        E 61 85 43 3a
        E 725 95 43 41
        E 182 85 3e 21
        E 668 95 3e 3d
        E 116 85 43 2d
        E 668 95 43 3d
        E 137 85 3e 2f
        E 687 95 40 2b
        E 145 85 43 3d
        E 612 95 43 43
        E 101 85 40 3d
        E 759 95 40 40
        E 48 85 43 33
        E 667 95 43 41
        E 106 85 40 34
        E 768 95 40 47
        E 7 85 43 41
        E 770 95 48 45
        E 171 85 40 2b
        E 617 95 40 32
        E 56 85 48 3e
        E 729 95 43 46
        E 121 85 40 3b
        E 612 95 40 34
        E 21 85 43 46
        E 761 95 48 44
        E 100 85 40 32
        E 673 95 40 3a
        E 132 85 48 2a
        E 544 95 43 2d
        E 55 85 40 3b
        E 729 95 40 3e
        E 34 85 43 34
        E 705 95 48 30
        E 109 85 40 26
        E 691 95 40 3f
        E 54 85 48 3e
        E 652 95 43 42
        E 101 85 40 2f
        E 657 95 41 34
        E 77 85 43 30
        E 671 95 48 3a
        E 73 85 41 2d
        E 630 95 41 2c
        E 115 85 48 29
        E 619 95 43 1b
        E 156 85 41 2f
        E 601 95 41 29
        E 181 85 43 21
        E 587 95 48 48
        E 78 85 41 3d
        E 720 95 41 32
        E 45 85 48 32
        E 628 95 43 3c
        E 65 85 41 2f
        E 668 95 41 31
        E 72 85 43 37
        E 704 95 4a 30
        E 64 85 41 44
        E 665 95 45 3c
        E 83 85 4a 38
        E 578 95 43 2a
        E 43 85 45 3d
        E 707 95 4a 3a
        E 129 85 43 30
        E 590 95 45 27
        E 74 85 4a 35
        E 615 95 43 32
        E 84 85 45 26
        E 652 95 4a 34
        E 160 85 43 30
        E 548 95 45 32
        E 105 85 4a 2a
        E 604 95 43 28
        E 186 85 45 01
        E 578 95 47 2e
        E 55 85 43 31
        E 658 95 45 36
        E 60 85 47 42
        E 787 95 43 33
        E 39 85 45 3a
        E 678 95 48 48
        E 56 85 43 2d
        E 656 95 45 40
        E 49 85 48 35
        E 642 95 43 2c
        E 14 85 45 2a
        E 685 95 4a 36
        E 112 85 43 37
        E 626 95 45 2f
        E 54 85 4a 2b
        E 671 95 43 26
        E 240 85 45 0f
        E 483 95 4c 44
        E 86 85 43 30
        E 666 95 45 21
        E 216 85 4c 1b
        E 396 95 43 24
        E 739 95 4a 48
        E 47 85 45 31
        E 17 85 43 31
        E 644 95 47 31
        E 86 85 4a 2c
        E 721 95 43 2d
        E 146 85 47 1c
        E 579 95 48 52
        E 74 85 43 34
        E 627 95 47 2c
        E 122 85 48 2a
        E 616 95 43 01
        E 82 85 47 27
        E 727 95 4c 30
        E 453 85 43 3e
        E 294 95 4a 38
        E 151 85 4c 34
        E 626 95 43 37
        E 39 85 4a 46
        E 717 95 4d 25
        E 153 85 43 43
        E 569 95 4c 3b
        E 154 85 4d 28
        E 673 95 43 1b
        E 99 85 4c 40
        E 623 95 4f 29
        E 317 85 43 23
        E 435 95 4d 4b
        E 142 85 4f 3a
        E 652 95 43 3d
        E 32 85 4d 3b
        E 647 95 4d 20
        E 214 85 43 28
        E 478 95 4c 49
        E 139 85 4d 34
        E 684 95 43 2f
        E 50 85 4c 40
        E 639 95 4c 40
        E 163 85 43 21
        E 512 95 4a 41
        E 276 85 4c 0b
        E 492 95 43 30
        E 1 85 4a 41
        E 706 95 4a 3f
        E 146 85 43 26
        E 507 95 48 48
        E 153 85 4a 2f
        E 662 85 48 47
        E 14 95 43 3e
        E 693 95 48 40
        E 171 85 43 24
        E 469 95 47 3e
        E 131 85 48 29
        E 650 95 43 2e
        E 14 85 47 55
        E 694 95 4d 39
        E 109 85 43 40
        E 615 95 4c 29
        E 123 85 4d 34
        E 698 85 4c 57
        E 5 95 43 3a
        E 777 95 4c 1a
        E 204 85 43 26
        E 425 95 4a 3d
        E 248 85 4c 1b
        E 559 95 43 14
        E 45 85 4a 49
        E 669 95 4a 1c
        E 164 85 43 22
        E 524 95 48 4c
        E 123 85 4a 27
        E 689 85 48 50
        E 22 95 41 39
        E 33 95 43 28
        E 419 85 43 01
        E 217 95 48 2b
        E 163 85 41 2f
        E 525 95 47 38
        E 252 85 48 17
        E 447 95 43 3f
        E 57 85 47 4e
        E 843 95 4d 07
        E 18 95 4c 2c
        E 59 85 4c 54
        E 13 85 43 4a
        E 536 95 4c 3e
        E 132 85 4d 28
        E 636 95 43 46
        E 43 85 4c 4f
        E 656 95 4c 34
        E 98 85 43 2a
        E 610 95 4a 38
        E 138 85 4c 30
        E 580 85 4a 54
        E 14 95 43 34
        E 650 95 4a 2e
        E 80 85 43 2f
        E 535 95 48 42
        E 148 85 4a 29
        E 563 95 43 36
        E 11 85 48 4c
        E 716 95 48 24
        E 131 85 43 27
        E 498 95 47 32
        E 120 85 48 2e
        E 580 95 43 3c
        E 14 85 47 43
        E 603 95 40 1f
        E 137 85 43 33
        E 693 95 43 31
        E 18 85 40 3f
        E 662 95 41 3f
        E 103 85 43 33
        E 622 95 43 2b
        E 36 85 41 40
        E 676 95 40 30
        E 119 85 43 35
        E 719 95 43 31
        E 6 85 40 47
        E 766 95 45 3f
        E 78 85 43 38
        E 632 95 43 3a
        E 98 85 45 1c
        E 659 95 47 52
        E 80 85 43 36
        E 710 95 43 39
        E 30 85 47 42
        E 719 95 48 4a
        E 72 85 43 38
        E 682 95 43 3b
        E 23 85 48 3d
        E 680 95 48 3d
        E 123 85 43 2e
        E 766 95 43 33
        E 31 85 48 39
        E 680 95 48 38
        E 129 85 43 30
        E 593 95 43 2c
        E 33 85 48 40
        E 709 95 48 25
        E 165 85 43 40
        E 536 95 43 38
        E 89 85 48 39
        E 717 95 48 46
        E 101 85 43 34
        E 652 95 43 2f
        E 146 85 48 1b
        E 573 95 4a 3b
        E 42 85 43 2b
        E 635 95 43 2c
        E 71 85 4a 31
        E 761 95 48 34
        E 135 85 43 38
        E 569 95 43 36
        E 75 85 48 3f
        E 661 95 48 31
        E 115 85 43 36
        E 580 95 43 3a
        E 63 85 48 2c
        E 554 95 48 33
        E 166 85 43 33
        E 596 95 43 3a
        E 102 85 48 2f
        E 672 95 4a 4a
        E 52 85 43 3b
        E 674 95 43 34
        E 141 85 4a 33
        E 578 95 48 2b
        E 173 85 43 31
        E 558 95 43 2f
        E 80 85 48 3a
        E 644 95 48 46
        E 149 85 43 34
        E 535 95 43 36
        E 40 85 48 45
        E 728 95 48 4b
        E 129 85 43 3a
        E 545 95 43 3d
        E 161 85 48 2a
        E 558 95 4a 43
        E 37 85 43 3e
        E 699 95 43 35
        E 140 85 4a 2d
        E 580 95 48 34
        E 95 85 43 36
        E 692 95 43 2e
        E 85 85 48 37
        E 670 95 48 33
        E 162 85 43 29
        E 564 95 43 2d
        E 68 85 48 39
        E 723 95 48 2e
        E 145 85 43 39
        E 603 95 43 33
        E 58 85 48 48
        E 5897 85 43 35
        E 3125 b0 7b 00
        CCINTERP 32
        CHASE_CC_TAKEOFFS 1
        GUID {CA6D7BB2-D9C2-450B-8854-87CC24BBFF48}
        IGNTEMPO 0 120 4 4
        SRCCOLOR 373
      >
    >
  >
  <TRACK {7303D2CC-C541-4D16-A1C7-CC5B54066AA9}
    NAME ""
    PEAKCOL 16576
    BEAT -1
    AUTOMODE 0
    VOLPAN 1 0 -1 -1 1
    MUTESOLO 0 0 0
    IPHASE 0
    PLAYOFFS 0 1
    ISBUS 0 0
    BUSCOMP 0 0 0 0 0
    SHOWINMIX 1 0.6667 0.5 1 0.5 0 -1 0
    SEL 0
    REC 0 0 1 0 0 0 0 0
    VU 2
    TRACKHEIGHT 0 0 0 0 0 0
    INQ 0 0 0 0.5 100 0 0 100
    NCHAN 2
    FX 1
    TRACKID {7303D2CC-C541-4D16-A1C7-CC5B54066AA9}
    PERF 0
    MIDIOUT -1
    MAINSEND 1 0
    <ITEM
      POSITION 0
      SNAPOFFS 0
      LENGTH 67.2
      LOOP 1
      ALLTAKES 0
      FADEIN 1 0 0 1 0 0 0
      FADEOUT 1 0 0 1 0 0 0
      MUTE 0 0
      SEL 0
      IGUID {F0121469-81BC-4D0B-B93A-6299D07973D1}
      IID 3
      NAME "02-Recorded MIDI"
      VOLPAN 1 0 1 -1
      SOFFS 0 0
      PLAYRATE 1 1 0 -1 0 0.0025
      CHANMODE 0
      GUID {0C926B57-6C51-4DF1-864B-017363BE98CA}
      RECPASS 3
      <SOURCE MIDI
        HASDATA 1 960 QN
        CCINTERP 32
        POOLEDEVTS {9EBB94D4-BB7E-4F00-B421-5C989695C670}
        E 0 95 30 39
        E 960 95 2d 45 -19
        E 45 85 30 2a
        E 315 95 2b 25
        E 74 85 2d 22 -19
        E 526 95 32 29 -27
        E 64 85 2b 30
        E 896 95 2d 36
        E 110 85 32 30 -27
        E 250 95 2b 38
        E 120 85 2d 2b
        E 480 95 34 33 41
        E 116 85 2b 3d
        E 844 95 2d 30 67
        E 166 85 34 27 41
        E 194 95 2b 40
        E 47 85 2d 2e 67
        E 553 95 32 43 95
        E 123 85 2b 3a
        E 837 95 2d 36 190
        E 238 85 32 2a 95
        e 122 95 2b 3e
        E 118 85 2d 38 190
        e 523 85 2b 3f
        E 0 b0 7b 00
        CCINTERP 32
        CHASE_CC_TAKEOFFS 1
        GUID {F5D280E7-6581-45C7-85A4-438179C20530}
        IGNTEMPO 0 120 4 4
        SRCCOLOR 370
        VELLANE -1 100 0
        CFGEDITVIEW -29.893333 0.125456 69 23 0 -1 0 0 0 0.5
        KEYSNAP 0
        TRACKSEL 0
        EVTFILTER 0 -1 -1 -1 -1 0 0 0 0 -1 -1 -1 -1 0 -1 0 -1 -1
        CFGEDIT 1 1 0 1 0 0 1 1 1 1 1 0.125 528 -28 1560 661 0 0 0 0 0 0 0 1 0 0.5 0 0 1 64
      >
    >
  >
  <TRACK {2DC4679E-5AD5-45F0-B60E-E81C79F49472}
    NAME ""
    PEAKCOL 16576
    BEAT -1
    AUTOMODE 0
    VOLPAN 1 0 -1 -1 1
    MUTESOLO 0 0 0
    IPHASE 0
    PLAYOFFS 0 1
    ISBUS 0 0
    BUSCOMP 0 0 0 0 0
    SHOWINMIX 1 0.6667 0.5 1 0.5 0 -1 0
    SEL 0
    REC 0 0 1 0 0 0 0 0
    VU 2
    TRACKHEIGHT 0 0 0 0 0 0
    INQ 0 0 0 0.5 100 0 0 100
    NCHAN 2
    FX 1
    TRACKID {2DC4679E-5AD5-45F0-B60E-E81C79F49472}
    PERF 0
    MIDIOUT -1
    MAINSEND 1 0
    <ITEM
      POSITION 0
      SNAPOFFS 0
      LENGTH 604.8
      LOOP 0
      ALLTAKES 0
      FADEIN 1 0 0 1 0 0 0
      FADEOUT 1 0 0 1 0 0 0
      MUTE 0 0
      SEL 0
      IGUID {4791F770-5C88-4F69-BD3D-53F120AC896D}
      IID 7
      NAME "01-Originals - Felt Piano-Recorded MIDI"
      VOLPAN 1 0 1 -1
      SOFFS 472.80000000000041 788.00000000000068
      PLAYRATE 1 1 0 -1 0 0.0025
      CHANMODE 0
      GUID {72FAC4F8-FCE9-44AA-8238-36E8339E5A92}
      RECPASS 4
      <SOURCE MIDI
        HASDATA 1 960 QN
        CCINTERP 32
        POOLEDEVTS {545F0769-283C-4BD2-B1B2-C296E88F86D7}
        E 7615 95 3c 40
        E 2892 95 41 46
        E 142 85 3c 2c
        E 408 95 43 3c
        E 108 85 41 29
        E 438 95 48 51
        E 58 85 43 39
        E 2672 95 43 4d
        E 82 85 48 50
        E 890 95 45 56
        E 88 85 43 1f
        E 2746 95 43 5c
        E 59 85 45 37
        E 753 95 41 4c
        E 85 85 43 43
        E 109 95 40 4f
        E 59 85 41 53
        E 2799 95 3e 45
        E 115 85 40 35
        E 391 95 3c 3d
        E 90 85 3e 3e
        E 470 95 39 43
        E 91 85 3c 2e
        E 2659 95 3c 2f
        E 29 85 39 3b
        E 942 95 3b 48
        E 21 85 3c 4b
        E 2775 95 3c 40
        E 59 85 3b 43
        E 987 95 3e 30
        E 83 85 3c 3b
        E 7098 85 3e 1e
        E 455 95 40 40
        E 2926 95 43 2f
        E 146 85 40 22
        E 303 95 45 34
        E 143 85 43 27
        E 447 95 4a 53
        E 25 85 45 4e
        E 1938 95 4c 3d
        E 57 85 4a 79
        E 943 95 4f 4c
        E 37 85 4c 48
        E 876 95 4d 45
        E 96 85 4f 36
        E 1929 95 4c 4b
        E 70 85 4d 49
        E 1852 95 4a 4c
        E 69 85 4c 51
        E 2567 95 45 43
        E 38 85 4a 43
        E 495 95 47 45
        E 102 85 45 2e
        E 436 95 48 4d
        E 63 85 47 45
        E 1851 95 47 45
        E 76 85 48 36
        E 911 95 48 3f
        E 90 85 47 43
        E 881 95 4a 4f
        E 101 85 48 3d
        E 1817 95 45 37
        E 93 85 4a 49
        E 884 95 43 46
        E 35 85 45 4a
        E 1050 95 41 45
        E 103 85 43 2f
        E 1829 95 40 48
        E 75 85 41 46
        E 1935 95 3e 3f
        E 55 85 40 4c
        E 2387 85 3e 2a
        E 313 95 3e 4d
        E 1036 95 39 4c
        E 131 85 3e 35
        E 4425 95 37 39
        E 82 85 39 39
        E 835 95 35 30
        E 68 85 37 41
        E 1979 95 34 3c
        E 107 85 35 3e
        E 2489 95 35 37
        E 60 85 34 43
        E 421 95 34 30
        E 167 85 35 28
        E 331 95 32 1f
        E 54 85 34 2b
        E 2815 95 30 3c
        E 76 85 32 23
        E 437 95 32 39
        E 74 85 30 47
        E 403 95 34 3b
        E 99 85 32 33
        E 2656 95 35 40
        E 90 85 34 28
        E 966 95 37 4c
        E 108 85 35 34
        E 2895 95 39 30
        E 26 85 37 33
        E 508 95 3b 4a
        E 102 85 39 21
        E 461 95 3c 43
        E 66 85 3b 42
        E 2681 95 43 3d
        E 88 85 3c 40
        E 733 95 41 4f
        E 73 85 43 6b
        E 182 95 40 51
        E 68 85 41 54
        E 1889 95 3e 40
        E 81 85 40 53
        E 1925 95 3c 45
        E 20 85 3e 56
        E 2582 95 3e 46
        E 45 85 3c 3c
        E 957 95 3c 40
        E 22 85 3e 4b
        E 1935 95 39 28
        E 113 85 3c 3e
        E 1934 95 3b 4c
        E 114 85 39 37
        E 2565 95 3e 48
        E 99 85 3b 22
        E 920 95 39 33
        E 42 85 3e 46
        E 2760 95 37 24
        E 14 85 39 36
        E 475 95 39 40
        E 96 85 37 26
        E 453 95 3b 43
        E 72 85 39 41
        E 2738 95 40 47
        E 27 85 3b 39
        E 1033 95 3e 49
        E 80 85 40 4b
        E 1914 95 43 4f
        E 24 85 3e 3e
        E 1961 95 45 32
        E 11 85 43 7d
        E 2596 95 48 43
        E 28 85 45 40
        E 930 95 43 3c
        E 97 85 48 36
        E 3803 85 43 4d
        E 46 95 41 47
        E 1999 95 40 39
        E 28 85 41 47
        E 1954 95 3e 32
        E 142 85 40 35
        E 1750 95 3c 31
        E 15 85 3e 46
        E 1938 95 40 3d
        E 110 85 3c 2d
        E 2559 95 3e 40
        E 113 85 40 2e
        E 389 95 3c 40
        E 35 85 3e 38
        E 536 95 3b 48
        E 86 85 3c 3c
        E 2874 95 37 40
        E 64 85 3b 3a
        E 412 95 39 23
        E 104 85 37 1e
        E 505 95 3b 4a
        E 44 85 39 42
        E 2648 85 3b 31
        E 9 95 39 21
        E 389 95 3b 43
        E 150 85 39 21
        E 493 95 3c 46
        E 151 85 3b 2c
        E 1766 95 40 4d
        E 76 85 3c 45
        E 1793 95 3e 3e
        E 98 85 40 46
        E 2632 95 40 43
        E 57 85 3e 36
        E 672 95 3e 3f
        E 107 85 40 42
        E 147 95 3c 44
        E 63 85 3e 46
        E 3883 95 37 38
        E 70 85 3c 4d
        E 2820 95 3c 40
        E 32 85 37 40
        E 939 95 37 42
        E 28 85 3c 4a
        E 1878 95 35 3f
        E 92 85 37 3d
        E 1879 95 32 35
        E 94 85 35 30
        E 4385 85 32 36
        E 178 95 32 3c
        E 973 95 35 39
        E 93 85 32 42
        E 792 95 37 45
        E 68 85 35 2c
        E 968 95 35 3d
        E 110 85 37 44
        E 1821 95 34 2e
        E 59 85 35 3a
        E 1835 95 39 47
        E 44 85 34 4d
        E 1981 95 3e 4d
        E 21 85 39 53
        E 1879 95 3c 42
        E 935 85 3e 01
        E 851 95 3b 38
        E 64 85 3c 54
        E 1836 95 3c 31
        E 106 85 3b 30
        E 3851 95 48 4c
        E 72 85 3c 46
        E 2764 95 45 45
        E 95 85 48 4b
        E 391 95 43 3f
        E 153 85 45 32
        E 389 95 41 37
        E 46 85 43 41
        E 2768 95 43 4a
        E 90 85 41 33
        E 889 95 48 47
        E 68 85 43 4a
        E 2769 95 43 4c
        E 159 85 48 44
        E 581 95 41 41
        E 27 85 43 4f
        E 257 95 40 44
        E 53 85 41 45
        E 1802 95 3e 48
        E 3 85 40 53
        E 988 95 3c 47
        E 80 85 3e 29
        E 920 95 40 4d
        E 34 85 3c 48
        E 2895 85 40 56
        E 0 95 43 40
        E 696 95 45 4f
        E 82 85 43 3d
        E 164 95 48 49
        E 145 85 45 2c
        E 1790 95 4a 4a
        E 32 85 48 43
        E 916 85 4a 7b
        E 7 95 4c 4a
        E 1000 95 4f 45
        E 21 85 4c 57
        E 2475 95 4d 41
        E 132 85 4f 24
        E 699 95 4c 47
        E 79 85 4d 48
        E 184 95 4a 40
        E 76 85 4c 4a
        E 3878 95 48 48
        E 34 85 4a 4e
        E 3235 85 48 30
        E 503 95 48 52
        E 1985 95 45 43
        E 61 85 48 4c
        E 1916 95 48 54
        E 99 85 45 2c
        E 1827 95 4c 4e
        E 52 85 48 54
        E 1934 95 4a 4c
        E 47 85 4c 51
        E 2683 95 48 3d
        E 144 85 4a 30
        E 376 95 47 40
        E 91 85 48 3f
        E 468 95 45 46
        E 116 85 47 4a
        E 1708 95 43 49
        E 102 85 45 4d
        E 840 95 41 3f
        E 61 85 43 4c
        E 967 95 47 52
        E 63 85 41 4c
        E 1840 95 48 48
        E 95 85 47 4b
        E 810 95 45 48
        E 126 85 48 4a
        E 1007 95 4a 55
        E 19 85 45 52
        E 1883 95 48 57
        E 114 85 4a 3d
        E 1278 95 47 45
        E 72 85 48 4e
        E 446 95 48 38
        E 131 85 47 25
        E 2721 95 47 4b
        E 97 85 48 46
        E 860 95 45 43
        E 95 85 47 45
        E 1745 95 41 31
        E 55 85 45 42
        E 1901 95 43 33
        E 93 85 41 2a
        E 1800 95 40 35
        E 121 85 43 2b
        E 1816 95 41 42
        E 86 85 40 42
        E 1839 95 3e 47
        E 37 85 41 48
        E 1491 95 40 42
        E 112 85 3e 2a
        E 309 95 41 35
        E 68 85 40 4b
        E 2652 95 43 48
        E 84 85 41 38
        E 413 95 41 3b
        E 62 85 43 4f
        E 480 95 45 53
        E 47 85 41 43
        E 1917 95 43 4f
        E 113 85 45 3f
        E 723 95 41 28
        E 74 85 43 3b
        E 939 95 48 53
        E 55 85 41 44
        E 2805 95 4a 26
        E 88 85 48 79
        E 689 95 4c 66
        E 101 85 4a 30
        E 291 95 4a 2a
        E 121 85 4c 30
        E 1626 95 4f 3d
        E 63 85 4a 49
        E 1225 95 4d 2b
        E 159 85 4f 26
        E 361 95 4c 33
        E 79 85 4d 4a
        E 6425 85 4c 20
        E 376 95 4c 43
        E 984 95 4a 4a
        E 93 85 4c 43
        E 1987 85 4a 3a
        E 695 95 4a 3b
        E 979 95 47 3d
        E 53 85 4a 38
        E 2353 85 47 28
        E 463 95 47 40
        E 1017 95 45 4a
        E 90 85 47 32
        E 1824 95 43 45
        E 5 85 45 4b
        E 1600 95 41 2e
        E 99 85 43 3d
        E 453 95 40 3b
        E 117 85 41 30
        E 2475 95 3e 4c
        E 70 85 40 48
        E 409 95 3c 3d
        E 110 85 3e 2a
        E 433 95 3b 41
        E 130 85 3c 31
        E 1665 95 39 31
        E 41 85 3b 49
        E 982 95 3c 51
        E 93 85 39 3e
        E 851 95 3e 4a
        E 35 85 3c 4d
        E 1890 95 39 37
        E 21 85 3e 50
        E 938 95 3e 40
        E 65 85 39 38
        E 876 95 43 19
        E 95 85 3e 46
        E 1977 95 41 4f
        E 98 85 43 3f
        E 1821 85 41 4b
        E 138 95 41 47
        E 6792 85 41 22
        E 556 95 45 43
        E 281 85 45 2b
        E 625 95 45 4c
        E 205 85 45 35
        E 706 95 45 49
        E 202 85 45 24
        E 706 95 45 45
        E 457 95 43 2d
        E 44 85 45 33
        E 474 95 40 40
        E 25 85 43 32
        E 4140 95 43 47
        E 46 85 40 41
        E 191 85 43 2a
        E 666 95 43 40
        E 265 85 43 21
        E 631 95 43 43
        E 254 85 43 2d
        E 678 95 43 43
        E 505 95 41 2f
        E 63 85 43 2f
        E 705 95 40 20
        E 21 85 41 26
        E 1740 95 3c 3d
        E 158 85 40 23
        E 1279 85 3c 35
        E 410 95 3e 4e
        E 364 85 3e 20
        E 571 95 3e 3e
        E 355 85 3e 32
        E 596 95 3e 45
        E 275 85 3e 3d
        E 676 95 3c 46
        E 352 95 3e 3d
        E 169 85 3c 20
        E 461 95 40 51
        E 69 85 3e 22
        E 142 85 40 47
        E 700 95 40 1f
        E 222 85 40 47
        E 701 95 40 43
        E 240 85 40 3f
        E 730 95 3e 32
        E 395 95 40 3c
        E 174 85 3e 1c
        E 355 95 41 53
        E 110 85 40 33
        E 174 85 41 41
        E 660 95 43 43
        E 309 85 43 34
        E 649 95 41 53
        E 327 85 41 2c
        E 667 95 48 56
        E 473 85 48 24
        E 503 95 47 4c
        E 1318 85 47 27
        E 674 95 48 3d
        E 5726 95 34 55
        E 152 85 48 36
        E 3675 95 35 48
        E 97 85 34 4b
        E 3839 95 37 4c
        E 34 85 35 47
        E 1913 95 39 47
        E 57 85 37 73
        E 1469 95 3b 42
        E 112 85 39 4a
        E 441 95 3c 37
        E 113 85 3b 38
        E 2445 95 3b 33
        E 80 85 3c 34
        E 445 95 3c 3d
        E 47 85 3b 3e
        E 483 95 3e 4a
        E 29 85 3c 58
        E 1953 95 3c 48
        E 54 85 3e 46
        E 906 95 3e 3d
        E 69 85 3c 3b
        E 883 95 40 48
        E 106 85 3e 39
        E 1930 95 3e 4d
        E 4 85 40 59
        E 981 95 40 3a
        E 21 85 3e 48
        E 997 95 45 4c
        E 73 85 40 3f
        E 1818 95 43 4c
        E 38 85 45 4c
        E 1396 95 41 38
        E 30 85 43 45
        E 407 95 43 3f
        E 82 85 41 27
        E 3513 85 43 08
        E 188 95 45 51
        E 1949 95 43 49
        E 112 85 45 30
        E 1281 95 45 31
        E 152 85 43 26
        E 353 95 47 48
        E 102 85 45 34
        E 3738 95 48 4f
        E 30 85 47 46
        E 1679 95 47 4a
        E 129 85 48 40
        E 1201 95 45 3e
        E 91 85 47 29
        E 1945 95 48 59
        E 62 85 45 50
        E 9993 95 40 40
        E 73 85 48 4f
        E 402 85 40 09
        E 2487 95 40 37
        E 457 95 43 43
        E 65 85 40 23
        E 462 95 3e 35
        E 41 85 43 30
        E 724 85 3e 01
        E 3116 95 3c 31
        E 760 85 3c 1a
        E 2148 95 3c 36
        E 486 95 41 3f
        E 49 85 3c 24
        E 428 95 3e 2f
        E 25 85 41 2c
        E 1148 85 3e 1b
        E 654 95 39 32
        E 1090 85 39 2c
        E 825 95 3b 23
        E 939 85 3b 01
        E 1914 95 3b 35
        E 420 95 3c 24
        E 157 85 3b 20
        E 474 95 3e 45
        E 26 85 3c 48
        E 1799 95 3c 43
        E 75 85 3e 2f
        E 960 95 3e 34
        E 84 85 3c 30
        E 893 95 43 31
        E 51 85 3e 32
        E 1970 95 41 48
        E 132 85 43 32
        E 1924 95 40 44
        E 75 85 41 40
        E 2622 95 3e 43
        E 153 85 40 27
        E 830 95 3c 1a
        E 77 85 3e 4a
        E 2661 95 3e 3b
        E 23 85 3c 50
        E 488 95 3c 44
        E 52 85 3e 3b
        E 305 95 3b 30
        E 147 85 3c 28
        E 2757 95 3c 4a
        E 116 85 3b 21
        E 879 95 3b 3e
        E 86 85 3c 4a
        E 3862 95 39 40
        E 92 85 3b 2c
        E 2860 95 37 46
        E 50 85 39 4c
        E 389 95 39 26
        E 129 85 37 28
        E 450 95 3b 4b
        E 74 85 39 47
        E 1782 95 3c 4c
        E 4 85 3b 5c
        E 973 95 3e 38
        E 21 85 3c 49
        E 1034 95 40 3a
        E 50 85 3e 4c
        E 2491 95 41 4e
        E 93 85 40 2a
        E 847 95 43 50
        E 87 85 41 3d
        E 2031 95 41 53
        E 396 85 43 01
        E 1197 95 40 35
        E 101 85 41 46
        E 440 95 3e 45
        E 128 85 40 26
        E 2894 85 3e 4a
        E 667 95 3c 51
        E 3029 85 3c 2d
        E 595 95 3c 4a
        E 1998 95 3b 40
        E 32 85 3c 4d
        E 1985 95 3c 47
        E 65 85 3b 3d
        E 1940 95 39 38
        E 78 85 3c 32
        E 1873 95 40 3d
        E 105 85 39 2e
        E 3660 95 41 3e
        E 32 85 40 36
        E 1676 95 40 3c
        E 59 85 41 3d
        E 869 95 41 3f
        E 76 85 40 37
        E 433 95 43 41
        E 145 85 41 22
        E 368 95 45 43
        E 74 85 43 28
        E 1894 95 43 4a
        E 183 85 45 21
        E 763 95 41 48
        E 61 85 43 4c
        E 880 95 40 38
        E 83 85 41 30
        E 2607 95 41 46
        E 96 85 40 30
        E 414 95 40 40
        E 138 85 41 37
        E 368 95 3e 41
        E 68 85 40 33
        E 3951 95 3b 3b
        E 57 85 3e 48
        E 2887 95 39 3d
        E 181 85 3b 28
        E 4530 95 37 41
        E 31 85 39 4b
        E 1824 95 3b 3e
        E 130 85 37 30
        E 1947 95 35 31
        E 62 85 3b 46
        E 2799 95 37 46
        E 137 85 35 31
        E 327 95 35 34
        E 230 85 37 2b
        E 324 95 34 39
        E 52 85 35 43
        E 1810 95 35 43
        E 95 85 34 31
        E 810 95 34 21
        E 111 85 35 4c
        E 910 95 32 43
        E 99 85 34 43
        E 2956 95 30 3b
        E 47 85 32 28
        E 299 95 32 36
        E 79 85 30 20
        E 491 95 34 4a
        E 76 85 32 30
        E 1912 95 32 36
        E 98 85 34 3c
        E 4186 95 30 41
        E 90 85 32 48
        E 4141 95 2f 3a
        E 112 85 30 31
        E 3810 95 30 47
        E 74 85 2f 3e
        E 3468 85 30 25
        E 245 95 30 0e
        E 1878 95 35 20
        E 74 85 30 25
        E 4338 95 30 37
        E 177 85 35 2b
        E 7960 95 4f 2c
        E 2552 95 4d 23
        E 90 85 30 01
        E 5 85 4f 38
        E 867 95 4c 36
        E 52 85 4d 3f
        E 3651 85 4c 19
        E 218 95 4d 41
        E 2937 95 4c 4c
        E 106 85 4d 30
        E 800 95 4a 48
        E 96 85 4c 44
        E 2623 85 4a 1e
        E 165 95 47 3e
        E 816 85 47 28
        E 198 95 4a 45
        E 1246 85 4a 20
        E 638 95 48 3a
        E 906 85 48 29
        E 377 95 4a 4e
        E 274 85 4a 34
        E 261 95 4c 43
        E 2996 95 4f 3f
        E 106 85 4c 2c
        E 406 95 4d 47
        E 118 85 4f 2a
        E 376 95 4c 39
        E 86 85 4d 3c
        E 2442 85 4c 13
        E 422 95 4c 48
        E 426 95 4a 40
        E 92 85 4c 3f
        E 412 95 4c 37
        E 102 85 4a 36
        E 1777 95 48 28
        E 15 85 4c 3a
        E 865 95 47 53
        E 115 85 48 3b
        E 836 95 45 40
        E 103 85 47 32
        E 1270 95 47 48
        E 66 85 45 35
        E 341 95 45 34
        E 179 85 47 2c
        E 692 95 47 46
        E 66 85 45 34
        E 844 95 48 4a
        E 120 85 47 30
        E 1328 95 47 3d
        E 60 85 48 4a
        E 406 95 48 40
        E 279 85 47 0a
        E 563 95 4a 41
        E 94 85 48 34
        E 827 95 48 4a
        E 81 85 4a 3d
        E 844 95 4c 3f
        E 47 85 48 44
        E 792 95 4a 3e
        E 136 85 4c 2d
        E 795 85 4a 41
        E 16 95 4d 43
        E 834 95 4c 36
        E 131 85 4d 2b
        E 1754 95 4a 48
        E 69 85 4c 25
        E 866 95 48 36
        E 144 85 4a 2d
        E 300 95 47 22
        E 9 85 48 42
        E 492 95 45 3d
        E 94 85 47 27
        E 880 95 47 45
        E 116 85 45 1d
        E 815 95 41 2f
        E 67 85 47 43
        E 846 95 43 36
        E 36 85 41 44
        E 963 95 45 40
        E 82 85 43 29
        E 1894 95 43 46
        E 103 85 45 3a
        E 1289 95 41 3c
        E 180 85 43 37
        E 251 95 43 51
        E 116 85 41 3c
        E 2613 95 41 3e
        E 121 85 43 42
        E 604 95 40 3d
        E 50 85 41 44
        E 259 95 3e 5c
        E 90 85 40 40
        E 3788 95 3c 38
        E 100 85 3e 3c
        E 2839 95 3b 2e
        E 103 85 3c 37
        E 808 95 3e 40
        E 93 85 3b 32
        E 1812 95 3c 39
        E 86 85 3e 3a
        E 909 95 3e 3c
        E 82 85 3c 32
        E 987 95 40 49
        E 73 85 3e 22
        E 2026 95 43 46
        E 34 85 40 39
        E 1290 95 41 47
        E 119 85 43 39
        E 386 95 40 3d
        E 75 85 41 49
        E 2600 95 3e 43
        E 150 85 40 30
        E 336 95 3c 37
        E 61 85 3e 45
        E 466 95 3e 43
        E 112 85 3c 2c
        E 1731 95 3c 35
        E 49 85 3e 41
        E 841 95 3b 31
        E 350 85 3c 23
        E 628 95 39 36
        E 114 85 3b 3e
        E 1855 95 3b 46
        E 166 85 39 2a
        E 709 95 39 1f
        E 139 85 3b 34
        E 860 95 3e 33
        E 72 85 39 42
        E 842 95 3c 43
        E 105 85 3e 39
        E 832 95 3b 29
        E 118 85 3c 41
        E 1350 95 3c 46
        E 141 85 3b 36
        E 103 85 3c 37
        E 195 95 3c 45
        E 10580 95 37 26
        E 103 85 3c 50
        E 912 95 39 44
        E 105 85 37 3d
        E 931 95 35 37
        E 119 85 39 25
        E 955 95 39 38
        E 101 85 35 2a
        E 961 95 37 39
        E 79 85 39 35
        E 979 95 3e 44
        E 77 85 37 46
        E 990 95 39 42
        E 97 85 3e 3f
        E 977 95 37 36
        E 9 85 39 27
        E 1098 95 3e 43
        E 127 85 37 3f
        E 1006 95 39 3d
        E 95 85 3e 4f
        E 876 95 37 2b
        E 99 85 39 43
        E 982 95 3e 49
        E 128 85 37 35
        E 968 95 39 44
        E 99 85 3e 42
        E 894 95 37 35
        E 251 85 37 77
        E 881 95 40 4c
        E 63 85 39 46
        E 992 95 39 33
        E 18 85 40 40
        E 903 95 37 1d
        E 327 85 39 20
        E 695 95 41 3f
        E 117 85 37 40
        E 938 95 39 2a
        E 78 85 41 43
        E 930 95 37 01
        E 76 85 39 4f
        E 976 95 43 3e
        E 160 85 37 28
        E 787 95 39 1e
        E 97 85 43 37
        E 900 95 37 1d
        E 1034 95 41 41
        E 86 85 39 39
        E 52 85 37 3a
        E 863 95 39 2c
        E 214 85 41 1e
        E 823 95 37 36
        E 106 85 39 2c
        E 951 95 40 36
        E 109 85 37 32
        E 877 95 39 2a
        E 55 85 40 40
        E 974 95 37 3a
        E 84 85 39 2f
        E 940 95 3e 32
        E 121 85 37 2c
        E 848 95 39 21
        E 129 85 3e 2b
        E 793 95 37 2d
        E 43 85 39 39
        E 910 95 34 34
        E 123 85 37 36
        E 2702 95 35 43
        E 251 85 34 01
        E 789 95 32 22
        E 95 85 35 2d
        E 3116 85 32 27
        E 584 95 32 3f
        E 2766 95 34 40
        E 17 85 32 42
        E 920 95 2d 18
        E 56 85 34 51
        E 3949 95 2f 48
        E 105 85 2d 56
        E 2787 95 2d 23
        E 73 85 2f 50
        E 835 95 30 48
        E 134 85 2d 47
        E 2689 95 2d 36
        E 120 85 30 29
        E 358 95 30 3e
        E 86 85 2d 35
        E 372 95 34 43
        E 138 85 30 48
        E 1698 85 34 32
        E 41 95 32 2a
        E 930 95 37 3c
        E 114 85 32 26
        E 4621 95 41 4e
        E 335 85 37 2b
        E 1638 95 45 50
        E 50 85 41 3d
        E 1947 95 43 46
        E 40 85 45 44
        E 3776 95 40 21
        E 19 85 43 31
        E 1929 95 43 40
        E 99 85 40 36
        E 1823 95 41 40
        E 81 85 43 34
        E 3691 95 3e 3e
        E 117 85 41 30
        E 1856 95 41 49
        E 90 85 3e 33
        E 1842 95 40 4a
        E 50 85 41 4c
        E 853 95 3e 3f
        E 134 85 40 31
        E 741 95 3c 35
        E 74 85 3e 3c
        E 868 95 3b 25
        E 213 85 3c 26
        E 711 95 39 40
        E 79 85 3b 37
        E 1875 95 3b 4c
        E 44 85 39 50
        E 1534 95 3c 3d
        E 82 85 3b 1e
        E 117 85 3c 3c
        E 306 95 3c 3a
        E 9561 95 4a 32
        E 142 85 3c 30
        E 805 95 43 3b
        E 77 85 4a 34
        E 815 95 48 34
        E 110 85 43 2b
        E 881 95 43 43
        E 11 85 48 47
        E 1000 95 4a 2f
        E 32 85 43 30
        E 895 95 43 43
        E 96 85 4a 24
        E 853 95 48 3f
        E 122 85 43 32
        E 776 95 43 2b
        E 53 85 48 38
        E 1027 95 4d 3e
        E 46 85 43 39
        E 888 95 43 3f
        E 37 85 4d 2c
        E 935 95 4c 45
        E 84 85 43 39
        E 859 95 43 2c
        E 83 85 4c 29
        E 854 95 4d 34
        E 48 85 43 3d
        E 859 95 43 3e
        E 101 85 4d 30
        E 870 95 4c 3a
        E 60 85 43 31
        E 856 95 43 40
        E 35 85 4c 34
        E 892 95 4a 2d
        E 73 85 43 36
        E 855 95 43 32
        E 97 85 4a 33
        E 881 95 48 42
        E 82 85 43 3b
        E 847 95 43 3a
        E 58 85 48 41
        E 929 95 4a 3d
        E 51 85 43 27
        E 909 95 43 35
        E 65 85 4a 2c
        E 896 95 48 32
        E 151 85 43 31
        E 844 95 43 3c
        E 55 85 48 46
        E 1045 95 4d 40
        E 22 85 43 33
        E 907 95 43 2b
        E 122 85 4d 28
        E 864 95 4c 36
        E 95 85 43 3d
        E 893 95 43 38
        E 81 85 4c 36
        E 836 95 4d 33
        E 87 85 43 29
        E 844 95 43 3b
        E 66 85 4d 42
        E 910 95 4c 34
        E 138 85 43 22
        E 834 95 43 3b
        E 68 85 4c 40
        E 878 95 48 48
        E 67 85 43 52
        E 901 95 43 32
        E 136 85 48 31
        E 956 95 47 42
        E 55 85 43 44
        E 922 95 43 45
        E 1 85 47 4d
        E 955 95 48 48
        E 56 85 43 3c
        E 850 95 43 3c
        E 118 85 48 39
        E 798 95 47 3b
        E 73 85 43 46
        E 888 95 43 36
        E 51 85 47 3d
        E 882 85 43 33
        E 61 95 45 4c
        E 955 85 45 33
        E 5 95 43 40
        E 960 95 47 46
        E 92 85 43 43
        E 835 85 47 48
        E 73 95 43 46
        E 915 95 45 4f
        E 125 85 43 3f
        E 840 85 45 2a
        E 0 95 43 2d
        E 960 95 47 3e
        E 45 85 43 43
        E 976 85 47 32
        E 0 95 43 30
        E 899 95 45 43
        E 120 85 43 2f
        E 734 85 45 3b
        E 106 95 40 3d
        E 960 95 43 40
        E 117 85 40 1f
        E 819 85 43 2b
        E 8 95 40 40
        E 976 95 3e 1f
        E 120 85 40 30
        E 792 85 3e 38
        E 16 95 40 25
        E 983 95 43 38
        E 130 85 40 24
        E 855 85 43 42
        E 4 95 40 2e
        E 945 95 3c 28
        E 139 85 40 24
        E 785 95 40 2b
        E 88 85 3c 36
        E 870 85 40 47
        E 33 95 43 3f
        E 904 95 40 38
        E 13 85 43 44
        E 1003 95 3b 23
        E 32 85 40 2f
        E 953 85 3b 53
        E 18 95 40 2c
        E 944 95 43 3f
        E 35 85 40 3b
        E 821 95 40 2c
        E 2 85 43 31
        E 962 85 40 33
        E 94 95 3c 22
        E 917 95 40 38
        E 22 85 3c 49
        E 928 95 43 38
        E 68 85 40 2a
        E 854 95 40 22
        E 29 85 43 35
        E 969 95 47 4c
        E 65 85 40 37
        E 857 85 47 2b
        E 70 95 40 37
        E 956 95 45 43
        E 108 85 40 35
        E 800 95 40 38
        E 15 85 45 48
        E 995 95 43 4a
        E 78 85 40 2b
        E 827 95 3e 2b
        E 36 85 43 33
        E 933 95 43 46
        E 97 85 3e 2b
        E 831 95 40 31
        E 4 85 43 32
        E 975 85 40 33
        E 65 95 47 49
        E 922 95 40 3c
        E 37 85 47 2c
        E 899 95 45 42
        E 94 85 40 30
        E 806 95 43 45
        E 83 85 45 4b
        E 876 85 43 23
        E 123 95 40 34
        E 926 95 47 44
        E 115 85 40 28
        E 720 95 45 19
        E 144 85 47 3b
        E 886 85 45 31
        E 89 95 40 27
        E 903 95 43 22
        E 122 85 40 35
        E 858 85 43 28
        E 76 95 40 2e
        E 957 95 47 42
        E 84 85 40 38
        E 708 95 40 2f
        E 116 85 47 26
        E 909 85 40 35
        E 67 95 45 4c
        E 898 95 43 40
        E 64 85 45 4a
        E 863 85 43 2c
        E 95 95 47 45
        E 900 95 40 32
        E 26 85 47 36
        E 987 85 40 2b
        E 54 95 45 1e
        E 907 95 43 45
        E 6 85 45 52
        E 960 85 43 1a
        E 0 95 45 47
        E 869 85 45 3b
        E 74 95 40 31
        E 907 95 47 46
        E 70 85 40 36
        E 862 85 47 30
        E 81 95 43 36
        E 939 95 3e 2b
        E 38 85 43 32
        E 882 95 43 31
        E 45 85 3e 28
        E 918 95 3e 30
        E 45 85 43 33
        E 832 95 43 31
        E 89 85 3e 2f
        E 817 95 3e 20
        E 42 85 43 36
        E 983 85 3e 2c
        E 147 95 43 36
        E 917 85 43 21
        E 23 95 3e 22
        E 1016 95 43 2d
        E 84 85 3e 2b
        E 848 85 43 27
        E 11 95 40 2f
        E 941 95 43 3e
        E 72 85 40 2d
        E 928 95 40 36
        E 22 85 43 2a
        E 898 85 40 2b
        E 0 95 43 32
        E 886 95 40 36
        E 116 85 43 2a
        E 900 95 43 28
        E 9 85 40 2f
        E 969 85 43 2a
        E 0 95 40 28
        E 960 95 43 46
        E 1 85 40 3d
        E 923 85 43 37
        E 13 95 3c 3e
        E 983 85 3c 30
        E 14 95 43 40
        E 946 85 43 27
        E 0 95 3e 32
        E 884 85 3e 34
        E 34 95 43 42
        E 953 95 40 30
        E 49 85 43 2a
        E 960 85 40 33
        E 0 95 43 26
        E 912 95 3b 38
        E 79 85 43 45
        E 929 85 3b 2e
        E 0 95 43 22
        E 960 95 3c 38
        E 5 85 43 3c
        E 928 95 43 2e
        E 76 85 3c 38
        E 883 85 43 2f
        E 28 95 3c 2e
        E 919 95 43 33
        E 31 85 3c 35
        E 958 95 3c 31
        E 12 85 43 3d
        E 960 85 3c 33
        E 39 95 43 21
        E 915 95 3c 24
        E 6 85 43 2c
        E 960 95 43 2e
        E 240 85 3c 1d
        E 731 95 48 41
        E 98 85 43 33
        E 792 85 48 2d
        E 59 95 43 3a
        E 985 95 47 45
        E 10 85 43 26
        E 920 95 43 48
        E 5 85 47 39
        E 960 85 43 3e
        E 0 95 4a 30
        E 951 85 4a 30
        E 9 95 43 2d
        E 960 95 48 44
        E 182 85 43 35
        E 778 95 43 33
        E 21 85 48 4f
        E 888 85 43 31
        E 51 95 47 3b
        E 896 85 47 2e
        E 32 95 43 32
        E 872 85 43 37
        E 64 95 4c 31
        E 896 85 4c 27
        E 120 95 43 33
        E 960 95 4a 45
        E 12 85 43 3d
        E 875 85 4a 39
        E 73 95 43 36
        E 876 85 43 33
        E 92 95 48 3b
        E 832 85 48 38
        E 120 95 43 36
        E 905 85 43 4f
        E 55 95 4f 40
        E 913 85 4f 27
        E 88 95 43 41
        E 887 95 4d 32
        E 32 85 43 4a
        E 852 85 4d 49
        E 108 95 43 3d
        E 915 85 43 33
        E 45 95 4c 3e
        E 880 85 4c 48
        E 96 95 43 42
        E 944 85 43 2e
        E 0 95 4a 3d
        E 856 85 4a 34
        E 138 95 43 3f
        E 926 85 43 33
        E 0 95 48 2b
        E 874 85 48 38
        E 82 95 43 2d
        E 989 95 47 3e
        E 95 85 43 31
        E 876 85 47 2e
        E 1 95 43 2d
        E 923 85 43 2c
        E 70 95 45 3b
        E 890 85 45 2c
        E 57 95 43 2d
        E 876 95 45 39
        E 27 85 43 45
        E 938 85 45 45
        E 22 95 43 43
        E 860 85 43 3d
        E 35 95 4c 2d
        E 905 85 4c 22
        E 120 95 43 2f
        E 936 85 43 41
        E 25 95 4a 41
        E 839 85 4a 3d
        E 87 95 43 39
        E 873 85 43 32
        E 120 95 48 47
        E 840 85 48 31
        E 107 95 43 2a
        E 853 85 43 35
        E 120 95 47 3b
        E 841 85 47 2d
        E 92 95 43 39
        E 867 85 43 44
        E 120 95 4c 43
        E 940 85 4c 2f
        E 20 95 43 33
        E 843 85 43 29
        E 122 95 47 38
        E 835 85 47 2d
        E 120 95 43 38
        E 930 85 43 35
        E 150 95 48 31
        E 833 85 48 33
        E 9 95 43 31
        E 958 85 43 26
        E 81 95 47 1e
        E 759 85 47 2f
        E 120 95 43 34
        E 947 85 43 46
        E 13 95 4d 40
        E 878 85 4d 27
        E 157 95 43 31
        E 885 85 43 27
        E 0 95 4a 41
        E 882 85 4a 3b
        E 74 95 43 38
        E 844 85 43 30
        E 120 95 48 41
        E 992 95 43 31
        E 17 85 48 2e
        E 911 85 43 44
        E 14 95 4a 44
        E 826 85 4a 2a
        E 142 95 43 34
        E 938 85 43 39
        E 0 95 4c 2f
        E 846 85 4c 47
        E 126 95 43 25
        E 948 95 4a 2b
        E 45 95 48 24
        E 315 85 43 01
        E 0 85 48 19
        E 541 85 4a 31
        E 85 95 43 30
        E 881 95 48 0b
        E 53 85 43 39
        E 890 85 48 2f
        E 116 95 43 3c
        E 914 85 43 35
        E 33 95 47 37
        E 927 85 47 45
        E 0 95 43 3f
        E 960 95 40 1e
        E 10 85 43 2b
        E 889 85 40 2f
        E 57 95 43 2f
        E 964 95 3e 2d
        E 43 85 43 32
        E 864 85 3e 43
        E 53 95 43 1a
        E 999 85 43 33
        E 9 95 41 3b
        E 912 85 41 46
        E 0 95 43 2a
        E 960 95 3e 35
        E 39 85 43 2c
        E 900 85 3e 48
        E 22 95 43 21
        E 959 85 43 36
        E 32 95 40 30
        E 928 95 43 37
        E 120 85 40 30
        E 768 85 43 2b
        E 72 95 3e 23
        E 901 95 43 29
        E 34 85 3e 45
        E 927 85 43 4a
        E 113 95 40 2e
        E 905 85 40 42
        E 18 95 43 39
        E 942 85 43 35
        E 8 95 41 3c
        E 832 85 41 38
        E 120 95 43 3f
        E 875 85 43 39
        E 85 95 3c 30
        E 909 95 43 25
        E 15 85 3c 3f
        E 876 85 43 3f
        E 120 95 3c 2c
        E 905 85 3c 38
        E 55 95 43 29
        E 893 85 43 2d
        E 67 95 3c 36
        E 960 95 43 32
        E 64 85 3c 2d
        E 896 95 3c 3a
        E 23 85 43 33
        E 851 85 3c 40
        E 86 95 43 30
        E 926 85 43 46
        E 34 95 3b 3f
        E 934 85 3b 38
        E 15 95 43 3d
        E 971 85 43 32
        E 19 95 3b 30
        E 941 95 43 37
        E 120 85 3b 33
        E 793 85 43 45
        E 66 95 3c 29
        E 941 85 3c 36
        E 42 95 43 34
        E 899 95 3c 2e
        E 19 85 43 23
        E 840 85 3c 41
        E 94 95 43 3b
        E 986 85 43 38
        E 0 95 3b 36
        E 960 95 43 29
        E 69 85 3b 38
        E 794 85 43 41
        E 97 95 3b 1b
        E 999 95 43 39
        E 121 85 3b 35
        E 800 85 43 3f
        E 37 95 3c 2d
        E 923 85 3c 2e
        E 78 95 43 33
        E 882 85 43 30
        E 0 95 3c 26
        E 873 85 3c 34
        E 87 95 43 34
        E 960 95 3e 3b
        E 55 85 43 3a
        E 899 95 43 3c
        E 14 85 3e 21
        E 952 85 43 2d
        E 0 95 3e 38
        E 921 85 3e 2f
        E 39 95 43 38
        E 960 95 40 26
        E 9 85 43 3d
        E 849 85 40 3d
        E 154 95 43 3e
        E 908 85 43 33
        E 19 95 40 3b
        E 821 85 40 34
        E 79 95 43 3d
        E 881 85 43 41
        E 132 95 40 43
        E 948 85 40 2b
        E 0 95 48 41
        E 844 85 48 3e
        E 116 95 40 2e
        E 906 85 40 3b
        E 54 95 43 42
        E 754 85 43 46
        E 206 95 40 30
        E 882 85 40 32
        E 78 95 48 40
        E 905 85 48 2a
        E 55 95 40 36
        E 731 85 40 3b
        E 251 95 43 29
        E 818 85 43 34
        E 120 95 40 3a
        E 848 85 40 26
        E 98 95 48 2c
        E 854 85 48 3e
        E 153 95 40 3b
        E 807 85 40 2f
        E 120 95 43 3e
        E 835 85 43 30
        E 144 95 41 30
        E 821 85 41 2d
        E 142 95 48 36
        E 818 85 48 29
        E 120 95 41 28
        E 890 85 41 2f
        E 92 95 43 17
        E 938 85 43 21
        E 0 95 41 25
        E 846 85 41 3d
        E 114 95 48 44
        E 843 85 48 32
        E 117 95 41 2e
        E 738 85 41 2f
        E 137 95 43 38
        E 805 85 43 37
        E 240 95 41 2d
        E 840 85 41 44
        E 148 95 4a 2c
        E 812 85 4a 38
        E 136 95 45 38
        E 704 85 45 3d
        E 240 95 43 26
        E 879 85 43 30
        E 81 95 4a 36
        E 793 85 4a 35
        E 167 95 45 23
        E 773 85 45 26
        E 131 95 43 2e
        E 896 85 43 30
        E 120 95 4a 30
        E 813 85 4a 2a
        E 147 95 45 2e
        E 895 85 45 01
        E 65 95 43 22
        E 819 85 43 31
        E 208 95 47 28
        E 773 85 47 42
        E 120 95 45 30
        E 886 85 45 3a
        E 74 95 43 2d
        E 773 85 43 2d
        E 187 95 48 42
        E 761 85 48 35
        E 214 95 45 3a
        E 705 85 45 2a
        E 240 95 43 26
        E 811 85 43 37
        E 197 95 4a 30
        E 792 85 4a 2b
        E 120 95 45 29
        E 960 95 43 20
        E 5 85 45 0f
        E 804 85 43 30
        E 151 95 4c 3e
        E 960 95 45 1b
        E 8 85 4c 1b
        E 952 95 43 1e
        E 438 85 45 31
        E 365 85 43 31
        E 83 95 4a 42
        E 794 85 4a 2c
        E 247 95 47 2b
        E 953 85 47 1c
        E 41 95 43 27
        E 799 85 43 34
        E 137 95 48 4c
        E 823 85 48 2a
        E 240 95 47 26
        E 820 85 47 27
        E 20 95 43 01
        E 960 95 4c 2a
        E 302 85 43 3e
        E 596 85 4c 34
        E 62 95 4a 32
        E 816 85 4a 46
        E 144 95 43 31
        E 909 85 43 43
        E 51 95 4d 1f
        E 876 85 4d 28
        E 118 95 4c 35
        E 926 85 4c 40
        E 41 95 43 15
        E 919 95 4f 23
        E 120 85 43 23
        E 774 85 4f 3a
        E 66 95 4d 45
        E 826 85 4d 3b
        E 134 95 43 37
        E 893 85 43 28
        E 67 95 4d 1a
        E 831 85 4d 34
        E 96 95 4c 43
        E 873 85 4c 40
        E 120 95 43 29
        E 852 85 43 21
        E 108 95 4c 3a
        E 951 85 4c 0b
        E 9 95 4a 3b
        E 769 85 4a 41
        E 191 95 43 2a
        E 853 85 43 26
        E 141 95 4a 39
        E 806 85 4a 2f
        E 145 95 48 42
        E 815 85 48 47
        E 216 95 43 38
        E 864 85 43 24
        E 0 95 48 3a
        E 771 85 48 29
        E 234 95 47 38
        E 795 85 47 55
        E 143 95 43 28
        E 817 85 43 40
        E 113 95 4d 33
        E 847 85 4d 34
        E 120 95 4c 23
        E 821 85 4c 57
        E 139 95 43 34
        E 960 95 4c 14
        E 21 85 43 26
        E 856 85 4c 1b
        E 83 95 4a 37
        E 852 85 4a 49
        E 108 95 43 0e
        E 878 85 43 22
        E 82 95 4a 16
        E 811 85 4a 27
        E 177 95 48 46
        E 812 85 48 50
        E 28 95 41 33
        E 33 95 43 22
        E 419 85 43 01
        E 380 85 41 2f
        E 240 95 48 25
        E 940 85 48 17
        E 0 95 47 32
        E 756 85 47 4e
        E 204 95 43 39
        E 960 95 4d 01
        E 18 95 4c 26
        E 12 85 43 4a
        E 47 85 4c 54
        E 681 85 4d 28
        E 202 95 4c 38
        E 811 85 4c 4f
        E 149 95 43 40
        E 797 85 43 2a
        E 163 95 4c 2e
        E 846 85 4c 30
        E 114 95 4a 32
        E 718 85 4a 54
        E 242 95 43 2e
        E 730 85 43 2f
        E 230 95 4a 28
        E 763 85 4a 29
        E 197 95 48 3c
        E 722 85 48 4c
        E 220 95 43 30
        E 858 85 43 27
        E 120 95 48 1e
        E 749 85 48 2e
        E 211 95 47 2c
        E 714 85 47 43
        E 246 95 43 36
        E 754 85 43 33
        E 198 95 40 19
        E 848 85 40 3f
        E 120 95 43 2b
        E 783 85 43 33
        E 177 95 41 39
        E 761 85 41 40
        E 208 95 43 25
        E 831 85 43 35
        E 120 95 40 2a
        E 844 85 40 47
        E 116 95 43 2b
        E 850 85 43 38
        E 142 95 45 39
        E 808 85 45 1c
        E 120 95 43 34
        E 837 85 43 36
        E 123 95 47 4c
        E 820 85 47 42
        E 159 95 43 33
        E 821 85 43 38
        E 120 95 48 44
        E 777 85 48 3d
        E 197 95 43 35
        E 826 85 43 2e
        E 120 95 48 37
        E 920 85 48 39
        E 40 95 43 2d
        E 840 85 43 30
        E 120 95 48 32
        E 755 85 48 40
        E 205 95 43 26
        E 907 85 43 40
        E 103 95 48 1f
        E 790 85 48 39
        E 120 95 43 32
        E 907 85 43 34
        E 53 95 48 40
        E 899 85 48 1b
        E 61 95 43 29
        E 761 85 43 2b
        E 199 95 4a 35
        E 748 85 4a 31
        E 212 95 43 26
        E 960 95 48 2e
        E 7 85 43 38
        E 772 85 48 3f
        E 181 95 43 30
        E 851 85 43 36
        E 109 95 48 2b
        E 758 85 48 2c
        E 202 95 43 34
        E 783 85 43 33
        E 153 95 48 2b
        E 864 85 48 2f
        E 134 95 43 32
        E 826 85 43 3b
        E 93 95 4a 42
        E 867 85 4a 33
        E 120 95 43 2c
        E 892 85 43 31
        E 97 95 48 23
        E 811 85 48 3a
        E 120 95 43 27
        E 873 85 43 34
        E 83 95 48 40
        E 724 85 48 45
        E 240 95 43 30
        E 897 85 43 3a
        E 63 95 48 45
        E 835 85 48 2a
        E 125 95 43 37
        E 756 85 43 3e
        E 204 95 4a 3d
        E 876 85 4a 2d
        E 109 95 43 2f
        E 815 85 43 36
        E 120 95 48 2c
        E 872 85 48 37
        E 131 95 43 26
        E 917 85 43 29
        E 0 95 48 2b
        E 794 85 48 39
        E 166 95 43 25
        E 936 85 43 39
        E 24 95 48 26
        E 806 85 48 48
        e 154 95 43 2b
        e 5955 85 43 35
        E 598845 b0 7b 00
        CCINTERP 32
        CHASE_CC_TAKEOFFS 1
        GUID {16F97114-F97A-407F-90BB-1AC1128CCC09}
        IGNTEMPO 0 120 4 4
        SRCCOLOR 376
        VELLANE -1 100 0
        CFGEDITVIEW 0 0.004713 47 46 0 -1 0 0 0 0.5
        KEYSNAP 0
        TRACKSEL 0
        EVTFILTER 0 -1 -1 -1 -1 0 0 0 0 -1 -1 -1 -1 0 -1 0 -1 -1
        CFGEDIT 1 1 0 1 0 0 1 1 1 1 1 0.125 151 300 1183 989 0 0 0 0 0 0 0 0 0 0.5 0 0 1 64
      >
    >
  >
  <EXTENSIONS
  >
>
